<mxfile host="65bd71144e">
    <diagram id="BB-P8LQBv9p690ByxCHv" name="PÃ¡gina-1">
        <mxGraphModel dx="3182" dy="1407" grid="1" gridSize="3" guides="0" tooltips="1" connect="1" arrows="1" fold="1" page="1" pageScale="1" pageWidth="1169" pageHeight="827" background="#ffffff" math="1" shadow="1">
            <root>
                <mxCell id="0"/>
                <mxCell id="1" parent="0"/>
                <mxCell id="36" style="edgeStyle=orthogonalEdgeStyle;html=1;entryX=0.5;entryY=0;entryDx=0;entryDy=0;strokeWidth=4;" edge="1" parent="1" source="37" target="47">
                    <mxGeometry relative="1" as="geometry"/>
                </mxCell>
                <mxCell id="37" value="&lt;b style=&quot;font-size: 23px;&quot;&gt;&lt;font style=&quot;font-size: 23px;&quot;&gt;animacao_aeropendulo.py&lt;/font&gt;&lt;/b&gt;" style="rounded=0;whiteSpace=wrap;html=1;strokeWidth=4;spacing=2;fontSize=23;" vertex="1" parent="1">
                    <mxGeometry x="-834" y="759" width="432" height="57" as="geometry"/>
                </mxCell>
                <mxCell id="38" style="edgeStyle=orthogonalEdgeStyle;html=1;entryX=0.25;entryY=0;entryDx=0;entryDy=0;strokeWidth=4;" edge="1" parent="1" source="39" target="47">
                    <mxGeometry relative="1" as="geometry"/>
                </mxCell>
                <mxCell id="39" value="&lt;span style=&quot;font-size: 23px;&quot;&gt;&lt;b style=&quot;font-size: 23px;&quot;&gt;graficos_aeropendulo.py&lt;/b&gt;&lt;/span&gt;" style="rounded=0;whiteSpace=wrap;html=1;strokeWidth=4;fontSize=23;" vertex="1" parent="1">
                    <mxGeometry x="-834" y="831" width="432" height="57" as="geometry"/>
                </mxCell>
                <mxCell id="40" style="edgeStyle=orthogonalEdgeStyle;html=1;entryX=0;entryY=0.5;entryDx=0;entryDy=0;strokeWidth=4;" edge="1" parent="1" source="41" target="47">
                    <mxGeometry relative="1" as="geometry"/>
                </mxCell>
                <mxCell id="41" value="&lt;span style=&quot;font-size: 23px;&quot;&gt;&lt;b style=&quot;font-size: 23px;&quot;&gt;implementacao_controlador.py&lt;/b&gt;&lt;/span&gt;" style="rounded=0;whiteSpace=wrap;html=1;strokeWidth=4;fontSize=23;" vertex="1" parent="1">
                    <mxGeometry x="-834" y="906" width="432" height="57" as="geometry"/>
                </mxCell>
                <mxCell id="42" style="edgeStyle=orthogonalEdgeStyle;html=1;entryX=0.25;entryY=1;entryDx=0;entryDy=0;strokeWidth=4;" edge="1" parent="1" source="43" target="47">
                    <mxGeometry relative="1" as="geometry"/>
                </mxCell>
                <mxCell id="43" value="&lt;span style=&quot;font-size: 23px;&quot;&gt;&lt;b style=&quot;font-size: 23px;&quot;&gt;interface_interativa.py&lt;/b&gt;&lt;/span&gt;" style="rounded=0;whiteSpace=wrap;html=1;strokeWidth=4;fontSize=23;" vertex="1" parent="1">
                    <mxGeometry x="-834" y="978" width="432" height="57" as="geometry"/>
                </mxCell>
                <mxCell id="44" style="edgeStyle=orthogonalEdgeStyle;html=1;entryX=0.5;entryY=1;entryDx=0;entryDy=0;strokeWidth=4;" edge="1" parent="1" source="45" target="47">
                    <mxGeometry relative="1" as="geometry"/>
                </mxCell>
                <mxCell id="45" value="&lt;span style=&quot;font-size: 23px;&quot;&gt;&lt;b style=&quot;font-size: 23px;&quot;&gt;modelo_mat_aeropendulo.py&lt;/b&gt;&lt;/span&gt;" style="rounded=0;whiteSpace=wrap;html=1;strokeWidth=4;fontSize=23;" vertex="1" parent="1">
                    <mxGeometry x="-834" y="1053" width="432" height="57" as="geometry"/>
                </mxCell>
                <mxCell id="49" style="edgeStyle=orthogonalEdgeStyle;html=1;entryX=1;entryY=0.5;entryDx=0;entryDy=0;exitX=1;exitY=0.5;exitDx=0;exitDy=0;strokeWidth=5;" edge="1" parent="1" source="47" target="48">
                    <mxGeometry relative="1" as="geometry">
                        <Array as="points">
                            <mxPoint x="-189" y="928"/>
                            <mxPoint x="27" y="928"/>
                            <mxPoint x="27" y="1284"/>
                            <mxPoint x="-82" y="1284"/>
                        </Array>
                    </mxGeometry>
                </mxCell>
                <mxCell id="47" value="&lt;b style=&quot;font-size: 23px;&quot;&gt;&lt;font style=&quot;font-size: 23px;&quot;&gt;main.py&lt;/font&gt;&lt;/b&gt;" style="rounded=0;whiteSpace=wrap;html=1;strokeWidth=4;fontSize=23;" vertex="1" parent="1">
                    <mxGeometry x="-348" y="906" width="234" height="57" as="geometry"/>
                </mxCell>
                <mxCell id="48" value="" style="shape=image;imageAspect=0;aspect=fixed;verticalLabelPosition=bottom;verticalAlign=top;image=data:image/png,iVBORw0KGgoAAAANSUhEUgAAAggAAAELCAYAAAC8gH5QAAAAAXNSR0IArs4c6QAAIABJREFUeF7snQV4VFfax/9xd3cghJCEBIK7FgptoS50S7e6ddlu2bb0a7ttd+tsZakXarQU6gLF3SECxI0kxN1t7Hvem0yYDDNzzx1JCDn3efIkmXvsvufO+f/Oe8yqsalFBX5xC3ALcAtwC3ALcAtwC2hYwIoDAn8fuAW4BbgFuAW4BbgFtC3AAYG/E9wC3ALcAtwC3ALcAhdYgAMCfym4BbgFuAW4BbgFuAU4IPB3gFuAW8A4C6hUCrQ2t8LO0QkO9nbGJcJjcQtwCwwaC3APwqCpKl5QboGBtcDpPRvx8YZdGDH5Mjxw+3Vwtrc1okBypB45hFZrF4weHQMfDxeDaShkXcg8fRK1XY6YNnks7G1sjMiTR+EW4BYwxgIcEIyxGo/DLWBJC3TW4JmHH8Lh7DKExU7C/z37LEaH+VgyR9G0y8/swE23PYThky9HZW4yljzyJh6/frpovAsDNOEvMycj1z4ar73xFuZPjDKYRktDDf551zLsqQ7Cga3r4eviZESePAq3ALeAMRbggGCM1XgcbgELWuDssd+wbMVDKK6sh71nBNZ8uhY3LZoKK408FXIZZHI5ACvY2dvDxtpauCvr6oRcoYCtnT2soIJcoYKjgz0AFRRyOWQyOVRWVrCzs4etTXccpUKOzq4uWNnYwd7GCl0yGazpb7seD4FKhj2/f4+MalvcevMVyDiyC8n5zfjrPbfBzUaJrs4uKFUq2Nk7QCmnvyH8bWN9vsTq8lrbtOLquJHIdIjDh598hiXTRqOjvR2wsoG9gz2srawg6+yAXAnYOzigraEaf7t2OrZVhCLr5Bb4uzkLzyKX0fMrYGVlDTt7u97nt2C18KS5BYacBTggDLkq5w98MVtApejAl/99Hs++8TGCR8WhKD0dSx/+Dz544QE42NkAShmyT5/A1q1/Ij3vHGDrjJjEKbjm2usw3M8e332wGpuPpGPM1Plwai1GRrMnPnzpURRmpWDz5j9xKjMXKjtnxI2bgqVLl2JkqA9yTh3A/979GHbhiRjjq8CJ09lwCxyJm1fciQlRQZB3tiD5yD5s37kbZ0trYO/mi8kz5uGapYvh0FKEt955H7nnqjF19jwUZyahtlWJ6QuW4sarL4ebgw0q8lPxw48/41TuOfiFhmLb2ndQ6xHfDQhTvfDknf+AIiwBjz34NwwL8sLXq5/CtowuPPPSKoQ7qfoAgq+TLXJOH8fmP7chI68Qts6eGDthOpYtuwqhvm4Xc9XysnELDDoLcEAYdFXGC3wpW6CpIh8rH74HG3fl4L3vvsXn/7gFRY6J2L/rR4R6OKEgZTeefPJJnKr1wAN3XofSM/uw4Y8DWPiXp/HxG/fh9b/dhHe/3ws3H384WivhOGohjny9Cg+uuAW7Mutw9XXXwqqhCJu37Uf84rvww2f/RsqOb/DXFfejzXMk5k8fj9qSHBxPTsOwqbfgz5/eR+a2r7Fy1b9gM2IOblk0AUe3/oidyWfx2Kvr8NBsL9xw2104nlaAKfOXItS5A9t37YeVezA+WP8LFkVZ42+3Lcfm43mInzQT8ZE++GPjRigCEroBYYo9xvuPhTzuMnz92YcYGxWEf940BR8faMNve//AeD+nPoAgK8/AI/feg6PFnbjllutQV3Aauw4mY9oNj2H9O/+Evaab5VJ+UfizcQv0gwU4IPSDkXkW3AKsFkg7thV3LP8LGiOWIuX3d/HflSuwesMBvLzhEB69fAS+fPsFPPOfDxA59yZcOysOTSUZ+OybX+AWMAo/bN+GTauWC4Bw+6qP8MK9S2BlY4+y/Wsx9/bnMPvWJ/HZayshry/Gygdvw69HyrDpRCHc8zcJgBCw6An8+fHTKMs4hPsefARJ2VXYsOMYDq97Bu9v2I6r7nwS4yNckZ+yF5s278OoWXfg+7dvx19vuwsnMkqwfk8m5kW24vaFV2B/cQtW/Xc95rhmYskdTyMoahI++3Yj4oK6cHX8aGQ79gwxSASE1E2vY/kTq3HlI2/hk+fuQnn2cTzy4H04mNmI31POYlY4X13B+q7xcNwCYhbggCBmIX6fW6AfLfDNG4/gkX9/jqAx07BwUjTy007i4Ik0DJv/Nxz97l/45D8r8a/3voF78AiMDPPrLZm3XxheXP0ONjx7mwAID7z2HV598Crh/v51T2Pp42uw/Ik38c6z90HZXI7/e+wOrP31GD7YmY/Ihm0CIARftQp71q5C/dlk3H7nPdifnIuPvt+Dw188ja82H0VEzDgEeDj05hkWMw8vP7YEd67oBoQfjxVjfpQC9y2aiZ/S6vH06q8xrvMglj/5JkZNvBY//vE5AuwasWTUsPNzEHoAoStmPr5e+yESR4UY9CDs/egfuPflr/Hga9/i1QeXob44DQ/dfzc2H8zEl/uLcM04r36sLZ4Vt8ClbQEOCJd2/fKnG0wWkDfgptkTsK9YiQnj4uDkYAdlZyvOnElDdasdftp/FE0H1+GJ599CwOSb8N8XHkawjysaq0uRm1+Jy65bgrcf6B5i0ASEs0c2Yf7V9yJ46nX432uroKjOwXP/fALJlU7YceIk2lO+EwDBa9bf8O0bD+HMwd/xwr/fQpksCHsObMaW957CG5/+iCvvfxl/X7EE7o7WqCjOR2mbMxbFOAtDDJqAcP/lM/HjmW5AuCKgCPNveRwewTF47pVXEenejEduvRXVnuo5CB6YFR6NAsdIPPP004iPcMfq5x7FvkInnUMM+bs+x833PoNRC+/Gmn8/hrIz+/F/zz2P/FZ/7D1xBDHefBnkYHrleVkvbgtwQLi464eXbghZoPjAOkxZ9ihiF96Gd15+Cn4eTlB21uGVp57AN38exE1PrsGrd8/A68/9A5/+dAAhEcPh7uKAjpZG2LhF4YdtG7D20QsBoau1Dquffwzvb9iJwLBwoLMZ5XUduOvJ/+CFR2/Bye3dcxAa7HwRGR6Ihupy1LRZYeUb6/DErXNRfOYg/vnE37HndCkiIsLhaGeF5voahMy6CxufWWwQEB5dNhpP3XU9Pt+RAV//QHh5u6M6Px2qgLE9qxii8Np9V+G17w7Dy8cPLi5uULRWoqzdVycgOLRX4d/PPIb1W44jfNgwdDbXorrFCk+8/B4eX3E5OB4MoS8Mf1SLW4ADgsVNzDPgFmCzQPLWr7HjdAUSZ1yGedMSYde9ChFph7dh26FUeAWOwk23XgtXG+DsmaPYcyQZTW0yBEaMwrz58xDgYYO9v/+I45mFmDD/OiyYOKo3Y5W8E+kpR7H/yEmoHD0xc85CjBkVDhsrFY72AELg5Y/juRtikF3SimnzL0didASs1JP+lF04eWAXTqRloVNlj1ExiZgzayps2yrx/c+/oaymGTfe9SiGe6uw+ZsvkFndgRkLr8G0MRGAqgs7fvkeeTUyLFiyECd//QY1tn644kpaReGLzrYm7PnzFxTUyrBo2Y0oPPQ9kopkuOWvyxHobIvNmz5Hfqs7HrxnOVzs7aCUtSP56H4cOXka9p5BmDd/IaLCA86Xlc3cPBS3ALeAiAU4IPBXhFtgSFvgPCCo5yAMaXPwh+cW4BbotQAHBP4ycAsMaQuokJW8B6vfWgOfyTfjtcdvHtLW4A/PLcAtcN4CHBD428AtMMQtIJd1oqWlFdZ2TnB35VsZD/HXgT8+twD3IPB3gFuAW4BbgFuAW4BbQL8FuAeBvx3cAtwC3ALcAtwC3AIXWIADAn8puAW4BbgFuAW4BbgFOCDwd4BbgFuAW4BbgFuAW0DcAtyDIG4jHoJbgFuAW4BbgFtgyFmAA8KQq3L+wNwC3ALcAtwC3ALiFugDCC4prYBSJR6rn0O0KTrwZ9Eh1HQ2ontjt/Nnunbv9KZxxqtVn7tau6v1uQkrzXiUilZavbvIaTyvlfaHWv+Llq83H20jWunYCa5vedUxNMvdW57eoOfjqMNpPpe6uH2eo+dDzbKr7/d9PI0yatzQlQ+ZVqOW+j6bjrhCLWp+rnls7wU27numr3ad6C1zrwG14mu9U9pl0awppneiN4K++tN6Z3V8ny54r/V853SVx+DXU0cET09PREZG9fO3mmfHLcAtcLFboA8guO9vBJQXZ5HXZv2Kouby7qZcWzD6CIuYeJj3vlh59InNBaCh47kMC5UmJPVIu1roddijr/iKh9fM+zws6LadrrQvFPwLy2sojLnunWcCafUupd5Y6+kCJBRRd13viK5vJ2u4vqBz3h6+vn4YE59g/BdfpUBzUyuc3NwARRc6ZSq4ODtKS0+lREd7O5Q29nB2OH9ks0qlglwmg629vRbO60qewsphZW0DK5UcSitb2Nr07FdtoDQqpRxt7Z1wdHKGjXXf94TlITprC/DKv/+LxLv+hWvifXVG2fPbL5i49Bq49SSvUipQlJcBG88IhPm7s2TDw3AL9LsFBg0g/Hp2L5JqsnoNdDFBAovYs4SRIkqGBF9M3HUJvqHPdKXHAgAs4MCSji6RN1T/FwO06RPjiwkS1Hby9fXFmPixxjc+bTlYOO9+PPHeB3As24tP9rfjq9fuRW5OPjqVtogZE4OckwfRae0Aj4DhCHNqRZXKF47t1bDzD4W3kz3kbQ346JX/Q3PiX3HfDF/kFFZBobJB1MggbFy7DjNv+htC7ZpQVtcGZ3cvuKIZBTUyeLk4wtZGiebGJviGDsPJvX/AyiMaMQ45yHGcifHDXBEUHID01DSEhgWgtLQcMmsXjEuI7j3YqejoBry58QzufujviA+xQ3p2IaztHRER5ImUU3nw9fOCs7MTmpsaobByRESIL4qLCtHV1QXf8BhYN5bgXE01CkpluHLheBTn56FLDkTGT4RVSwWKy2vw1bv/w8P/ewfOLW3wdVIiu94ajXmHYRs0Dq6KJiisreEXGI5gf35ctfEvIo9pbgsMGkDYW5aE3aUn+jy/pSCBRczFBIpFpIwFAkOCySL+YsJtCVhgBQFz1akxdchaZ/rqzZjPDcVhhQyp0KEdnjwI8QmmAcJ9T/+EscGd8IwIxoEzwD+u9MSan05C2VqPm596B4c+fgYTFsxCcpE9bh1Vi32q6QgoOQS3+ddiclC3KG777E3YLVkJn4KfcTinC6ryk4i+5hGk/boOM266Dds/WA2Zhw9UzgGIcS7HOb8rsHCUK6pK85B8dA8Uw5YgyqEMKvcojFIeRartXDh1lmNKrD/W/p6LBWPd0KDyRtXpPZhx1wuI87MF0IXVq55G7IKlsLKyh2fjaWw4Vg4bpRLXLU7ABxszsfLu+cjOL4WPfyBqsknUx6OluRKREX7Yf7QAowOBlNxKVBUVYNEdD6G54BQC7VtxzmcehssyIXOLwLYv1+Km51eiPuscZoR24d10Lyz0r0J1UwfKOjwxJtgedc1dWHzVlXDiR1KaW+d4ekZaYNAAwunaPHyfv6PfhhfEAIBFgFgER597WCx/bUiQOoTAAhL6RF0MMIyBAZY0DaVrrK1Z6pG1jnSBmxSRZxkqYAkjVg5LAMKD/9qLx/4Sj9bODny7tQgrxrcg02UeliQGw8HFE5+99Sr++tCteP+rE7h9bBt2yyYjsOww3BdcdwEgBJRsRak8HI75m1AV+xCQ9Tvm3HAtnn/433jt7X8JQw2n/liDurF/R7wyA0fOZGJytDvW7WjAgnFe8I8YC9usb5ARsBz2544g+/QRzLzrBTSf3orAcYtR8stLcF72BuaOsEdrwQHctPIzxA9zh21gPEZ2pCHo+hcwNcQOjh35eOz9M/jgqSX48c8DmDxzPsr2rEFKZwJGDPfBghlxeO7Jf2PSjESMGj8PYV72yC8qQkNdIyb5NeLNo46Y6FmJsfOX49sXH8PsRx5BbVYhZoTJ8b90bwEQ8gsKYRV9Da4c7YDde/dh0Y1/gQdxC7+4BS4CCwwaQDjXUoFPMn4WTKZPTKSKhJgIS70vNX+xhlwsf838jAUEMQhgEW5Wj4Mx4GDO+tZVPyx1pi+eOT8XexekgIbUsCZ7ENqL8J8PT+DZJ24A2kqw+usk/O36sfh83Xp0qBxw9d2PI/nXL7Hsliuw8bc03HpZBF59ex1aW5VY/vQqTAjygrylBp+8+xZqwxZieaIjquWBsC/ZhuboFWg5uR6NbnEYbXMWW1LLETo8GhG2pbAe/zfE2Rfhhx9/Qqe8HTKfqZgfZY29xwpw2VhbVPkvwxibbLyzJRevP3kHslIPY9vOA2izD8YTj/4VDlbA/u/XwmXO7ZjgK8fPP/+JcbEhWL/pTzh6BmLZnBhsOtSE5x66EqkHd+DA8VNos/bFomnR2PLnZihU1ph1/d/g1ZKF3YdToFDYYvLlS+DY2YwxXq34JscDYxyKsPNIOorP1uCpV57Ejm++QF19Pbyn3YZp3nWwcg/C4W2b0WFjh/HTL8fcybEXgSzwInALdFtg0ABCq6wDr6V8fgEgiDXwYiJr6fvmFiVDPV6pXgFDUCEGH1LuGwMGxkKgMR4BljjmhAExL4DYfUNlMdSw6UvXZEAYYq1pSU46SlqVmDguHrbS5zQOMWvxxx3MFhg0gEBGfi35C7TK20UhwdKiLzV9c0MCi+AaCwtiHgOx+6aAgxRvgZQ6YAEAljDmhAQWkWcBBZZ0dDVQmmlzQJDWhMs6OyBTAk5OjgwrK6SlzUNzC1xMFhhUgPBZxi8oaule6ihFTHQ1olIERiy+seJibDxD5WEBAzGRZx0yEEuHBWSk1KOUOpMSVtf7JPUzY+CBVdwtCQpUBj8/f9MmKV5MLRovC7cAt4DZLDCoAOEXWupYnakTEMREXIoQSU1LX0MvJlKs8VjCGRoukDqUICb8Yvf12ZolnpR6ErOv1PssdjYEDsZCAgsoWBISfP38kJAwzmyNCk+IW4Bb4NKwwKAChKMVZ/BH0QGjJylKFQyp4Y0BC1NFyRziLzUNFs8ACwwYsi9LfGPsLVanptaHmNiLCb2p97WbJbH0KDwHhEujMedPwS1gbgsMKkDIri/E1zlb+m2pozECJNYDNlWAxIYljB1iYIlnLBiYGwTERN7U+6bWkbFeBrF4ml9+FuFnDc8BwdzNKk+PW+DSsMCgAoSmrla8mfIl6LQIVtExRuRNFRix+KwCpE8EDEECi9BLHY7QLC9Lz95QGcTqgyV9MQiTan9j7MwivoZEXEzgxe5LgQmxsnJAuDQac/4U3ALmtsCgAgSZUo7VqV+jRXbhSgYxUTAnUIiJHMt9c0OCVNFnAQl9QmwoLxYvA2sYKSBgSv2z1oUhUZYCGazibilI0M7fXIDQ1NSI/Px8c7dRvenJ5XIEBgYhLCzMYnnwhLkFuAXOW2BQAYJcKRc2Syprre59An09TjGR7g9BEctDijAZ8hpoN/j9CQvGehdYIcGcYGdMfUgVfqnh9b0D2o2UJWGBVjEkjDV9kmJeXi7yn12F0QUFFmlj/7S3R9DKp3D1NddYJP3BmGhVVRUaG+ovyqK7e3ggICDwoiwbLxSbBQYVIChUCmzK24H0ur4NECskiAmEue+LQYqUHimr8FA41h4+61CArnBiYMBSJyxhpHgRWOwtVscsaYh5AFjrSvMragkAYE3TnIDQfu89mJGUxNb6SAz1kYcHHN99D9ddd73EmJdu8CNHDmPB/HkX5QMePHQY48dPuCjLxgvFZoFBBQhKlRI7zx3DvrLki3Ylg5SevphAsIiZPgE1pxdBDAak3Le054DFZmJhWOrQEpBgbm8Ca3oWAQS/IGD1+0BJOjA8BnjxQaBSCTjaAFVVgJMr0N4OuDsBbQrA2x2orwMU1oCfN9DSBKhsAAd7oLURaO+CpQCh8sx2fLUnH+Gh4bhs4XzYy1vQpbKDp6cHulob0Ngmg4eDAntSSrFk7gQ0N9ahS2kDl9Y8vPbJZriHDMOtN1wDTwclmjsU8PTygr2tDRTyLhza8RvyWpxw+9Xz0djcDqVKBU9PTyRt/RHD598AF3kjWtrlsLUFigpLEBM9Ag1NLXD18Ebm7l/ROWoWZkeH6G3NDx8+iMWXX87W2vdzqL1792H8hImASonywlwkpZ5CU7sCI+MSER0RCFgDcrkKVkoZZEob+Ph4QdbVAXsHJzQ31MPNwx1NDfWQww6+Pp58U6p+rj+h/WhsaqE5f8Llvr8RUA5AKRizVEGFIxVnsLnwgBDDWPezVIEwNbxYWQ015GJ56xIq7R6/sbAgRfj1eQMs8bkhyDDW1qxQwBpOTJzFevdi98UAxdBXSjttywBCILDyGWDPZmDhCmD3+4BtOBAYCqT+DPhPAQ4eAG6fCeQ6AX4y4EwS4JcIuCkAVTvgGg2oCoAde4GyOosBQsG297BbPhW2efsRNC4elSXNcHO2R1x8JPZsO4TImGiMCHbF9mMV+MuiEdi8Lw2e/sGYGu2Hw6fz0NapwKS44dh5IBl+vp4ICI/CxLExsLECknbvQoOLK+ZFOeP1dYcQ7u+ImBmLUPTHWkRcsQJVOamAtS18wmJRU5yDUeE+yC+vRXNjG1xVnXBKmD3oAaGroRRrN2zG7EVXIsTTFg0tncg/vBVlrhEY7uMBO2U7ygpz4T56Lpw7yhGZMA0/fvw2Lrv5WqQfS4GTVyjmXTYD9ow6wYOZzwKDChDosTPqCrAhdxvIm2CKUIgJrxT4YBElljBSXNOGhMpYIDAUT5+tjQUAlnhS6teU+jQktuYAAkNiLwYCYvfNAQoWA4S/rwS2/gA0twKNbcDNK4DhsUDKpwDGAb/8DDx3NfBLOXDtbGD3j4DrJGCUO2DTCsijgF8fA042AAqlxQAh78938J/tdZg3ZQJ8mk6gdewjiOpIQZW1MzJ3b0OXmz/mTIvDrqPVuCqqGjnuS7B4Qggacg9h/c7TqKlvwbyRTkh2mI87J9jgRG4lFi5cBFcHayTt2Y0mFzfMCe/ESxvKcXUCUOQ8Do2b34Hj/NvgpezArOkTUVZZi5PHDsHbXoXsimZUFOchJjoRYdPnDXpAaClNwxe7cnDv8qux5et3UGYVBKeydETcuhKjVRXYtXsXKvOS0RZ5HSb6tSFh1lK8+9SDuPvZldixaSNanYbh8UfugBM/98J8ys+Y0qADhPzGEnyXuw1t8o7eR9QnNmKiLEVUxMKK5aWvIWdJV19vVJ94sQq9tqdBDALERF3sviHBZ4krBRhY6oNV/E0JxyLgYhAgdl/zuy4lrDoeAcLYcYmMTYb+YDRJsXcOgp8/sHw58NG7QBeAhDnAzEjAKQ5o2wHYTAIay4HZvsAxJVCcBiQEAYtWAKueBa6cCdiMBr69B8hSCJlaaojh7I4PcNR+IZbPiULp8Y1Yd9IBCX6d8Ar0RaeVF9yt21BWdBqZ1b64c7YzNhxrwcyJscjd8ikc596ByrSjmDTSH5/tLMfti6NR1WqDK5dcBntrFU7s2oE6RzcsHKnE6j9acE28DJmIQeOf/4PfZctRXXIWk+NGoKrLDZUZu5BXboUbr5mPzT+uh29QHMKmz8WsUcF6jT4ohhgUrfj0nXfhGT8XMd5KnMgshOJcHsY/+C8g+wDyisrg1ZKNY1aTMdqhAs5e/vjw/a/x3hdvoLWiBTu+/RxLn3sDI51MfkV5AhItMOgAobSlChvzdqC2o0EnIJhTRMTEW+w+i0ixhmGFBEOib07PgmZ5WMTdEmFYbCdWRyzir090WeJKEW8xcRe7LyUvzbAWAQQHRyAiHMjL6R62dHEHJk0DZG1AfSHQ7gyEBwBtNUBRCzApHjh1HHAIB6IDgJoSoMMZKDwGNHWPgloKEFoqclFnHYhwfzcAKmQmHUSDyh3j4kYiK/kYarrsMH5cLKqqWzFqeCB2//gpTtZ74YEb5iE59TScfIIRN3IEmsuzkVPZgXHjx8PL1RFKuQyZp4+jpNkOl00chtxKBUI8VGiCO2TlufCJGoPy3NM4W9mKhMREyFsbYNvVhOTcCgwLD4Srkyucff3h56ZfGQcFIABQdrUh5cRRVLXIMTo+EbYtNXAZFgNXeRNOpabC1tEZTr7D4IUGZBXXwtneGiOjh+HMySQ4B0VjYuxwidLGg5vDAoMOEGraG/B93g6ca6lknqgoVSSkhBcLyyJirOLPGk4bEowFAzEIMFb0WeJJAT2xOpB6n9XO+sIZ+tyUe8YCgFie5gKEnJxspD5wP4alp5ujbbogja3Ozhjz1uoBXcWgUipwLj8LMkdvDA8NgvUAu70zMtLh7uZqEXubmmhzSytiYmJNTYbHH0ALDDpAaJG14ce8XchuKDI4SVGKwLCIuD5RY4lrbBhjhcqcQCAm5ro8FvpsL5aWmJ0MCb1UCBALL8X2UsOKCTbLfXWbIcWroC9dcwHCuXPnsPXnn6Ck1QkWuLqsrDB38RLEJyRYIPXBmSRtHqVUdg/BXGyXtbUNbGl5Br8GrQUGHSDQboo/5+9Gak2OYHRLiYaYgEi9L1ZWQw0+qyvbkABLhQbN8uqCAEPp6QMEUz83FF/Mviw2ZAljSLylDEWwCjwrALCG02yp1HHMBQiDthXkBecW4BbQaYFBBwj0FFsKD+JQxSmoVN1jk+aCBKmiLzW8WFktBQmGBN7Ye7oAQioAsHplLFW/5q4PY+DBUBxdYi7WjhkDCn7+/hg3brxY0vw+twC3wBCzwKAEhH2lydhVcgxyDdcaq9iY0gtlERQxaNAnCMbGM1QmY8Wf1TsgZciAJSwrYPR3HeoDN0NibIw3gQUWpAIAS3gOCEOs1eePyy3AaIFBCQina3LxU/5udCllfR6TQ0K3OaQKvDmGH1jEnQUSWL0FYkBl6n1WkLOE14BF1FnCaLcB+uJwQGBsLXkwboEhZoFBCQhFTWX4KmuzsBcCq6D0d69TTKBYBUhXo87ymVTRZ/E2aJaZFUJYwIE1jDnrkMWGrHVkCUhg8Sbo82yItWHaz84BQcxi/D63wNC0wKAEhLqORnyU9iOau1r19pj1NZ7Gehl0NdhiECB2n1WApLirLQ0G5oQEVrhjDTewO8C9AAAgAElEQVSQdSQm1sYMR2g2SaweA9Zwmmn7+wdgXCKfgzA0JYA/NbeAfgsMSkBQqJR4K/krNHQ29z6ZscIvJuKWvj8YIcFU7wFrXbEMSVgCCkzxLoj1/PsLFMTKwQGBywK3ALeAmAUGJSDQQ32R8ZuwF4K+XtZA9jqlQgUrJBgTjmXogFXwWcNpl1NfGayVStjK5ZDb2UFlbS0Ke6xgIRUaTAECYwRfrJdv6n3tL71YetyDINZM8vvcAkPTAoMWEH7O241jlWmDdg6CJURJrMdtzuEHXUMN+sBIV752cjkiCwvhWV+PMj8/lIwYoRMQ9MGGVAgQC89aH1IgTawXbwxcSBV/lvAcEIZm48+fmltAzAKDFhAOl5/CbwX7hOcztmcptadv7vBSxEYsb3VFi4m0dm+e1SvAGk4XOOiqo8CqKrg3N6PB0xNOBAkjRkChsesaa52K2cXU+5plJ4+HjUwGuYMDvXQ6v1v6RN8UGBDzAOire7Evv/o+AULi+AmswXk4bgFugSFigUELCNn1Rfg841edvU4poiAlrFgv1Jj7rJAgRXiM9RToEndDXgmXjg44dXaiwc0NSg1xt1UoYC+X98Kb0soKXfb2QM8wgmtbG5w6OqCysgLJrENnp/C7zcUFnQ4O8GxsRLObG1pdz+8x79HUBM+GBlQEBUFmZ4egigo49WzpS+m0OzujztdXuEdldmprQ0hxMbocHXFu+PmDXiiv4Tk5Ql7nIiPh3tCAyKwsVISGoiIs7ALgpA/sOzsRmZEB/7IyQKUShkTOjh6NqvBwKG1sLmgqpNSVFHFnBQV975S+No0DwhBp7fljcgtItMCgBYS6jia8kfRFn8e9WHqdUqHD0pDg29aGCYWFyAoMxDlfX0FArVUqzE9Ph6NayHssmRQZCY/WVkSXlkJhbQ0bpRIk8NkhISgODobCxgb2Mhlii4oQVlUFpbU1lCoVssPDcS40VEglNj8fkaWl6LKzE/6nnne9uztSYmMhc3DAuIwMhJaXo93RsU9PPC84GHIXF8RnZKDNyQlHp0zp9SpEFhQgpLQUyePHCzAw6fhxuDY3C+kJIt7VJUDFmXHj0OHkBO+6OiSkpKDE2xv548f3epmcW1sx7tgxVHt7Iy8xEX4VFUg4cUJIt6Gn/L31oVLBrbERscnJguegwcMDVra2AlQ4tLXh7KhRKBk9us/8Cc0XcrCAAgcEia0mD84tMEQsMGgBgepn1aE1UApnyZ6/LnVIYIUJzXBx5eWILSlBrZsbDowe3S38KhWWpqSg3MtL+FwID6DS0xPDqqsRWVGBnOBgQeQ9W1oQXFuLk6NGodrLC3FFRQipqkJ+aChaXFwQWFuLkJoanIiJQaObG8bk58Ojrg45o0YJXgLyGEQXFqLUwwNZY8YgMT0d7vX1SNIQbsqfvAf+NTWIy86GlUqF9NGjBeigOo3OzoZvbS1SExOFcDMOHUKdpycKIyMFyPCtrsaI/Hw0uLoidepU+FdWIu70aRSGh6Nw9Oju56OyNDdjwuHDKIqIQFFMDILOnUNcSgqOzpyJVh+fPu+SY0cHRqemCpBwZtIkNPbcpzTGHjkieEXSJ01Cu6vrBXNh1AkZO7TA4i1gCcMCLBwQLp3WXq4EyloUkCnp+9x3GMwKKoS6WcPOZoCPoLx0zH3JP8mgBoS3k9ejoq120ExU1CXuYt4GfULD2ju1VakwvaAAMoUCQR0d2BsdjUZnZwEQrkpNxemwMBT5+/cKKP0Rd+4cwmprcSA2VujlO3R1Yf6pU8gkUQ0IwBXHjuGsnx9yRowQes+u7e2YlJmJSldX5I4cibG5uUKPOyk+XrhPYj8jORl2zc04MHs2xmdkwLGtDQenTr2g7oaXlCAmJwfNtrbocnPD6TFjBCAgr4JrSwtOjR0Lmb095uzbh+LwcBRERgp52CgUGJuSAp/qahyeMwceDQ2ITUtD5pgxKNfwDLg3NWHKgQNIGzsWlWFhiMjPR0RGBo7Nn49OLaH3qqnB2GPHUBQVhcLo6D6NAXkVvMvLcXraNDRrgAVrvbAINwtkSElHX2sWEBA4oHMQmutKkH22DgmJCbA/v5jFrI0vndrS0qlAY4ecRoku2auxywo2tnZwdrhw6EuuUKKxtRN+Tpfs45v0YLbWVvBztQP95le3BQY1IHyd+QfSavP7iJuuRtWQCIsJtKn3taFAl4BY8jPP9nbMKCjA/qgozMzLQ46fHwoDAwW3/9JTp5AWGoqinmEHajdJbONKSgRAOBQTgzYHBzjKZFhw8iSSo6KESYWLkpKEv0v8/QWBp6WK43NyhOGIk7GxGNvzd1JsrJAezUmYmZwsVM2RxEQBEDpaW5E2bVpv3ZGngYYrogoKMKqgAMkJCRiXno7U+HhU+vtjUlISFEol0hMSoLCzw2W7dyNrxAgUR0bCqmduQ0x6OiKKinBo1iz41NYiKjsbJ8eMQWPP3ALKzKu2FpOOHEHK5Mmo9fdHdHo6fM6dQ9Lcueh0du7zLgUXFWFUSgpOzp2LVi+vPm0GeRb8egChSeueJSBBF1zqa8Skehb8AwIwfvxE49tEWQ3WvPUJVF7+mLdwMeIiQ6FSyKFUWcHaWoWPX3oUzd4TcOfdd8LLQQkbG1tApRTq09rGBvvW/xdnVMNw1YJ5iAh0B1QQ6tSahq+EdICK3BTUusQgPsQJCpUKNjY2sO6dKKoCiZ+tjvkg6ociOEgqaUVxfQc6qZt9iV629o64aoyPTo+WTKFCY6cSE0O733N+9bVAe5cCRdXNCHS1hQ2HhMEPCFsLD2FPycneWjYWBEyFAFPj62v8xdLVBUPan4XV1yOqpAQHY2MxrrQU1nI5kmjSno0Nlpw5I0wm7LKxEZyRFS4uSBs2DKOqqhBdVoYad3fIra3h09yMOicnJI8cCXsAC1JTkRQVhdIez4O9QoFEDUAYl50NGusvDQ4WiuPd1ASfmhphyKDWy0sABJ/6enTSxMWei+YKZI8Zg1H5+Rh19iy2TZ+OsXl5AsgkjxuHicnJkNvYIG3MGKGsC3bvFv4u0ZhYGH/qlDBPYd+8ecLvyNxc7J8+HR2enr0NZmBpKWJTUpA8fTqavL0Rn5QkTGikYYmunvkM6voYlZaGgHPnkEzDD+phmB5RGnfkCOxaW5E+eTLaPTx0trUDDQqsUGEyILTlYMVjP+D/7p+JA+nluOqyqUg+mYJ2hS2ihrniuRc/wQOPPABvJxlKKuvgHhANf5ThVEE9EidPQkluOlo6lBg3ZQp2/vAlQiOGw85nOKaMDsTeA8dg4+IFb0UlOiKXIqgpCWfyShEcNw2zxkZ22721Apv2FeCmK6br1bzsqnacPNeCdpniktZFW3snLI3vO1SmfmAOCOJVX9fSifb2Trg7XuiBEY996YUY1B6EExXp+CFvZ59aYZ2DoN14iomx1Pu6GmdzpGGo0ddOnyYixpeXw7ulBVnBwfBtbUVIbS0OR0Whw8EBi9LTUeXujqoegWu3sRHG8GPLyxFZVoYCPz+o7O0R2NAAWpOQOnIkHORyzEhLw/GRI1EVGCjYniYtTsjJgVypxKm4OEzMzBSgoM3RUfAKtDs4oMLLC+VBQXDs6hIAoQvAWdr7oEdwaRih1cUFsTk5CC8sxLbLL0dQZSVis7JwOj4eo3Jz0eTkhMzYWDh3dWH64cM4M2YMKkJCuklXpcL45GT4V1Vh24IFiC4owLCzZ7F9wQKoaDJkzxyE4bm5CCsoQMqUKWj19ETisWNC3NMTJghDF5o2pMmLzi0tOD1lCtpdXPqA6NRdu9BhZ4fMCRPQ6eKidw6CmEiL9fbF7oulr6vJ0k7THICw7MZXcMXlCfCNmoyI9uPYkOmGMf5WiJoQje/WbcfTj9+KH37chKBhI5BXrsT04Vbo8EnEKEUKVm+twuThLogYPxPr//synvvXczicmgvf9hwUB16LG6YEIGfPtyiOWA7/ki3ILSpCoXU0/v3Q9d2PJ2tHfkUTIsMC9LbQWVVtAiB00OD8JXzZ2Dvi8hhvnU8oV6rQKgMmh3EPgr5XgANCX8sMakAoairH+6c2Gj0H4WKEBH0NvhhcqKtVM5ydQoHZBQUIam4WPAEkhFYKBXZGRaHey0sAhJygIJztGWJQ501DDMHV1cJ8BYWzM1y7ujDn1CmkRkaixtMTV9Cs/+HDcS44WLC9c0cHJmVno87NDdkREcJ8hA57e2T2zFEgSKDVDwQDFHZCejrq3dyQHh3ddw8LlQpjsrMFMNgxd67g3Rh/+rSwDJI2VqKhhszoaMH7MC4lRQAHghQqA4VJTE4WvAvHp0xBTGYmwoqLse2KK/qslKB5CZ61tTg9caKwGmLavn1o8vREVkIC5D1LNdU2JEBwoXkPWoBA0DBt926UBAcjd+xYAaJ02V/zq2ZI6MUgQOw+az76GsWAwEDThhjacnDbo99j1f2zceB0CaaHtmLdcSusWJwIzyBHvPPaRjz/zxX4/rfNmDBtDhoa2+DcVQa7iJmIsTqFZ75Mx13XzYSbfwjeeOlFfLT6X/h5dxLCbErwR2k47loSh+IjP6M6+lZkbXoT06YlYN85J7z88I3dj9RWg83Hi3DlXP17OTR1yHGypA0lDR3ouoSHGKztHLEgWj8gdMhVmBpxHnYvYVaS/GgdMgWKq1vg52LD5yH0WG9QA0JtewPeSfkWnYous0GCqdCgS+ANeTVYgUBKOHVYEvaF2dlICwpCvZMT7FQqxFZUoJp64mFhuDw9Hfn+/ij2OT9mSW78mLIyARB2jx4NpbMzaAjhsuRkpEVEoCQwEIuTkgRPw6nhwwXhD6upQWxBAQ6NGyd4DQgQGuztkRUd3b3XgcamQm605DIjA5VubsiPihJeQ/V9mgMxJicHfjU12DVnjnCPlkOOzcgQhhrywsORHR2N4IoKxGRl4UxcHOr8/IQJisNp2WVxMdLHjEFlQICw6mH42bM4PH06Wno8JHYyGSYdPSrsgZBBQGBnhzk7dgh7K+TFxnZDjPqyscHw7GyEFxTg9KRJaKCJiD3zLWJSUuBdW4tsmh+hMb+BRagvRlAIoDkIEyZJblB7I8gbsPNQIS6bk4Cs06lwCR6JxtwjSC/twIzZk1GQVYzZsybhXO4ZHDx5BiPGzUK4qwzWbsEI8HJGbso+JOfWYOqcOchPP4O5MyejoKQKwSEhyD66E0Ut9ogN94J14Bgozh1HTkkdvMLjMHPcyF5A+PPEOSyZk6j3Gejdau6Qo75dAdUlPEsxrwEYHeCstX6h2ywypQplDR0IdrmEZ2ka/xYLqzsC3Ow5HGjYcFADQmNnCz498xOq2uv6CI36+Yydk2BpSBCDCH3llwoJUbW1CK+rw9FhwwQ3P/WuYyorEV5Tg51xcViSni5k1a7RA6ZJi4GNjQiqqcGe6GgoXVyE3vvC1FRhmKIwJAQhdXUYU1iIFltbKBwc4NvUhBxfXxQMGwZbANN6hi6EVQ49cKCuC/fWVkzMyBDybdJy26cPH47Ys2fh2NgoLDukiyY4TktKgkdjI7IjI5E/ciSGFRUhOjcXNb6+6HB0BC1HpI2UaEkk3aeLlj3GZWQIE9rKQ0KECW00D4I8DdmxsagOCBD2Tpi7YwdqPT3RSMMpGiBTNHKksCQyNjVVSK+cQMDKCp51daDVDbT5UuGoUcJGSVLnGoh5BMTu63sP9LWNYumZDAgmNMo8qnktkFsnh8LKFp6O9F72TbuxQwmFXIYYX/qW8otbQNwCgxoQWmRtWJ+5BQWNJb1PKuaKN3aOAouoS8lbitiLpasPKNw6O2GrVKLRyam3J0/j924dHaj28IB/czPslN1jsuo86lxdQUMTtLSR/lbZ2ID61UH19Wizt0cjLQWk1QCtrfBvaBDi0dyAak9PoUdOKxloTwTyJNRRz12jlaKwNF+B4IPmIvRkDOrZ03yJvIgI+NfWwlqhQFF4eG+ZfOrqhP0Rqvz8UOftDb/aWtBWzbR6gi6au9Do4YF6b+/ejZVoOMW7vh7BpaVwa+4+9ZNWYNCSxyZ3d2F1BU2kpCEH7YvKmTppkmAz75oaYUdGGpYgGGj08kJNQACqadMojd0jxURbKkToq1NjIUDXM6o/44Ag3lAOlhCdchWKm5RolaloMUify9XeCiGu1nC248v4Bkt9DnQ5BzUg0NDCb/n7cLyi76FNYoJ6KUCCIUFi8Zyow+j7rZm+LnsJTYyWd0CfXXXG1wQHzbQ0/u5TBh2fEwTQpT2M0Se/ng2g1OG07UbPcUFzSWXTLB/N3dD4X9PToEv4jYEBsV6+2H2pQKHZ8NA+CBMmmjDEMNCtGM//AgvoGkTgWMBfFKkWGNSAIFfKsbXwMPaVJAnPzSKMuhpSKUAhlo8x91ni6AMCVjGSAgKGBF0MAsTui4GHmC1Y4c7cdapPgFntr/nFNCT2YiAgdp81Hw4IUptKHp5bYOhZYFADAlHyodIUwYugdqgZCwkX9Cy1BvBMFRyx9KUAAGuvVV+ZtWFBl2hbEhKkQIQY0JlaL4aAQ1+diEGMdjNiLBCwwABLGDFo4B6Eodfw8yfmFmCxwKAGBHrA5MpM/Ji7C11KWe/zXiyQwCIkYgJnjp6rVLE3FSAMwZChtMXsNZDeA2OhTF/9iYm2lPsseehqDNTPxAGBpankYbgFhp4FBj0gZNaexaac7Wjuau27pt6AB0BMlE0BDCkiZ6hhZxEkKe5tfZBgCB50eRaM+UwfMJjTkyDmoZFSp6Z6c6R4HqSAAKu3gDWcOm8ChImTJput9euen2K25HhC3ALcAgNkgUEPCEVNZdiQtRU17Q2CCQeql2kKdJgqSCwwoUvYWTwFhuKZQ/gvFkgwpQ6MGUIwJo4UmJDiVTA3IDg62MOa72U/QE26adnSvF/t5ZGmpchjD2YLDHpAoM2Svs7cjJLmyt56YIUEKUChS0AGCgqM9Rywij0LOIgJu9h9MU+EmL2leASkhBXLV0ykpdQNi4izegNYw+nK09yA4OriJBy0xC9ALpdjx44dyMjIgJ2dHS6//HJEa5wMmpWVhYqKCkybNg1btmxBQ0MDEhISMGGC/l0h9dm1uLgYlN6iRYuMMn1nZyfOnDmDWNrOvOfgMs2EDhw4gFGjRoGWxbJca9euxd13360zaFdXF/75z39i1apV8O8504UlTXWYjo4ObNu2Dfb29liyZInOqDt37hRsqZl+eno6KO/ERP2bakkpx6UedtADQoe8E5+n/Yp8jb0QxBp5KYJhbghg6e2zhNHX49X3OYvomwMgxNLQB2VSgEKfsLKCoViditlQDBKkxGeBBHOH0W7UAgNpiGGK2do6DgjnTXn06FGkpaXhhhtuQElJiSDgvr6+qK6uxujRo0H3aWfH+fPnC2J57bXXIiYmBj4+Pti9e7cg9i4uLvj1118FUYuLixP+dnBwwLx58+Do6AgSy127dqGyshKtra248sorsXfvXkE4nZycsHXrVoSHh2P69O7DrEggv//+e3h4eAjpU9zS0lJMnjwZ7733Hh5//HE0NjYKZaW0vLy88MMPPyAnJwcrVqxATU0NCgsLBdhpbm7Gn3/+iblz5/aCD6V18OBB/PLLL/jqq6+wf/9+tLe3C+WhUzjpImgi4IiMjMRf//pX5OfngwR98eLFgm3Ky8tB72VtbS0IXCgu2aqgoABz5syBn5+fYAf6Lt98883Ys2ePAFpTp05FSEiIAA+U78MPPyzYnQDsyJEjArC1tbUhODgYx44dw0033STYml+6LTDoAYEe64u033CmJld4QnOJBGs6YjDCcp9VUKT0Tg1Bhq5n0wYIQ2F0QYCUzywFCaaAH2s9mRKOVejFvAFi91nzUYejsxgmcUCwiEaQSJIQz549WwAF6pm/8847WLp0qdD7LSoqAvVqSfxbWlrg6ekJmUyGvLw8zJw5U7h/+vRpLFu2TBC95cuX45tvvhEgYuHChYLwkxCSeNfV1Qni5+bmJoj9K6+8gqeffhrHjx8XPn/++eeF9pHypzIRTFAcV1dXQVTpHv1Pwv/RRx8JaRMckJBfc801AnTEx8cjKSlJKBvFJ4i56qqroFQqhd/0TG+99ZYQ7u2338ZLL70kxCeQofSuvvpqKBQK/P3vf8c999yDTZs24d577xX+J/ig5yCYCAsLg7e3N6qqqgSAImEn+1x22WVYvXo17rjjDhw+fFj4jPIluKDf69atE2xFsEAA8MwzzwifEXz95z//EeITKLi7uwvP8Omnn+Ldd98VvDv8utAClwQg/Ja/F/vOde+FYClIYBEGKQLFkh4rOBgTTgoQiPXujYGJgYAEFpub4r2RAnAsIi4GAmL3Nb/uhsJyQLCcNJCok4hRT/yLL74Qese5ubn4/PPPkZycLLj0MzMzERUVJcAD9fhJIAkaSFypF09C//XXXwu/b731Vvz222+CyF5//fUYPny40HsmASXPBHkGQkNDBdG988478dBDDwmCTsL/2GOPCQDy7LPPCsMIFIdEnvKkv0ncSYxpeGP79u2C6JNI//TTT/j5558FMCkrKxPEn7wfJLTkvaBwJLgEPeTtICF+8skn8eijjwrPTZ9R2chTsXLlSgF+PvzwQ0yaNEl4dnoGghzyHtAQy9mzZ/HAAw8INiBPSUREhAAb48ePFyCAoIcAiGxJz0NDCORxIOCgPMmLQGkfOnQIV1xxBT777DOhPG+88YbgMVF7PMgrQcMcL7zwggBV/LpEAeFASTJ+zdvbuxeCFEgwJawxgmNp9zaLSOmDAxbPgpinQMp9UyBBSr0ZY3NTQEEKsLGAgr70tL/OUoBBM25gUBD3IFhIHUiYv/32W8E1TqI+ZcoUQbjWrFkjCBWJZlNTk+ARIKFTAwL1+CnOODoAra1NAAXq9ZM7nnrQJMoPPvig4Nan+Q0bN25EfX294AmgcDQfgS5yoVMvndz+77//vuAtIPEnFz8BCYnpqVOnBIAgaCB3PKVJQwrUiyfYIFc/wQylf/vttwugQOBAwwrqORRUdppvQOlv2LBBAB+KQyBA+dKzE7TQEAnZg7wJEydOFIYizp071ztHg+Y4UO+f8qGhjO+++06AGBp6oXKTd4WAg/6n4QtKl4YR/vjjDyH9Rx55RIAEAioatiBbURoEMuSNoOEIAhS1t4XKTXbkc2Z0fwEuCQ9CWk2eMA+B6Jd1aEBMNFjTMQcksAqKuUTLWBBg9RSIQQKLp0XMa6FLWKXUKUu9GRtGTPQNCTmLyLOEYYUKChcYGIRJk/kcBAsxAk/WDBaguQ7kySCPBHkj+NU/FrgkAKGytRZvnvgCyp69+VnF3RRBMSUuKxCwCpQx6VkCEvTZRAwsDHkDtL0dYmDQH/XC4qURgwQxAWeBAJYwLOXggNA/jS3PxXgLkOeAvBs0uZCGHfjVPxa4JAChQ96F/zu4BkpV98mEhgRHTHTNKTAsPX5jw0iBAn32sAQkGJOXWJ2xeBPMWW9SbNsfsCAGEywQoK85ofJzQOifxpbnwi0w2CxwSQACGf2NY1+gvLWaDzHoOLRK86XU7pFri69Yb19Xj97QZ5riJpa2IbBjgQRTwJAVCiwNBGJeAbH7uuparFEiQJg8ZapYMOb7msscaaz3999/F2bp05p0fnELcAsMHgtcMoDwceoPyKo7K8l7IKXXKSWsmJdCX49PLA9DPUkWT4R2vvpgQapnQRcEWHK4QQoIiNmUxW4sYaTWjZhXgAUEWMKI5UP3zQ0Idra2wm58DY2N+OzTTzF12jREhIcLk97oeuqpfwqzzwfy0p6vNBBl4WWAMG+M5R21ZP0MdD1cLDag1TavvPJqH1NfMoCwteAQthUe7n04fT1OKeJiSlhjIcGc8fSBiCFBZ/EQiPXmdaWhK099nxmyuyXqlcXmrJBgblBgaTxZQUFfWuYGBPV7R+v39+3bi6CgYBQXF+Hxx/8uzBYPDgrAl19+ack2XzRtWk43kJBCqxBodv5ALq+jpY20CRGtChioi/IngaR9EgbqolUitA/CQO2FcLHY4OWXX8bJpJRLExDoVMev0n7v9yEGFuEQ68WyCJS+xp0lf80aFxtiYBVyVkjQJ/Zi8VkhQQrEXSz1ICbohu6LxdVV12INLwm4OYcY1PnRMr09e3Zj8eIl+PijD/GvF18SACE8LERY2jaQFy15M2aLX3OVmQCBIIWWCw7URRP/aM8F2sNgoC7KnwBB19bO/VUmWiFBe0AM1OTHi8UGtBnWzl17Lk1AKG2uxJvHv+wDCGLCa0gwxMTE1PtiZZPaE5UCCv0NCVKGG8wBBqbWjVh8KbAmtR7V304WEGAJw5Ie7YMwZco0s7fH1PCfSk3FwUMHccMNNwrr6enigABhHwMOCBAAZaABgeqCvktSvk/m/LJQ/nQN5F4MBEmXNCB0yrvwzP53haWO5hJ+MaGQet9YKGAVf30vOIs9dA0LsHwm5gnQlYaYl8IckCDFs8BSL1KggLUeWHv7Yg2X2H3txkw7vKUAQV8jygGBA4L63bA0IJCXxNBFwwoDDQgESPTDAcGc2KUjrRcPfYT6jqbeO/rEy9zicbGBAquYXSyeBKnAIKX+pNaNWHhW24r13A2Jupjgi9035LXQ9RWkIYYpU83vQeCAoL/B4x6EbttYGhDosKft292Rmtp9SJT6io1VYPHiZvj7ewk7PtJOk7RrJG3nrH3RwVS03bP6e0dbZdNhVvpOvaTtrmmXSNpCWuyiraZp4yc6MEoXINBukrSD5ciRI3V6OGjHTNp9k3a0pC2yjR2queQ9CFQRa5K+Q15D9xajuhposcafFSh0NcBiaZsrDks6UsSpvyHBkLgb8liIPbeY/U2pWylQINV7YAooSAEBQ/lwQBBrxs1/nwNC/wHCqlUh2LCh72FMy5bJ8Prr5QgK8hAOwVKfOUGAQJNH6cwH2lKaIIDOeaAdHOn/sWPHCls1k3DToVb0N51PQWdH0BwGWta7fv16YSg5PkYAACAASURBVH4LHXRF50qQF4PC0qFVNC+HDpqiEzVpi2yKQ3nTJlA0aZTOmKCtqu+66y5h1Q+dd0HbV9P23DRPgjaKIkChcy8o/r59+3DjjTcKE25pa2nKx5hrSADCtxlbcKzsjNnmIUgVJbHwxty3lDixDB9o5s0SnnW4gQUSdOUtBn0sQyn64EmXgLJ8JgUIjIUBc3sMtNPjgGBMk2paHA4IFw8g0FkNdNIm7dNBZzZQj57Oo/j444+FY6bpRE3q3dPpj3TMNB26RQJP50AsWLBAAArquZO4k/eAIIDSoXMl6PRIOjOCzrygMzLojIvrrrtOOF+DDtEiCKC0KQ6diUEHURFw0JHWdNH20nTAFB04RQdvEczQsdd0Rgcd703AQt4HOjabDtSisyaMuYYEIGw/ewSb8/dL9h5I6X0aI/JS02eFAlPFyVjR1wUCrL1/MYiQCg+GwluirljrRh+IiPX6xWBA7L5Y+roaj6DgYEydOt2YdsWoOHwOAp+DoH5x+mOIQcyDQIJLh1zREAMJMgk2HapFQwt0kBYNUxA8kLeAvAJ0iiSt/KBhBvVJkiTiJNS0KRj9TcdWU7p0WBYdJEWHVNHKGTqgiw6TOnnypDB0QKdiEmwQUNDplX/5y1+EcDREQdeWLVsE8Ni6davgKSCPAeVLHgMqB4EmDS3QEAjlQ/kZcw0JQDhRno6vLbTU0RJiIwYOUsRICizo651fjMMNrMBgaVBgqX9LQIEYEIjdN1Qm9T3yIEydxgHBmIbV2Djcg9Btuf4AhJQUZxQWWvepqtBQJcaPb4e/v7cAAeTqpx8aOqAhARJ78hyQENvY2AhgQCdEUo9/xIgRAkSQR4C8BzTBkFz/VKck3hSWBJ8AgDwO9JvyILGnsPfdd5/Q+7e1tRWGD+gzGpqg/wk4aKhBvTcF7SVCeZCHgO5RWrT6hfKgi8pLeRN4EGwQiBhzDQlAyK0vxofJGyFXKpj3Q7C0sIhBAIsb21LiZKoHwRRPghikaAsb6xwC1nCsNhWrP30QJwXuWEScBQRYwujKiwOCMU2qaXE4IPQPIKiXEOqrLRJ61lUMJPok4vQj9aLhCNoQifLT3hTK0CoGikc/NP/A0EVDFpSusSshhgQglDRX4tPUH3tXMphzTNqcwmNOKJDiOTCUr6mwoEvwpQwnsIQ1BHOWrB8WSJAKBIbEXEzoxe4bghZdjQwNMUybNkNqm2d0eD7EwIcY1C+PpT0IJP76IIHEVAogaL7w5GWguORdMPXiyxxNtSBjfDr2+fPTv6Kspao3hljjbilhEcvX2B6sFCFihQexoQV9z2IsVOgTeta6MBUmWGxvTP0Z8gSw1oXmqy4GAmL3WTwTFIYDAmMDY8Zg3IPQPx4Ecu3TXAIar9e8aOUALUOkIQRaKkgTA8lFr7n9Nrn9yaU/bNiwC0Bg+/btwsZfug4gI8GvqKhAUFDQBW8MDS3QFRAQ0HvPECBQeM2w6kg0zECXvu3C6bnVW3nTMIbYNSQ8CA0dzfgmfTOyas/220oGfWKnr3G+mLwHmmUXE3tTIEEqEJgKAJbyHEkFgIGAAlZo0KwTDghizaf573NA6B9AoAmG//3vf/Hbb7/1qURaXbBy5UpB5Pfs2SMMG9BSwocfflhYXRAfH4+3334b06ZN650XMGbMGGFyIc0H2L17twAY4eHhwlJGSofmAhw/flyIS/MXaB4BwQktPVRv4/zhhx8KExxp2SQtV6QJifPmzQPNNaDllLQqgsSdPCtRUVHC0kraA4HEnlZRUP4094Hyv/XWW4Uty2nOAj0n5Tdp0iShDDRJkuYj0JwImjQp1i4MCUBok3VgU+Y2JFVk9L4MrL1SU4TemN4mCyiwhNHVG9b3mdoo6tPL9HkOdNlMDCCkQIAYbBiqC9b6FKsT1nSkQIFUIDD0pRX7QovdF3sHNFvL4OAQTJvOhxjMjwH6U+SA0H+AsGrVKmFvAc1r2bJleP3114VePu1bQMJLMECCT9+t1NRUQZQXLlwoLEmkjYholQP16Gmsn8KR+NImS7RnAi0xpJUHtBqChJr2PKAliAQmtNxx+fLloNMSKS+auEheAQIL+ptggsKcOHFC2O6YwIHyob0QaKklCf3nn38u7LVA+yJcccUV2LFjhxCWfs+fPx8pKSkCZBA80BJNGgKhCZX0Oa2MEJubMCQAgbZZ/jVnN3YXHe/zMkgRA2PD6mqQxUTKXHFYRIxeWiJNenHUE18IFNTjc5oTddQvE/2mZxD7ofzVcdRhdXknxD4zBgyM9RaYo26kwplUgGAVeRZYMJQWB4T+RIPuvDggXDyAQL1xagtp4yESbhJo8gLQb/I00H1q32gvA5poSGBAwECQQMJK4k8CTsJM3gHq8ROQ0EoI8iwQAJDY00oDWnWgbodJ+CnMzp07Ba8EQcott9yCY8eOCd4E8nC8+OKLAjxQPjExMYLHgZZg0hJK8ijQ/g2Uzrvvvit4Iuh/uk+AQeWhvRWofBwQer7jO2gvhLz9klYyiImFFGgwl+ib23tAG2uoJ+QQINBLSl8K+k2Nlfq3GiBobS59rgkUFEYdThMa1ICg6zM1ZKgnBFEYzb/12dZcnxuCDlaBN3ddiAm/KZ4FQ7CoTwaDQ0IwffrMflNJPkmRA4L6ZbP0JEVyvX/77bfC/gGaF4noihUrBCAgNz2N5WdnZwu7GpKI02ZJ5OonkaX9DwgMCAio/SMIICGmONRGkoATMND/6rkH6jkC6mWPtCMjpa8eLiDvAS1bJG8EzYGgvGiTpZdeekkIR/+T94I8FNReUpkoDbIXeTLee+89PPjgg8LySErn4MGDwpJJAg71PAeaO0HPTdDBAaGn9o+WnsIPWTvRIe8UPpEi7saGHWgoYOmZ0hdC7Lxz9WQZXb/VvR71PQIHWvZDIKEmYnp56QtDn2t6K7TtQ+Fo9i+5wEz1GrDWmRQINAUcWONqNlYs9adPvVm8B2JhyIMwfQYHhH4jJO5B6DW1pQGBhglIrEngNS9aNkiCTqLKuszRUu8HQcTevXsF8CAvAMtFQyA0PEFDGvouAh96boISsWtIDDGQEdKq87A+7Q+0dLX12oRVRMSEXkxkxOIbc1+K4BgSGhZAEHuJjLlPXz6CCPqhsTyatENUTBN6aMMR9TVQHgOxOhW7r69+pNSboTTE7umyn6F60vWOcEAw5s02LQ4fYui2n6UBgaWWBhoQ+DJHlloyU5hzTRX4OPl7NHQ290nR2LFqY0RdTFTE7ksRF1b3N42fiXkQzFQFepOhLwJNpCF3GHkPaHtQzWdlgQRt25gah9XW5qwzMdE3dYhBzGOgWUEUlgOCpd/8C9PngNA/gEDeTEMXufg5IECY40CTHnfu2tNXNxubWlTqT9z3NwLK/v+ymDPH5q5WvH3sa9CeCFLFXUwELH3fWLFS288QLNB+3uqlNua0t5S06ItIS4hoGQ4tESIvgrrMuoSeFepYw0l9H1jCs9YZSx3psiWL2JsahuYgzJgxS0pVMoVtb2/Dhm83CMNN4RHhWLx4iRCPz0HgcxDUL5ClPQg0B8H7m29ge+BAn3dWMWkS6m6/HfaurqAjl2l8n9z26naJAv/yyy+CaGpfdPIidbZo/gKtKqD5XXTksvqijhClSfMBtPcwIGD54IMPcP/99/cezWzIg0BLL+msBe3dFykvikerFNRLLHV9KWnogg5+on0gaE8HmlNB8WieA6VJ8xToGjKAQA/7n4Of9tksSbsRN0XoxeJKzYtVYFg9BfrSo2NMWTbMYGr5jQxEgEAzdWk5j+YX0RAkGLKnsWAgVodi91nrTF84Yz43FEezOlhgQRtWLAUINNHqtddegb9/AJYvv7W3seSAwAGhPwEhZNUq2Gktc5QtW4by11+He2CgsIqAJhp+8sknwp4B6j0GaIni9OnThfs0N4DmM1DbRRsq0YRFEmfq8KxevRpffvml0L5SR4z+pvkNiYmJwlJGGl594oknhM4QHQZFcEGivnnzZmH/BVrBQGJNok3zEWjlBC2/pBUINFeLIIPyoQ4VwTYd60ynPtKQLZWHvMO0fwP9JlChPRBoSSSdUkmnRL7//vsC/JSWlgpxaUUb5UGbQ9HSTspjSAHCutSfcbI8/aLdLIlVYFiEijUtYwBB3tWBtqZalOck4dyZQ4iavgzhY6aLbrqhjx9o9QQNL9AMYCJZmimsq/yWAAap4MYKZOasI1ahZ4UA1nA00WnGzNlGYp/+aGo3Os20Xrd2LV559VUhcFhosNC4DuRFPUvq4Q3URb049al8A1UGEhvqwbu5uQ1UEYQJzWQLzR64uQpDz0V7DxAg2H/3XZ9kZUuXovT11+EZFCTsWUACSYJJ4UlASaBJVEl0CR5oGSOJ+u233y4sMSRhp0mA9B2jHjrdJ0AgiKAljdTGkaiTuNMKhHvvvVe4T8JOQECfU3533323sBkSvYuzZ8/GmjVrhGWKtJqCgIEmU1IeVC7yStAGSxSfVjKQ4BMMELzQckg6BIpghoZxFy9eLDwT5X3HHXcIx0yTp4OeldpdAgT6m+JSu0zfUXq2ffsP9rGT1aU2xEBP90v2bmwvONz7oMb2NA2Jl3YvjCWsJcPoKo/mZ1IBoepsGsqyjqOyIA11VSVo7rLGuMtuxsS5y2Bt5P7jmoBALj2ibJY5BKaEGUgw0CfQhoTbEve0G1ztPCwFCORBSErqPta2vq4Od99zr1AU7kHgHgT1O9kfQwyGPAheISGC+51OaiSBpB42CSt5Cfbv3y8MPZCQOzs7C3MVCGZoqJY2JCJxJtAk0aYNi+gz+iHwo+8Y/U3hyTtAngX6HpBXgDwLlA/9XH/99cJOjuRVoPRp+HXGjBnCUkU6sZFAhFaMUTq0nwKlQ99XWsFAeyIQiNB+CLSUc8mSJQJ4EzjQsATt40ArOGgjJZocrt7bgcpNmy2dOXNGgBKCkCHlQThScgpfnf7NoAdBrOfXX1ChT9iN7cHqghD6jF4YliGGutJ8ZB/6BY1leWhsrEdDqxwyR19MXXQ9YsdNhbOr8b0NAoRdu3b1bkSi7rmYAgD64poKBiz2ZwkjBm66ektiPX+x+/reAX09M+qNWMKDQA0bNb601Ip6SLSMiwNCdy3wSYrddugPQLAvKYFVXV2f11/l6Ymu0FD4+PkJPWgSdeq103AA/U3vKr2/avGkzgx5XEhICRZIuOm9pvAk5CTEtNcAeR/ob4pH4QiS6ftKYSg9uggGKC79T20yDRWQV4J+aDfGWbNmCZ4VAguKS3BAdqJ4BCeUNw0LUHwaDiGYobJTWlR2erfob4pDz0ZhCB6oTFQ28tYQWFB61HGkPIYUIBQ1luG1Q2uFyjCX0JsCFKwQwCo4xoQzBAglJXIknSyFq/wkWvN+E17O5i6g3dodCbOuwuzLr9anLZI+p5eVSJvImbYhpS+QlOEEQ6LPAhli74Mx9/WJMWsdGQIIFqE3ByyEhIRi5izzDzHoezm4B4EDQn95EFgaKL6KYYhNUmzsbMbTu97pfTfMBQnGCIgYWLCkaQ4RIjLV9iCoFDK0VBYj+WAhyhpd0CKzh1X9Dsi7zmJY/FTETZyJkLDhRg8paH85icC3bNkijN0RuapXVegSd2M8A8bEYbE/Sx2ao46MHV5gAQlDIMIBgUVGzBuGexD6x4Og3jVWV+1RL5x64xwQhhgg0Mvwj+1vok3edw0sq4CYQzRYRMWYMCxl0yUG1GMnN5fmJavJR+3BT4QxttM1/nCJfhX19UVwsCvF9TdNgavb+aU75mgeCRB+//13YXyNyqOegKNdXhZvACv0idmYNR1DAsvqLdAHAMaCgTm8B/RcIaGhmDVrjjmqmCkN7kHgHoT+8iCQy925LQvWbSV93k2lUyDanGPg4dm9tTK53MlNT8v+yHWvawIrDQXQj3pyNcEHDaHRfACCDc2L2jg624EmOOra7ZC8tOTup4mP2sscaV4DdZ60O3TUflK6NHRAq8BomILabhqq1XUkNNOXsSfQkBpioGd+/dBanG0olbSSQVt8pYoLi3ibI00pvVV1WDqqVP1iq1+czvI0NO5fg7K6FhxruxkjEh6BTNaO0tLjCAqyxty5gXB1tZPynhkMS188mk1L43IECOqNm8SAQOy+LvGWIvyWqhOpQGAsKOh7H7QrQ1/65EGYNZsDgtledIaEuAeh20j9MQchOP8l2BV936dW5CFXoDzqRbh4+GH79u2CiJNI0hHLdDYCrRqgSYU0AZDOM6BdXwkEyPtJcwRo7sGvv/4qTFKkw5AoDVolQPGpbmk1Aq0koLaOlifSckRa7UD7JhBkUFrkTb3hhhuE8xsoDK0kIAhQCz4BAC1TpCOgaTiW7tOERop/3XXXCQc6UXkoDK2GMOUacoCwIW0L9hWd7LWZJQVDqsCw9DhZwhgSBu34BAj0UmpeNMRAXgSVgw8KK0ejvNwdcrk1lEo5yspS4OHRhlmzfOHr62jKu9cblwBh06ZNQqNAJ5CRB0FM3FnggCWMJeCPBQh1PZ+hz0y9xwoLmuE4IJjl9ZaUCAeE/gOEkJxVsCvse9yzLHQZyke/Dg+fIGG1Ai1pJHGn3V1pKTZNSiQvAok01RWtcnjjjTeElQRz584V5lLRRQBAhznRckEScFoVQMMW69atEzZDouvVV1/t/fyzzz4TDlmiFQSUBy03/Oijj4SljRSfPAo0qZAOaqK2kkCAPAx0n5Ylqg+IIjAgiKH4BDAELXRok7HXkAOEXWePYlP6NqMPa2Jp/E2BDpb0WcPoEwXN8ukCBM2XSaGwQkmJB4qLPdDZaQuFogu1tfmwta3AxIleGDbMFdbWVsa+f0I8om5ajkOuOVo+pO1BYBF6qWFMBQMWUGMJMxCgwAoLNMQwe/Zck+pWSmQ+xMCHGNTvS394EAwBgptXgLDfAA0VUI+evAF03DJ5OMnFTyBAok0991WrVvUCAu03QN4DKj/16Ems6ThmEnbq+Hz44YfCskKCDNrNkDwUtFqINl+i3j5tGEfxyTtA+dGcLIIGWj1B5aENmmjDJVqhQGHoN60Aoy3qyZvx8ssvC+nR/gp//PEHEhIShM2bjL2GHCCcqczBmhPnqVGfsLCIsBQPgVhYlvxYw7CAgfqFoZdV24Og/TIRJNTXOyEz068HEmRoaalAU1Mmxo71REICrcu1NvYdFABh/fr1wnIg2iiJSFttL131wwpgrHUrVjem3jckyKZChCHA0KwQQ8MU+sJxQDD6lTY6IvcgdJuuPwAhsP432FQf7VNXCu9EVPlcAw9vf2FcnzY4onaJxvJpaIHc/DSvgP4mzyfNZSCRprkDNJeLwlMvnpYMkqhT75/i0DAupUN7EdCz0bJH+k4SRFAPn/YuoOEEAgryPlBalCbFo6ENypOGEwhOaOiB2kiCDEqH8qNNkGjfBfWOiJTmp59+KmzOZMpZO0MOECpbavH83jV9XgopAmBKWFaBl5KHmECICRALIJynelukpAShra17CKCzswmlpUTVrpg4kSbkGOdJIECgHcdofS9N3qGXX9NWUr0DxgCEdt1IrQMxOxuqJ33ibUjUjb1nCFa0VS00NAyz53APgtFqb0REDgj9AwgkzCTUui5qh0h4B8sqBmo/CQxogqL6bAYCDgINliOdDb2mQw4Q6NCm53evQaus3ehhBlPFg0VMxPKQ4iUwJEBigKBSKmFlfd470NZmh/x8b1RX0xfICu3t9aiuzkJYmAJTptCmN+fnD7C2jzSeR2NwtMMYbReqDQja4ioVGKSIv5jdDXklTK2T/gYFMbjkgMD6BpsvHAeE/gEElhojDwH1+rVXIrDENUcYmphIl7o9NEeaUtMYcoDQJmvHm4e/QGlTZZ9eqq7GUopY6BIHc4AASxpShEk7LI350/7i+i6flBQ0jh4NuZMT3PLy0BoWBnldF85WBqCwygcqa3t0dbWgpiYX7u71mDTJD8HBtNER+6tIpEuTfWiiDY2j0ReSZXhAKiiwehZY6lLs3ZBSJ/0NBqzDDaFhYZgzZx57RZoYks9B4HMQ1K+QpYcYWF5VEkeaNzBQp91eLDYYEsc9q1+IDnkXPk36HmeqcnvfEbHG3tL3xXq4poqNIQGiMX+a1KLvGvnLLyieNw9dHh6IWb8eRQsXwic9HWiT4ZwsBAedF6HDxgkKBY3HFaGr6yxmz/ZHeLgry3dQCEPrjTdu3CiMqdFsYU1iV5edVdyNDa8LEPsbFKTUs77yahqdFQT0hSMPwpy5HBCYX2QzBOQehG4jXiziyAGhWTjaeueuPX3e7kvysCZ6QrlSjh8ydmBXwVGT9kIwh3hIBQ8pAsLqeSBAoBmwLIAQv24dCpYsgcfZs6hOSECXswuqq1yQl+2JNpmjsOymoaEYDQ25WDzWGhNrslGzYC4UDg4Gm06aKUxLd2hCDs24Jbee5rPq8hRIBQYxCGNNj7UOWO3PGs5UIDAGFjggmEHxJSbBAYEDgvqVuVggaUgBgkKlxNbcA/gla3fvV9cUcZAq8mLhWcCDNQyLmBkDCD4ZGWjz9UWnoyM6fP2g/H/23gM8kvO6Ej3V1REZGACT8zCJOUliDkOKIinJlmzZkqhgP1ufg6yVZQWv97P3yfazVk7yrv32fbIt+cmK6yUtUwxPgaRISiRFcpjJ4eQ8gxnkHDpVve/ce//qBojQwGCS1E3iAwaorq6uqv7vueeee+6rPXgRV6Cr0CYgYXj4KHp7d+HqzGGcvfksJJbPPj6XE8U4A53KW7IZDiDMBRJmC/qVXtNKt6vknFca7CvdbqbrN9vv5/pbJUDDbbN69ZoqgzDPAH+8m1cBQhUgVAHC8X6KjvP5Tx16CV998V6ECCftaa7gPZ+/z2fbmRbtSgLJfOrX023LFp3ZGIQ17Os9/3yML1mC87/xDex+xzuwZPt2DK9ahWIyiVxNDZY//zwGYs14IfZm7A/WIQw9TEwMob9nK5a2jePqG1bM6ry4fft26eWlFoJfPM7pWINKAcFMz630+fMFA5Vcp0rAWvnNOJ/rWgkoWBCDsHo1brzx5uP8tFX+9KoGoapBON2CY7XE8HNWYuAN+FrnLnzlxe9gODsq9+OJyiIrCRwL2WY+wWOu/c8FEGqOHcPyZ55BYmwMgxs2oO+cc9CybRt6Lr4YeY43HR9H4xNPYPCqq5BN1WHfgRYcPNgkHQ6FQhZdXVvheT1497vXzAgS6HdO1y/2AbPfeGqJYbZrdDxA4kRe+9ky9bmuyfEAhcUEC6vXrKkChMrxzaJsWWUQqgzC6QaSfq5KDDz5O3sP4Csv/Dt6xwaiD/WJAgmVZo6LwTjMh4lw27LEQGFgpQ8/l0NqYAATLS0I4nEkRkfRsHUr+i+5BEEyidjgGA5tTWF3fhPyebVn7up6HUHQheuvb8OqVbWIxye3OLz88stiY0pXMZYZZmIQjpcZqARMzAUaKvn7QreZL6hYLDAwE+BkieHGm6oMQqWfjcXYrgoQqgChChAW45N0HPvoGO7Gl5+/BwcGOk4Ye1BpsJ4LGCwUYMwWPMpfk1PKaE40NWullqB8O/572ge3CwKENrUsPjaG+NAo9mM99u9vxshIEmEYiHgxlzuECy9M48ILmyftm4NKXnjhBSl1UKg4VyCf6+/TnfuFPGfqOawk81+s6zkbWJgLGMxVTpjr727/JxIg8H66777v4sILL5LWVj6qJYZqieF0C47VEsPPYYlhYGII//z8v2N79165H+da1Bf77wt5zeMBCrM9dyaAMJM5CDMcfrEMkM0OAwgRj6tt6NTHwEAaO3a0Yng4JeLF0dEuDA5ux5o1Pq67bmlkz8yhKPQbZweDG6daSUB321TK/lS63VzAYC6gMNffF8IUVAr4pl6DucDAbH8nQLjp5s3HAcVnfuojjzwsk+yuvOJKbL7llipAsFNVZRD0RJwuCv4qQPg5BAjFoIh/eu5uPNex9Q2Z89RM+lT++3hAQaVBigCBZYbyR6XuYYf37EbPrh0494abkUprmyMf/M6Fjo9s1sfWre3o66uRf9NU6dAhHRt9yy3LUVMTl5GotAolQKBZ0nSBfz6AYbYAPx+wN59tKwF9lV7P2QDEQoHCbM+b6R4/UQBh27Zt2LdvH4rFApKJJG57+9vlEFav0vG3p/JBT46p489P5vHwc0PjMH4OTtWDDoKcA8AZAqfqcToABM5FIEAony57Ms/H6XIOOM/hxz95cnKsHBwaiTjlhh8PArre/8w8vvHyA3h03zMSzBaaWVay4M8VZBYaWCoFAHMd40IAAheQ7qNHMfK//xUJ/yDCC96N5dfciEyNgoDyB88vtQjbtrWgqysjY6M5EbKz81U0N4/iyitb8NJLj0vAcABh6jHPhymoBEjMtP/pAvNc16/S6zDXfhYa+GdiAI6HOXDnYc2atSeEQejoOCKT6p5//nlhjH7v9z4uA2WqJYZqicHde6dDcKw6KQI/d1bL7gZ8cMfj4oVANmG6wFBJ4D4eYFHJ/he6zUzvZ7r9ccDHfBkEZheP/9P/g/OPPo+WK3LYn2tF89WfxvK1G2cEkIWCh4MHa7FvXyNyOV86HPr798PzOjAx8RomJg4KQOAEtPLjnC7gzwQCZgv8iw0cFnpt5hPQ57PtbNe8kr9Ntw27GG6+Wen/E/HgZDu+R3av8FEFCFWAUAUIpU/a6QKSfu66GHgJnjzwIv71pXuRLxbmpUGYKxOc798rCTSVZqmV7GtqIJgOIPD1ZhsQwuFKL3/9T7D5rm3oeC2BgaAOmXV/htal62aNI4VCgKNHM3j99XZpg1Tx4iF0dr6IROIIOLa8vl4tmmc6j3MBhoWAhNmeU8k5Xcg1n26/8/ndTNtWCgbmYhgkYK9Zi5s3nziAMPVmqQKEKkCoAoQqQDgRyci89lkMCthy6GX8y/PfQS4gQIjBi/mT9lFpllrpor6QIDLXc2YKBvPJPNk5cMEFF7zh0hxMDAAAIABJREFUvTuAwDrTRJEW1UAyBvgxoJjP4fH7/w6rNz6JoZ0c1nQu3vzLf4RUunbW61AsFkWbMDycxKuvLsX4ODscgLGxXnR2voSmpl60tY3Dpj1XVPqphBlYKNMz1/mf7R6p9L6Yz3azgYK5Av5sf5/pb1WAMK9lZVE2rooU9TSeLtlzVaT4cyRSnMiNY1/nHuzo2IYte57CwcEjCD1GvQTgJxGLJxCLJ+H5cYDfY5wqWBp1PJ+AUenCP9c+F7qfSoMJnQsvueSSGQFCIQQe2ZfF/gNDaK3h+QhRV5tAvvgKkPsB0uEwGpJvxXnnvgeZZBL+LFMcHUDgi7H9cffuFhEvurHRPT3bkUp1oK1tDJlMSfQyHxAweVvqSwKEYbwisFEJ4JrrelXK9sy1n7mYgIUE/LlYh6mvyRLD5s23Lkrgq2QnVQahyiBUGYQqg1DJWrGo24znxvHSvi149NVHcLj3EPqHe1EMyRwAEs885smBAgIbNRyLxQGyCokMvEQKsWQGsUQaHsHEFCvg6RbeuQLAXH8/HmBQ6XO5Heu/0wEEHl8ul0OuUMTDrw8hOR7g8ovWIFvwMDQ8gWOd/ejqOoyhwjiGi/WIp5vQ1N6AxtZatNfHsabew9oaIFYGGMoBAl97YiKO/fubcPhwo1zvfH4M3d07USzuw/Llo6itnVz+ceesUkagpWUfmpp+goGBtRgYuJEXWl6nEsCxGNe0kn1UCuROFGCYbb9kEDbfUgUIi7oYzbGzKoOgJ6jKIJw+5+BnVoPQP9KH53Ztwdce+wpGcyOIMUCEzCiLbN+H5/mAF0MspvVwfiEswo8VEY+HQBgDPGbNccIHBBQ0xuLw0/Xw0zXw07WIpWrgxZPRx34+pYmFBpBKs9RKgAIZhEsvvXTSssVA3tXVibGRUeTzOfT2D6OtdQkSiZi0/GzctMnmN3g4dOgQuo71YWw0j76ucRw5PIKtB4ax+6yz8T9ub0K6rHIzFSC4F/32t7ejre3O6Bi6urZheHgX1qwZRl1dflJQryS4u21SqRGcffb/QjZ7BMeO/QJGRi6b9jrNBhoquUZzgb1Kr1el2x0PWJgNkEzdbxUgnExooK9VBQhVgODuutMFJP3MAIRCsYDh8SHs69qLZ3f+FI++8ij6R4YQgFSzZo4xlgw8ZrYhPP7nhfBj+ndmu/QAkIWa+IAOgfxO4EB4IWZAMdsHEUYITiaOxX3EkmQZauAnawUwyJeUL+KI+aS4+bpvzGBnWuznCjrzyTxno6PJIEwFCNzeaRDyAXDP8/1YnQRuvLwVhw4cxLFjRwUstba1Y3BwECzCHOs8huUrVqImk8HQUIAnBmvwwStakPQ9pFIpOa/TAQQKHr/85X9BU9PlaGu7HbFYU+S8ODCwE0uX9qCxMY+YXKMSHTEdm+B5RTQ1fR9AK0ZGLkIQZLBs2atoa/shhoY8HD36QeRyOgxKz19BridQQjHzAXiVMhmzBfT5gIKZruNCyw1zgYU1a9fillvedtKi5M9UiaE4Di/IAcUcEBaAIAePiQmTjEBB73QPnYY6hIYGZdV0YSJr6UqdXMjiCMlwRjdWQtnO+T54HJIs0Q01JywqjzcXa8BYWBd1FM13t4ux/ekSHKsahJ8BDQI/VPs79+KpHU9iT+duvHbwFYxnx8TlT/6TAC//NDOfGIIQCEJ+2Bh4WGLglyfhggsuxXj8IgDQJ/J7DKD6Xj+5kT4hJL8g+/GEjeB/sUQCMZYjYgl4om/w4RNEEDgk0oglqHVIzNlBMdMiXmlgmSuoVAIQ7n6+H+syCVyyHshOZDEyMozBwQH09/djz+7dWLduPa5485vR0rIEmUwGP31qFx7vD/He81PwvVAWOzozFgqFyEzJLSKjo6P46le/ikymFitXvhnx+NUIwyVyzUZGOtHTsw0NDSpeTCR4nieLHMqBQiyWx0UXfQn5/Aj6+89CX981CMNmbNz4MHz/RfT2nofe3ttRKDSAYCKdfgHxeBKjoxdNAglTz/lcYG2uv1d6Dee6VlMX3vluPxtQmW7fVYAwR6grZhEb74A3fgzeRBe8iW54uX54uQH5AkFCYVSCrlecAEICA645JV3T1FdgQlIsFBBPlAEAWb/KrM79NEIvUXqqn1YdlZXQKgvQfKGsAhgmUMVxBQtBDuMt12DwnD+qAoThYWFMmeCcisfpApLOWAYhX8xj+6HX8MCz92H3sd0YGBtEvliUIBRSYwB+uc+NZvDq9qfZPwO7VB1CD8Wih2IQIix6Ah4EVHi0FCazEIMf9xH3Y4iTYZBdhvBcgT1wgcuCl+wzZDVDHlwOhJ0QxOGpMJJgIh6Dn6pFnCWLVC38dJ0KJKdp86v0d/MJGty2IoDwXD/ObanDL916tgR6sgedxzqxd89uPPP0T9Hc0oIVK1dBTJfOPQ/3fecFfK0zxJ9vbgDnMrljmg4gDAwM4Jvf/CZqawkQViGRaESxSJCwRq5TPj+OY8deRiLRgZUrRxGP60mdnk0I0dZ2EOec8yOMjnagv78J/f1XIwhW4aKLvo3u7nH09NyEoaG3ACigqenbaGw8hpGRC9Db+84Z9ztTYJ0LGFQC4uZ7vWZaqE4Ei7B27TrccmuVQYjOebYP8d7nEevdgtjAa4gN74ZXGJfgHzJoZ5YjyLQjTLUhrFmBMNmMMNWKMNmAMNkE+BkFByxtzvAIAmUQGhuNQeB2kuW7JCeAlx8ECDjs4eUG4RWYEM3vESbqESbYVuzZ8aWR2PtNBB2Pofe6B0ssxvx2uyhbny7BsQoQzjAGgaCA7MCr+1/Ffzz1bzjQswcsLSgokGiEkMFfWAHVHwomcKJ4UyYqTCBQoLpASwcIGfZj8lnkT0FYRAgCDtYGFcNHdsLw4PseEgzyjPuIwY9KGFq6INJQbYMei+QBAcsSZBpCKXP4RA4eN1XAwk4KP1WDeKZRvsdSdco6GKjQlszJGcjxBJmWlhZcffXVkz7UU0sMdz/Xj/OW1OP9d16AQj6P4aEh9PT14mhHB55+6ils2LQJ1DJ0HDkiYOHQ/jgeLNbjT2+on9TVMB1A6Orqwt133426ujqZ5qiljSSKxbciDDnEh8zDBI4dew3FYgfWrh1AKjUzSOAbqakZweWX/xCFwi709wfo778ExeLZ2LTpbvT0+Ojo+BByuRa0tX0F9fW9yGaXo6Pjt0sL7gwsxYkECpUCwJmOYa7fz7T/8gs/9T7ilM9bbr1tURb8SnZy2pQYWps1oy6MIdb/CuJHH4bf/TRiI/sAP4UgswxB00UImi9EsfkiFBvOAdKtlbzFObc51RqE+MH/gP/Sn2Pw2n9HumX9nMd7ojaoAoSqSHFe99bw+DD2HNuJbUdew9M7nsaBzoPighiKEyL1BEqwcZGTPF4Cr2X0UiFQpCBAwpCDfo+e+cbjEZ2CFBOEVbAqhAT5QASNQFFwgAIAggSyDAz6UYdESHbBMl7pfhCUYYyhB09AjVKIwkr4FE0qANCXCBGLx+En09ZJkUSMP1tLpnxnqWKezIMLGM3NzbjmmmveABB4HvMjI8iNj+OhHRM4a0U7fumOS7B7107RIFB7QL/4dDotgd2Px3Ho4EHZz+OPHcHzS9bhT66uiboYeN7ZFeHem3tBihzvu+++CCC4IVGel0IQvAlBQPo/IfbMvb27MTq6F8uXD6G+nvvSvUynR/D9AtavfwVtbc8jm+1GT88KNDR4SCQOoadnHTo734X29i+hpiaH4eGL0d397kn7mi6gzpcxmGv7+YCC+YDASsBCJYBh7bp1uPXnBSAEWcRGDmL40BY0hwfh974gpQMkGxHUrkXQeB6KTechaDgHYWbZrCzAvBa2KRufaoAQG9yO9BMfQr79OgQbPoBiy2WzlkSO573O9twqQKgChIrurWP9HXhm51N4ce+L2Ne1DyPZIRUHSuwXJaGxB0rpS+wNGNA1I2cglwDNrJ3ZN5mCSHPAQK+pvbAPFMIZDtCfVJXgQIeNIjJKIlIimM7B2AVFABGIIGXoGISY7yNGfYNPjYMoFUzL4HZpvAZFQ/yLlDMENsgxhAQYoZY9fAKJOIGBqCThJ5KIJVLaXZHIIJbKqAZimkd5sCGDMBUg8CljO7YjvfUV+ONj6PMy8NMZtG1chdjZ5yKXqUHHsaPi011bU4uly5bi9a2vYc3adbjs8ivwtf/3KTxZ14o/ujIVYTTuczoG4cCBA3jggQdkMAyBhpzrKIP3EYZrEQRvBlAn3SeDg0cwOLgNTU39aG2diEDC1ICn+wnQ1NSF9eufRX39K+jqiiOVKmBiAhgcPAep1A4kk0B//3Xo67t5xvbHucDCYgGB+YCAhZYUZnve1PfJEsOtb/vZZhC8iR7Ej/4QfufjYHDMF0PE2i5D0PoWBHUbENSuQphuV6HgSXicaoAgi2jHYwh3fQ212b0otl6F/Fm/gaBh8kj4E30qqgChChBmvce6Bzvxzce/jO0dWzE0NoSidBQoO0DanuwBa+GEAQykpKZZ0xcqnqWCIESxUERQyCNf4HRB6WuU15TwGxIwMFi77gXNRLWMwC8KGRncndSxLFstAxjyhEDLBNoVYb3/9lp8XWob+MF3+yZokX9z5x51DSXQ4Md8xGO+7tZKJwoStNOC50DIkTAQoMFShpQmCCakW8KOlzvwE/AzdUjVNSEuGocG8XkozzBnAgiFnzyGeHcn8rV18I4cRn0xj+SyFciOjGCoUES4bj3qL74UxYYmbH39NTQ0NuKqq68RkeJXvvw4Xmxeik9eMnlRnQ4g7Nq1S6Y5cgYDAUL5oxTMWlEsXg+gRa7e2Fif6BIaGnqwYsXonL4GsVgRGze+jPXrH0JHRx456rLKHj09b8fgIHUJM3skzAUSKvl7pdtMt91Mv5vt98fzNz6XDMLb3qaTFk/G46SVGAiy+19BcueX4B9+EJ6fQmH5rchv+g105lvRunSFAYJZXL9O0Ak55QCBfiS5HMbHBtE88RpSL/wXxHK9yG36DeTP/TjC+BsHsp2IU1EFCFWAMOm+KhTz0qK46+gOPPbaI3hm55OmDbDSgcT3UEV+upQb+a9aAREYkqnXDkXN0KXW7zJS+hhosJZOBP5cLEb6Be5bqxKk+ONa55dArHoGZSesPGHsgvsXgYYEcAEUJcZC4YyCEQUm+iBUIEhQfQKBQICgyGPT15DuSAoifQULwnwIADFBBd0BTQ8hPIRl3W45c2BCAqwruQgsCuAnfPjUNyTTAhjaVq7FjbdODgJ83uiunRh7YQv8DWdhy0QTMoUAV/mdqOvrhk/L5L5eFHJZ5PJ5hOkMCrEYEixLFANkwxgmEEN6aQsS552P9KazkchwkuMbuxhef/11PProoyLKoo6hPKhNznaXIAioS1gm53R8vA+dnVuRSnVj+XKOZdXzzkd7+x6sXPldDA/HEQQsT9SiWEyjoWEc9fVHMDRkjI1dj56eWzE+vkEcF1koIjgE4ghDljmo/5i+c8LdwHP9vVJgUImo8UQAhZn2SQbhbbf9jACEwihiYx2I9T6LxP67ERs9gKB+A/Kr343iqjtFUMgHNTHt7e0nIuZVtM/TAiDk82JUJIPTwgCJ3V9FYv+34GX7kF//fhRW3o6wdjXCRJmQsqJ3V/lGVYBQBQhyt0zkJ7Dn6E48u/MZ7Ovei13HtqMQ5DUESyeAZvGqH7AaQtQqpAu3xHKN5xqIJUNnEDaq39H1AhjUx4ACwagNMqCOgIyEZftFfS6DtryUaQcYiDVYK/Vvdgka5KNjs379MpGkcgsOIJQElOWdS2QG+KXtlwQ8Jo6UQ1CQIwBJdBGUUqpWQdsqtVNCF3ojSrRrU8sUdrzydxFHylmS/5euWos7PvLxSZ9cvhYXqvz3H4D31BM4GG/Cc0vfghVXvxUXrUhheW0e8d4uFLo6EcTjCIaHUBwdhR8EKAwPY8JPozgxirp0AuH4OIY3no36q6+NSkHlL/byyy/jiSeeALUQXJin0xOUAidtmS9BGJLujEuHQ0/PDgTBfrS3j6C2Nq8tqn4eF1/8AAqFbVJOmKLpfMMqFYbszEiKb0IYJgRU8N/5fCv6+2+S388URMuD+lwBvtISwnzKB/MpGcwEaGZattm+eqYDBLYd+p1PwO98FH7fKwhTzSi2X4di+zUiMJxaOqgCBDqalgEEXVHhjXepWLPzUcSG9yKo36TncMnl8jPYarmIjypA+DkHCMNjg9h2+DX88JUHcbi3Az1DtD+2fl8TE/oxCv58XeAt42bQZsYtYdKqBuJBYD5EpWTPsm5XIpBOBAMNstobI2BBlIwDAYBEW+lzNJAhz+GvtOQg+2Bbo7PY8fk8ui2aONIBAWEbFNyI5t4FbGmrMMgQHax1YEzqY2YrhbIlLghQW1EoBsizdGLiCQn48t4NKHiQbgr5UJs3A7UOCozU94HH78ony1dvwHs++vtvAAgUCw51dSH/T/8TtXEfPQ1t2BkuwfaaDahfthI3XrAU55/Xjpp0HAkUMD42gfx4Fju3H8V3HtsLf1M9fmVTBsHO7fCPdqDuro+8wQOBL7plyxY8++yzYKmjra0tOo6ZgQID+YUIQw6YUvFiX99ejIzsQXv7IJqbs7KPTGYUDQ2PY2KCJktZ+P4IPG8Cvj8M3w9Ee5AuW9Ncp4qUiAxtkUmgNmFg4Jp5sQhzAYXZAvXxPHcuADBfMMESw2233b6Iy/7su1rMEgOz3fiBu5E4cDe8iV4Ulm9GYc27JZiF6bYZhXdVgDAdQChdN/o7xIb3wD/2I8QPPQCvMISgdg2CJVei2HqlgK4wvXT+wkYmhbl+EX+GqSVVq+XTyG76pPggkDpnlj04OoCHXvo+/uOZf8PIxJhR+uYzEHfZvabBpKTzhZwAAkZZBmL6EPhxFRoKZW+8vfoOmPOh3M8MyxrIiR4kSIrZMsGFZfEOD9AxgYGXwENAB0WElp2z9EAQIGm3+ihIeSLP8gS1EAYkimZ6Rk0BTZGsLCBHwvdufAXLHpKhE+hI76Q6Ogo7QTc08Wow22c7PjLeii/UnIlfbI1miYRfFO9Rj0HCo2AsBI+RJQ8etlgkU6Mh56ugJYy4L+xCbUMzPvT7/3VagLDv3n/HWd+7H0V4GPOAwZiPw82tOHrdL+JAwzl4/bk9qE/XIj6RQxj3MTQwAr+tCRcVD+G9O+9HIhYiXLESQ5tvw7KLL5XrOfVBgMAvAoQlS5bMqSeIwFK4EUFwrYAEPvr796O7e6t0OLS0TJSJI61zRGxsd6G+/j4BEbzO9fWlo+G/R0cbMDDA/fJaFOD7g6B+YWTkN2TDuUoJlQT3SraZ7rVm+t1Cfj/bc8pBxokECM5Vk9ohd06OGyDwQ5EfQXLvvyKx40ti+kNdQf6c30WYrIwOrwKE2QHC1M9vrO8VJA7egzi1HGNH4LEtPF6PYv0GgB4QiYbJa0thBBDfhmEpWciXuDga/WmLehhLiDg0qFkloE5aSpdcjpBdJPSRkLWSeqoTpxOhCLvqg3CCfRAYULuHurGzYzu2HnwVP3r1IYxMjKjjqGgGSmUCMSWiYM+CswTlUmFdAAYzZ0fYa6Ls6HfL4J0Q0ZUkpEWh1LjAtkIRMsaUfuBLlIoNcpcKCKBWociI655sx8HFjM8RcaME3Ji8Dyc85HNE5yB/U1dFeY4DGa4uoYqCqBgetWGWKSyszqLHJOCGnQymU7D9SI/DFLZCGQ8FLxRq8rt+/gjAVERJoEVWoaG5Gb/+6c+9ASAQvBx5+ikUe3rg19Uh0dyCmqXLUL90KeLJpBzlT5/9IhqWno+allvR+exPUbvlKazqOoRMcxNi6ZRsk73iLai56hok0hkRP031cHjsscdAHUJra6uUGaYGr5kofP4+DNchDC8Tt0Seo+Hho+jr24Ha2m40NY1hZCSNfD4mrYz19a9j/fr/D5ddNgp2Y/b10S8BMlqa9x2xC38eGlqFvr5rMT7OfS9sxkYlIKCSbRYLKMwFCGZiFlhiuO3ti88gTExM4JlnnsbRo0exZs0aXH21ttkeD0BgZpvY9c+IH34AiNchv/IOFNb+krYkzuNRBQjzAwjlp9ajxmNol+g7vPGj8PJD4iUx6cFSRLxWxI5hvE4BhJ9U+2iCuKAILz+A/MQokO1HOhwA9ytOlQImsggyKxA0noNi8yUI69YhyCzX67zInSZVgADpVDthDMKeo7vw1Pan8PrhbWKBPJod0aa9kligZD5EsyAGWsnimfk7QyGWGDSbpxMhSwE+e/6lTs4snF4I1qUg4dzaEs1CmVa/Vrqf5IOg3Qll4kHDIpFYUT2XBR84ACDdCFaqEDGh3flkC+IU/xmglUBOd0bpntDShjVdmqZCnRcjcaHzTbASgM6M0vflxJgKEJx9gmkjykQMCjZMgCBvWJ/pyhxq/ETWwToqrEOjvrEZv/VHfzbjEqraB32n5d/5/l9/6VNoaXszlq/6VcnIh/bvx/gLW4AtzyDT04VUfT1yv/x+0R/wudP5IPzoRz/C9u0c1tQWucfNXF5wiUZ51tCKMLzUnBdjGB8fQE/P64jFejA8zAsSoqZmG6655lu49dZRNDVBAMJrrwF0UCU4YGWjtxeoqyP7E6K7O4P+/ksxOHglCoX6WZmDxWAV5gMEKgUW7oLOR88w9SZYv37DCQEIrHF3dHTgkYcfEhvbuz74IXnp1atW4DVemHk+4sUR1PU/geS2v8HA6v8D+aWbEWaWznMvunlPT4+A1VP1IDCnx4gDy6fiOHh9COLYenyqHpM0CFxcCiOITXTCG++EN3YY/tAOxAe3oSY2gkSmAcX6sxG0XIzxugswllyDwCuB+4W+h5ERip+T8nUqHqeDDoPn4K677sJjj/9k0inwBodGnOgeDT8eLDkRVnCmXjvwCu575jvY2bEDg+MjKJD6N1dB1vbZn85gzwBJ+p3aA23500KAtvUFRqFb+s+sPcYg7NtzHdtgpkSubixTF6lTINgg/a5gQ2h86QjQoKD1eN2WpQKnT5BXFzGjKxnI8m01fpf1qxBSyibM0k3cWDBxIyNzIpEQWp9ghlYFfM+MogQMhaCIQiFAoWCiSLNRZduiACE5D8o+SDukWTmLVbMJCJ0Q0zyarPTgAAIP2YZRCVYwW2nRROjZ0HcF1DU04cOfmlxiqOASyyZjo0flfdXWrY6GXBUpcOrrRd/zWzD27NMIGxux/jd+W8DCdCWG733ve9i7dw9qglFkEnEkahqRyNQiVdcoPg9TgckbAx/fRS2CgG6Qa+W69PXtgudlMTDQg0KhH9dc83W8972vR5qDvXuBPXv0PsjngWz2Fmza9DCOHUshlVqH1av34cCBIoaGlqOr6w7kchpsZmIzpv6tkn9Pt818fjffbWfa/o3ns3T1ySC8/fY7Kr0d5rUdweLrW7fioYd+iM989g/luWQQ9u/fP/d+CuPwe7fA73oKfvcT8If3IhaMobDsZoxf9jcIU2yHXdijyiBAgDwBgnQxnKLH7MGRWVpebK553f2BVxHv+D78Y4/Byw2hmGpHof0aFJbeiGLrWxbsclllEJRBeM973oNHfvTYpDthXgAhl89icGwQL+19Dt9/4UHsPrpLTH3U/tjhjBg8aR+zqoG06omVkQQsGbkswboggZRlBqlPWrsigySDKjNg7jLm0QfATWkka6BMA9sDSWOrYZKJ9clOFPn8vNb9CTbiMSTiZYZFzj/B5jDwyLTl0IKpcPtOXKjlBR3yxN/p8CfxLgCzdNUz8LuAnlgolswJahPIglgCrDMfdMAbQQoDqGgadBp1yafByhx6LMpOOK2E/M7Os4yjNq2CiS80qJmY0wkm5ZLYsRMg/NoCAcJ0a4djHPi9mMth4OBB1CxdipqGhmkBwoMPPoj9+/YhPdYDPz+mxlTChACxpI94TQ0StQ0yryJZoz4OMh1TxKuqo9AHOw8uw/BwC/L5fgApUWPX1z+CX/u1b2HVqr7ocF96SRkDPgqFldi37wPYtOkJ1NU9jZ6eVRgdvRkXXKDzHIaGYujsvB2jo+ciCGj8dHq1PC4EKFQKFk4UQOCQr927d0sgeu65LfjEJ1Qk+8YSQ6jDjnJDMggpfvQh+F1PIja4TXRFrFEXmy9Gse0tEgjC2jXHTTNXAcLCSwyLiSUWmj3H+l5G/NjDiB99FN7ofnhBHkHNCjF6ChrPR1C/EUHdWsCvUb0XdQyy9pNp5vpJyrcgOoncwAEkCr1IFAaikgkFrwhz8PIjOoBLP0wIWTbxMyKwRILumysR1q5HULdO7tPQT4lNN+dxhDFSl2XDuGY4cQs9B4t2HYoTGOvdj9/66G/i63d/b5KOpyKA0DPUg22HtuPF3S9iy+6n0T/SJbV9ab2L7IJVkCcBm4K/KIy6KYoxHV5krYyT11/NiNUQSP0E1MSI+1N2gDIBcUE0et3JFpS+dxIGBQWSk4uPAkWKPI1K3Mvzyx4iBHSvKR4IFskjoyZlBKRLwACC3SnWWqiv7coRogUQal81Dc6fQcslThuge9KShm5LgCHPE4GnA1pOO2Hvr/x9aj9oqZRijIX1aqq40d6qxWDUNTbhI5/8k0W7p2YCDXK2o/dQ2uqee+5B57FjSIwcRSw/oaZTWiGxcpSKTeWXsbi4RcYz9Ygn04inaxBPpcVFkr4O2WApJrLnw/dJjSbh+0lksx1405vux513fg8tLQPywmQQurspSgSOHbsN/f2XIZMZwXnn3Ytc7hC6u6/A+PjlWLv2VTQ2vozh4Sy6ui6QwU/5/BJbE44PKFRaKqh0O3dGZyopLKTUsG79etx++52Lfm8QGOzcsQODQ4O47LLLxVyrHCBw+FBsaDti/a/C73sRsZG9CIM8wtp1utA3nS81aKrnEVtc+rcKEM5sgDBpHR87gtjQThmqFRs9pFM3c33CMohXjGi6rEdeciYVfFPTxfsq76XhJRsQS9YiTDSpSRR1ErGU/hzdeyyw5/NGAAAgAElEQVSBjKnYkvsneMgP6lTPbJ9MzQyps+Dz2PEhmomlAiZksFeqSTwlJg30mquLgWCGr1kYhVccA2xoGEW6HseLu+mc0316eRwEK9SA8LjiHNpFXUit/E4eYRHJrX+D+L5voa/zIJre9B5kL/o/BfAIJpqtxNAz2I0ntj+OLbu3YO+xfege7EOxYF0DUWsdA5ivgkOZL6CFA2b+gM0gl1ciZNCMX7Na1RBEcxNkcpJ6C3hQtKedCQ5TKPgoZfPWNSDGSZbWmzBPwAMDvwAYBQeShZpWUOv0nOqIMvdDBTx0OxQthB5ylIFbQ2HJvdkxC/oW7GQ7MaYCHNU02CAnYSocvFAxoxNp8rtoGco9HUSoya4FfrfXcF0aJqCMrKRMfCEfBT3B8v60/0N1EX4ijt/+479a9CBQyQ6pZP/Od76Drs5OxIaOKEBwDIjYVYsoRW5WAQzCoKh6mfeWAC0yMmRmOOSq6Vr4DZsFHMTjacTjGQFq/f070dKyBe9973exadM+ESQePVqLwcFxvPzyO9Dff75st3z5Dqxc+QMMDeXR1XULRkcvQGvrYWza9GPk8x3YseMdGBy86LhZhEqDfqXbyTmbwmwcD2Bw+ztRAGGme+O89W3Y++Bn4Xc9gdjIIRTr1iJYeh2KLZcirFHLYzd9sJL7ayHbVAHCzw5AeMP1LzBwW0BlAKUgUjoo1GFPMntp8WKGn8DweBHJTD0S6TqdxFnxg2KvnAZvdm3kh+Hlh4HcAPyRffBG9krHR2yiC8gPaeLmU7RZK68tpl2xBPJerYz1jicSAl4o3pS1UFiMAjyO6w50ZDfFmyy7kMUQdsJNDp3umDniO+DxDas4VMaFpxU0JBoQsEQXS8pkTxlaZnE6e94nkb34T2cGCAe79+PeZ76Dx7Y+IoFM5wwYKyO99RTWBaI5oL2xBFq22vkekhTxWSSWLgAa+Bj17fQAUctCWXBVtbp4D9pERZdblvr8XVZurHnkOujcEAt5jg3WlkBuy/KCehfQM4AdM1ZqcMI+sU4utR3miwVkszmzR/bU4TBOp0NlN4z5l5KGegxYW2KZ/bILfM4twYEcS5WVbZDODp63ss4DahjEUTGu+gktYiiokddTMMPyS75gWg+DAMpUsOzi2iidHoHPVZBBAPK7f/bfK771F3PDbDaLe++9F93dXZg4tg9eIa+20/JlzIqUUPi+9N5SFkJRv+Iq9cCg8VU8vQINm/4E8XgK8XiNgARqQPgBPHqUI6NfxUc+8m00Nw/iL//y49i4cR9qa5MYGSnVrC+99EF43isYHFyCo0d/ARMTy5FIZHHBBY+jo2MDurrO0g/IPEsNlTxnpkA/n+A/n23nAhEUKd5+x+IzCDPdQ2evqkfHl85Cft0vI7/x182vwJi1xbzxZtlXFSD8DAOEed5DJ0aDEPXl69Ew0I8fFW+J2Mh+EWHGxjuUdRjrlLHeMsDOiyOQmSA+gpqVgF+LMNOubESyBWHNci1vzKv1M5ROkdj4EcTGDsMbOyZlmdjoYfgcZz60Y9IZy696J8av/aYm6eUMwsv/9F28tOd56UgYz06Y5XDJmtj1Ajjr4ZJyXwMmxXvFYiEK0NrzzyDAOrK6E3IKorQC2uhj6cxz0xdNxOfq7toGUe5IaLQ72YCozVHtiLX+zu21jKFAw4yGDKDo9EWbp2CtgOpNoK2ASmjohZUALi2EBWu5ZHCyIDypG8GdFdMtlLUvyvswUWZkx6zRIbogIkI0YyYpURAISD3F2TAra0JfByueyHE4AylttzRDpIjed1Mj9Zy4Torf+dO/m+dHZ3E2pxDqu9/9Lrq7ujDWsUc0CzJvQ+4PE4maoFSAHO8VC86l62y21Wx/9WJoXvthNCy/VQCCzymXQvfwuhXR378HnrcNY2N5jI5mkEAPGmMvIpWJI1HLskUG6doAV197D8Zzw+jqugRdXbfO2O5YSdCvhAWoZJuZwMNi/n4qYFjPEsMd71ici13BXkSDcHCfLIan6lEFCFWA4O69EwMQKr+zT6UGwRveg9pHbteJpowffhoTl/w58mf/jvx7EkD4vffdIp77OgRJg6WK6bRO7n6nWgGNylIzlwCsEwtFLyDiPQIF68t3jYISlE3BbwHB7Uf2ZvuSA4sCrbXyidbBxiOLSt8K2K6FsTSjSa+M0yUIy26qf9M/yHwE52FgFstqrexU/5LCm8ZCQYrTDETHaDFeXQw1dGuLpsV/G7gkfv9WWjdhhYCXEkYwwGKWzhLkbG6DejTopEp9mPaABLzNcCD40smVZHqYhBPYOBdFHRbl7KE/8fm/r/yuXcQt2UJz//33o6+3B2HnPoTFgrEvjiVSBkovSVl7rBalFGRau6hqST0kMqvQuvGjqG2+SGZqaKcJ2aMc8vkxjI2x/bEDY6Nd8MdeQLqwGzGvqICJbEsyiaUrh/DW2w5iLBdg56vXY2RwBeKpDBI0hUqlwamcU4NpJf8+HiBQ6XNnAwzz/RsZhDvuPMkA4dChRbzD5r+rKkCoAoQqQNAzIOZXe76NZ3/6GN78C58R0zFnfDUJIPzuL9+kY5M5ZdAy6WjegQAEmgWxZsysWl39pK4icxJ8xJnJCVow579A68hUmRdEY+Bbj77+nXVl0vgSFCzjJ4XMLgBm9GQbGA9E/Gg+xspe2Jhnia2um8Ga+kpmCNriKMDDBIrWSSmeCa77wkCOeiy44UjmZOhcFoUxMAGjxWlnaazzD1RrwJILyy+SGZseQ5mJUlMno7h2TriWUH33BCjaZhnhGzt2VRE4AYMzR9KWUqXi5Vy51lCxWjbAZnbL4sRYKOC3/vTUlBiGhoZk1HN/Xy/CroPwrMPElZ6sUFNSTJhtteg4TLgp96UBR4GKMQ/puo1Y+aY/QKqWo6IVHBQK45iYGMLYWC8GBg5gousHyAQdWraR9lIHPtW6un1lHl4swOhADQr5pNz7Qt/RzTNTj1Rdg3xl6pvEBGqhoGEmYDFTMJ9vCWG+25e/bhUgzB9gHO8zTrthTcf7hhb4/FOZPVcBgss7A4z2d+DDH/wA7nngsUmdF5MAwifefwvGR8d1gJBkbJqdSu3X1yxafA6mKO8l2Ep9nMFRpg9Lyx+z57Cogc8GNmuwNnAhQZVWwlbMdxQ+wQKfL2OazQlQigdiPWwGS84qUGhlZR8UsGhwZlBmayX/k2Oy4U0MSoUch0SFRk2XBiyVSifKUKjAUHWwJSsjFWFy/1IuseNTLUNJVBnNczA2wHUdRNmwlSnUM8G1iaq4UfkIBTG6T/VKUMSgbaXCXPi6PX0WCgQB1oUh2g9qJ8osrXkdP/SfP7/Aj/HxPY2mNPRBGBoYQHB0j76fSd0nhroiIFReglH4UJDWWPpcGztkJb5EshlrL/kzxNNtKBZp/DIi7MHAwD7kex9BTXDY+mANeFnZSsSvdq7VL8MMqrR9xqaDWnulTQjjtUvV1SFVW49MQwuSBA2pGm3H5PPlmipgnfqYS8swW9Z/olmF9Rs24M4733l8F3kezz4eJ8V5vMysm1YZhCqDUAUIpY9IRU6Kn7rrbZLtqyiOC7L5CYgaXxdmCdqS2RulzRAcFjV4S5ufGgq5gFbI5yXQcpHzxe+ALIKZF8g+YyLa43PyhYKYC4k3QkLFhapd0xcnnW6/kHdmjYzKBvAXZRMh9Xeuk4EdAir4c7hCrZi19OB8HJzq3z3XhWp5L+z3ZwdHBBo0kJDYEIGg6SwYJHh+pP2yTG7At6waA8v87dromGo9LgkwZgGtr2NyTvM4KF1O1/po5QzpaSzR9Tpi2gEcDbB8fPSPv6BzIE7yowQQ+uF17lNdSXmJKBqAZSUe61yR6+tuPKe7sBHarptFuyLrUd92PeJ15yBXTGB46CDG+59BPEctgjJLwjpYWSxqEbU+S7XJVl1LLLLu1jZV68lRoOz8qeS7nlXpqkhmkKypQzxdq9+TqehLxm0nkhHzUAlQmAkszJclmGn7qfuvAoST/IGQpCbAwMCAzCY5VY83TnM8+UdSZRDOoGmOn3z/LchlcxHdzcCvaZYGK/H6jzwKNDhFGgJzEHTjFjWjN9aBWa6UKNQsyWXGBAKqW9AgRpBgXXpmHWxTFU2Ix9vXUff8gJG4J+hgBBD2wEyH1I/B2goJBNhGKK/rPBmc8yKDRlwCPB+OQaCPg1oZWLZuAsi4ZZ9uGiRPB7UWup1TTVgHjZj7GJ3NYxV6m10R2m5Zzk4IthGRJ3mWIGJOWHeXMc48RxH40Q9xCcwoQNFg4DJv0yp4HtJNS4Uqz02M4d0f/ijS1ot+MpcCevH/8Ic/xMhAH7yeg1YycUdg78SyeS2zOEdLd3+5UpEDO9ZSYy6Sej7i8JNNQLwRefY/5/ukp76cnZGOCDfPgiyWmKZM0ZCIh4fuUe8XN0bbhLERmHH3kgIFp16Re5TlniQ9G5JI8LufVG1DDdmHBnWQrK0T5mHq40SzBdPtf8OGjbjzHVUG4WR+JqoAQc92FSCcPudgzlkMH/vVzTZ10FkMM1hxgQxFJKZit5LhEC2O1YK4KIuqzE6IxTRLdqJDGeFcIui5CxHe8bkCQJyKnXS9Lw6LpiUU7QEZB34xDnMgEQOyTDU0VT8BAgMk98dae9yPSxB2okOp0VvwlH571yNpnQoy48EoZR07rZoK57Cof1NfBvVbCOCFQVT6EEto839S46PSTAeWXLQcoKJC98a4fTwRF/2FGDqJEWOpzZPRRoSebNks8LU82T6ZiMOX9hZX+lCbap4zZw7lBjUxZNW2r0LDqrONYQlx0003iyf+yX4cOXIEDz30EEYH++H3H1FnTSurONEnGR115TQAFAkWo+JKBEaj8oQJTN39ot4TKjRR8FpiZFTsqfehwAvXpWITNZXQoBiSDpgqOBWr8LL7RY/VfDKisdolYaviTHdt7LvroHHiXGG22MkTRzxTi9qmVmQam/Wrvim6NIvFFlTCIlQBwsn+RFQZBHfGqwDhDAIIH7jtLSjkCxJE0ukkKObT4juDLGv2SvuLrl+CbWkBVnbAxHrCFmhgluVTVXPw2OPJhbmQ16w3xjKF69PXlkLunWJHRgqyDppty05E0yBZHzUNQQHZPBXrqogXIMHFXTQB2lYp+yayQIBEPCEBWcCEtMo5G2MDMDbLQcYn22IumaEr/VtBw4QYcjwlYaF2OmjgKuuGEKpcqX7xPJCJixoBYzQCcqI7Kb+oh4FzYuJm0n4pgjmOxLZZEmx/NM8DBUJWmpBSjAIvVhzql61D46qNk1a+G2+88ZQABPruP/rooxjt60bYd9TuBde0aU0iFryjgEZnS2OvhG0xQaYr97i2Ubu1orn0yhBYR4yYdVmJwek47LoLGDFjKr0+OqeDra2OJdPr77wlVA9ijtwK/Oz6qQ+F3nOuFOE+NxGrE9mRq6LFfY6cyJdvNRaPIVlTi0xDk9hNy/d0LWIy6yMhZQrOrXAMy3RhrRJAMPV5BAjveOe7TlqUrGoQqgChChBKH7fTBSTNySD8+ruuwfjYuMRAEdP5vgIBtpUlfQmybHF0pkEUDJYL6JyPgA5RMoqfGgPzJ9DFSylczSLV0KhUqiBLoEGOabUYHknA9cUfgDR+1Jlg7W+uFVAybgZgkQaQBbCgIq6OKnZ09LL4MdCVLxJASn+g9d6bH4KIMc262TRnbiy16thKltAuCIgiwRgHNfWxIUzctwAi16uvoIHCOzfciiUR62NQDYO0L3pyDhzNzd+r6kHZHCskKIoxQEE3rqYVa1C3dJUq8ssepwog7N27Fxz3PNHfhbC/MxqY5WQIToMh59epKayd0YEEyc0dvWBFAC0DlVptHU8V8VVOCOqAnitJGFjQ6+l0Bjb+20aNawnI2WHrPBHVIzgLcBW/CkiQUpIJYd09FXlquBKEwgl3/8qe3BAR2UdZK67QalomIyCgEDKZqYWfSEt5gv9OZWqkq4JfBBHzKU044ONujSpAOGnYKHqhaolBT8XpEhw5yfFUsKun0zmYEyD8pw9uRj6bs9kAgQRrKQkwaFvmG0/EkEj4SKW0pdHV/nXR0bZFoeStFBEFcLZGMqhZsNbUXNkDEfZxYZXIq+2TMlRD2i01e6Z7YNQOZ/S0tPfF47J4qz6Cx+CL0RBLERyKJGJLG4zkWAaWTEJrnZSeeB+Ix8lcxECdgWSCbsCSuTtqgLCOgrJ5D05D4fQK0o7nZjc4YyYTEUrGKtIGYylEzKgDRAgE1FbZ6HeWV5xpkIlCBV5ZBwNsCJbYQ8s5UNFow8qz0Lhs1bT17VMFEHbt2oXHH38cwVAPUhP9kShU3CGd0VPk0GmwR7QjGryjckGkedGALPM7hV1wkEAXHTex06kztcJU2o90nMjvSs+T6+CQqgVu5/EhsVz2bGPAIw2Jdc/I9TP3R9OrCHtmXhoqjDUNjOymND/EvTcFRiyzGOjgPRJTtkFFtJEcCJ6U0ZIikOT9S10OmYeaxlYRSdY1L0UiUzNt1JtWg7BxI975zl84aVGyyiBUGYQqg3AGMgif+vBtMnlNF11tJ5TpiHkdWSzTCKWUoPMZySQQLLBGnhAalP34SrG7GrPUxG3qog4mYgAsIEAeYZhHMSDVq+UB1tg9zzz5LYMMAg18pW4DzRqlt19slRmQyXDEpfNBsms+R8CLWgxr9qnaiHw+h1zO1aPVQ0BEipIt6ntOJGJIJTmRkS2TvgwWcsZKTmCoWa+JCGOuVdOBCL4gNRZqVKS0szIhzuyJb8kBGB4/z5tMgKQJVaSPsPdpbo5a/7bZBFH5w2ZIpJJoXnsualtXzLjQ33DDDUin0yctELgX2rZtG5544gnkB3uQGuvTmQqi91DdhehYhCJS7YVMvLTR3M4LQeCAlXvceXemWypXcBM5nVCz1J3iwJd6abhyV6nVUrpzbPCYYwWUyqCIUYFB9HBgjzoRM6TSjhEt8bgJnPy3jge3e6CsVMH3zVklzkTa8Iv6ZVibpAIYY6TKrrUA1ajO5/RArmeTr6+6F86ySDcsQaahGfVL2lHb3GrCSP2MlFpNPWyoAoST/pmoMghVBuF0A0lzMgh/8MG3oVDIyUKsHQjqR6CmPvwdKW/L+sSGWHvTuR7p3ALS4q7Gql77mjm5zgVnkayBj4uZBHrbtwjE4lTtGzgxh0bXZaALPQGELv6a2Vm7obX2MYDKEfBYTfwn8d/T43Q6CbV41kU8V+B+VT+gCzCFiKX3wX0qAIpHdWeeE9fhwf2XdyXw/UpLpvAF+l70MG1YVWSIVOqbC8jSmMmSzChwXQlO82EZrAugrquBx5yqq0fbxnNR29w260K3YsUKmf1eW1sLR6klEomoi+NErZKvvvoqnnrqKWC4GxjuFdApwVA6O6wllDoXs1gW1kqCrhlLWKlGzZCmDLCKygemF7DZDpF2pCz1VjBSulYR4pgSMAV4GJsgRSFjjBQn2ITQMp8MJQVs8JgBW7neVvpx4EHAAmeXiN7FdWqYc6SxTgJ07P5wk0p1NoeBT6d1sdZaBc7mBWKWnXoPG7CRz4rqKsg4pOsahW0QA6jaOiQzNTjvwkvwK3d95ERd/jfst8ogVBmE0y04VksMw5gTIPzOL10n2b1rm9PsmpfS0ftacFXpgCeLuNb+lXGgBkDMbExIlyCjEPeFZVBVuAEGo05dNq4tkVqSde2RqmEoZfhSo7UWNecV4ERmmkC63no3KlqBjIi/ZLW0FzBBGRdtChwlDohwkUGJAEgFhVFpImAXAd9D3LJe7YEX0abNmVBPCAUBcrbcj6a5ANhloEGRkyple/OG0NhUYlyibFjeE1s33TnQ0kdJsa/dD7F0BkvWnYea5tZp69DTrfosSbDexvG7ZBRqamrki8CB3x0gW6yI8dJLL+Hpp59GfSaJmjiQHxtFYWIcubFh5CcmEBCgRfoCJ/ZUdsbdi9LxYWBQ51XooCv9bhS8teOWd3sqWDMXRSvLRPeKG0ru5AAamkvdom5HwhpoOUIFhmZQEVUo7G8lKkDuN2eQDQIdAae8ZnpfO0ZKQau1yJabcwlQcFbl0hykA8cEdNuVicoZZS6c8jfV/zidittcn2X+H1bJ4ZTPK2+8FR//r19YrMs9536qAKEKEKoAofQxOV10GHMChF+6/iJxTMxkUqKep3Jag7tzNrRl0gbjyBpjQT3SKlAzUAyRncghN5FFgZP7EnGkM6rCZqBVk5kABBBSVigzB9JhS3RBDKWjguZJFC06AyJnaiOBw/wDJEOy4U+aMGodnzS1jJUWN0NlLLh7OgxyfwIgAgaQhHkpFMyISRdXYUjEIdJDNlsQASRfPykliBg80VWwhdHaKulrTTMoyxxFEyHlFbWmFsrapIj6N1u6RW2vpRkdwmRgR1V4FqaU/tDn6BcNeJa+6TIka+pL7RZzLs9v3MCVWWSaZDyO5uZm1NXVYcmSJQIaZlPGV/Jyzz//PJ555hm0t7ejvr5exZ82uZFdJvnRYQEN44O9yI4MIygUNOhbV4F0xJholteOTI6aUZk+k0DVOkRkboh0JZiug6UKAVvK5qi9txsS5bJ4c/uU19Rr7x4OoEgFRGgnZ8yo97CEXGPK5Gd3eRQqyn0cdbcYD+AaN/U6lyy3SxoIBZAKVA1QWMmqZPhkgNu0P8I8RJoVCiZLZlpusJcCafel7Zb89xXX3IDP/uX/qORSLso2VYBQBQhVgHAGAoT33/pmDA+PyCLpKJdUMol4gvQkQQIzWtaPGQRLLWSyFIq2wGqxJsLizIZ8PotctoCJLIMp+/mTSCZdHZwLZBHxGJBKxpEUTwOXrXExp9iR2T1HS5O2UFZAyx+atXHBl1p21H+uYkk1T9LjoshSFmUpKWiwFv+BaAKk0xNwsdegrPMRdCaF0trUXwC5fIiJHAOYAgPJTk3B7lJGyfJMl2GKAqsna1lC2RC+T2uJtLcsLIQ5MxrrbWDBOTi64OVJG9zScy6S8sKJfPA+IGBobGyU8gQZBnnf1jJaCXh49tln8dxzz2HZsmUCOGZ68Dz379+OXG+HgSC9hnwQdIpWgW6bcj1CYaekG0W0IhoUxXxLhJ8KClXfYEZfllUTOIqoVXCZc7LUK6XaCLVYdmPNpfXRMTmyb713CEIIcORuifofy99duRgyKv2X/6AbRwyFa89UlFGGM3UzN5BKQAPfn4papbnSCTqtt0XCv5Rt1LhJWCFnBx11EWnJ5YrrNuMzn198gMDM6Cc/+TEOHTqEWzbfgrXr1sn7qAKEKkCoAoQzECD8zi/fiOzEBLK5PHI51nudk5yMp5bMmQFD+u9NYKadAyrii7QG1h5phLgG1wIp/WL0RXMfZ1PM7bTt0AN1hmQtZPE3EyJdKJ13gRdZM6voUalmyQ4ty3SMBH8tor6oFqztl669TAVk2moppQjXZkc6V8CJukc6s14FCxpcCHbyZhGtJQV2PpjHgc1+UKbEzJXE38EWahmIpcFIsk6b7RB1REhWWMYjq37e6soe0o0taFp9FtL1jScSG0y7b2oWyC4w0PN7eamC98ZUwMBzxvLCzp07BSDM9hgdGUHfvtcRG+s3kyN3HoxVMZBHfCiGWmUiwKgdUoIiO23iKvw00axkzjYqmlcl8j0QB0sCUAWTrr6gkJP4QbsJIj2NY7sETpjnohO4mjDWdU1EvQ92XyggVTDB/ZU0EMzkzV9abggtOriyiyvPyds3hkwAQ8Q26e+dX4RabZfYDL2TFADpvqyLxnQPV1x3Mz79F4s/6XNiYhw9Pb3QYV3347Of/UM5ktWrVmDHjskz6E/2jdzd3Y22ttk1OyfymAhcBwcHBXyfqgcF6RzFTuB/qh6nC71e1SAM433vex8efezHk26FScOaPv6+m1DIZq03nxQ92wVJ9StYYCbF+QwsC9TUZJBI0heBznMxFGXBNtU16V9xDrR+fauzSnuXsABF5At5cwFUASQpfC5wYmhkmWFSgAIDqVL1FoY1eIjzngZXV47QDFxXUcdmaAeBtsxFMyFsboSKMLXWTz0C34P6Lqh4zpnYkDWRiC4lDZovaQbL16JuwZXPNfAovS3ghS6NtFm2WroABKdLlDox2ROeK1X1a4mhpIZ3WgDVLOigovrmJdhw+fWYyBek4+RUPqS+7/sCGt0HjMCBCw6/qHHgtd6yZQs4HGeuPuPDhw4h330Q/vhQlJEL6DKdhrpjlqZ3akupggc3wlscEzW0l64Xr4Eca1zEpiqMtNkK1rKougYFCdJBYX4IZK7UbVNLTmJe5codrrRguMIdi8v0HbB12b8ICs1QLFI1RE0XWqZScWNpboTedgo8Rfhq27vOCRf8Zd9mye26Z2QomvllSHeP7cr5SYjw0QPeesNm/Oe//L9PyK3EUd9f+fI/49Zb34Y3nX++vAYZBLa+nspHFSBUhzW5+4+DiqoAYRi/8iu/gh89+vjMAOH377pF2gBlEZMvpT9FLiVZFkWIAXISnEjVK1VGZqGuvkZaA2VWAoWMJvzSCXdaSpARz9IR4OyCGZBVoMhYl8uqvTAXNSoM6EsgtWbJvNUZ0bWqy0IvPkBabpCJBbKa2hRHl+lL50WZ378JyZzLI99nQsyftHuCIEEGTBmlrBkbOyI06McFwNBDX7M+pxcQdsH8G2ROBLUHHG9N8CNaCr7/gg2iion+Qo5KdBKm4C+z49WhSqo7UPdHtpyGWH32m3DHB39TziUzs/7+fgm+vMlLRkKncuktsR8ECE1NTRgdHZXBNLOVI/r6+tDf0430WDf83HjkB6HeEFpecq2I0ewJswF3HgVyHl2QjWrtGth1cqi2HKoJaKk84ft2Xf2E2Wm72RgKWhlceb9TDyMMkgAIC9tmtOTKG3LP2sjt0NoUheWS66xZPe9nx7aJ1oDIxFgsd47U78IBVb0/hEVyFRTZXdk9aEJNFcIq0FQjKAWi+r7NZCuyA9d7+i3X34w//tv/ueg3TX9/H770pZqLceAAACAASURBVC/hF971LixbviIaTFQtMVRLDO5mqzIIp49Z1JwixY+9bzMK+ZyJ7tygIhXM0R5ZBFOi9iedyaDlaeeCsQFCYfo6NyCVSoqfgPrZl0RTWiwgCOAypoZKmiVZuxbbwFhvLtB/gQsyrYMZbNUJkUFWZkMwi2OHBAUMzi1RlO6qfBfXQZm2aMIyc8VzAMcZP8nr0qtA2It4ZGij7L8yAAI/DPSoaRQJBc1E1XxJ8zORFpj7YY4gw5nnSGDw5T1wb9KqWCiY7wFBhHYruAeXeJnXwOFOrrXSWkUblrThvR/7zBsWc05mI2XpQAPZBX7x9xqATt8Hj/HgwYMIRvrhD3eprsOVB0S0ygCv5lmuVVWhoZVojCEqVWX0XOp1KRkkSc1e7l3TskQgQv0KuD31DGR6xI/CTW109H1RPTmUoVBNgOhTBByy7KF22rzjeO1UvOpMkawEZ/V/ZQSMNRKQXPJL0CvlOhtch452MihIMv+Isi4GKYNFds5lXT0RsLLR4VITVKZEuoCoQbj2Jnz2C4uvQRgY6Jf2VoJD0vlkEfioAoQqQKgChNJ6fLqApDkBwkfueItkwcyQVfylSnGh+E0BLe2AloU5AZmr1Uvgy+cl+HF1pacBBY4M4qmEehwopW9CL2n5I9tgGgLrIZfygQgfNftzbWx8XYIGfsnSz+FQZknLxZHMhBu77Jzs1M3OLcbWV+9KAQJu1B9B/QUsCEmlhGwHAwY9Hmywks1FcK1pjkFRxz2jwjV0aCZqPLIzy4mCW0QrO9m7qslVia+ARkoPVjdWlbxOsmxqWYL3/u5nkEjOPHSJgYvggPQubz5+8eexsTH5+XQCDDxW0r1Dg4OIDxxBfnzUWka1S0BtsbVdNgINUSnGDccyjp+BXE6pzvAodSyWWgOjNkar+cs363pQQaO1XNqMC50KauJRT11CFUBouUj/7rQpFuhNk+CYi3Jtg7TuGjMgJScZtcGAT0bOuYE6M/KSD4TzYHDgwbUymlJC2TOHMa3VsXRP2pxSVwuTbgcFtrx3r7jmRnz68//9pCHIKkCoAoQqQDgDAcKH3n4lRkfHwBkLHFObTiWF5meAl8m0kr1oG5/EQ3OSU2bBLIIlPtIeWcV8ohiX2j47I+JIp0jRqzmOZFGSIbt2vhIFLNS9tXBpzVj7y6RnXvapGomcaCN0D86yWerWUtJg26K2HmqQMYU61ExJ6tB2naStUQCJ0sEEDsoyhMjn8rIV9REU6TlBZTkAkOOVjJN6DNU0COVvrZH8mcBJWtdoFOQEleZtIMOfJOiQUSAzk5fsX9pERbCp8xnIzLStWInWpSuwcv0mtK1YjZa22cV/0gUi9HgR2WxWMjoyDaT1+e9T+SBoYYkkHO1DKtsn6T2DlpvnIdeDQ7wssGr5RrUPqldJaDeIawY1tkHBpbVAROJRZZa0KlViGSIxofNR4H1m3SauYcZZQgujZVk5rxeDvHhkGLWvE09tXLgJa6Vd1sCfdvvoK0aW0LI/ZU10bojzKtCSgJYMLMgzuMttpY6JrudGNRcKNNm66x5SqpDPhgok9WEKRnv+iWIQZrqvqgChChCqAOEMBAi/+c7rERRy6j+Qy0mwkpY90q5JFR6SUie1T4dF1jc1GGtglKAq1KVmPqSAxY+A5QIZS2xOiGxrlBIERWM6C0E7AMomQBoVq/VbGyfNiYfCavgMpwJKqGZn8MtLOZ8eDAFGRsZESJjJpKXc4ahZnb6oCzEnRpJxcLS0UsqqJJdjtYDq6taibQg8adlkuYW7qsmkkUwmyoxrTJgosyEoKiStG9fjFLtqAzeuri6GSwQunGsRk/59bbWLR4OW8oGCDbFlFr8HBgENfAx2yUQCza3tWLFmPTZdcBHalq9EOl2jwkfnyTDDSs3gQX0ASxM9PT0CHNT+2fXel8oeJwJE8HX4uoP9vQi69gpTFYEvAXBmDCQzOWxgkucJYKP6WoEb7b6TSMR5P9lsgqhBQCOxzrdQEBuBAytXSMeAiEg1qCqb5ar4ainuWmoBomQNsNyO9wavTd72q/qUhFwTAcFKBKgGwIAFgYRrwVU9gwJdEUfK6HSb6WCAV224HZs3eeKn+HoIqHG+Dc5IS/U4KolREy8tr6iGQYCI74CDhyuuvRGf+W+L38VQBQgzf2qqVst6bk4Xer0qUqzASfGj77pONAjqWKcXUAO0eQ94HpIM7CkOB6JgMJTFKxrr7FwBbXtZnGyqoy7wSmnKgiVZmrrgyZhms2qWPvRIrBc1D5iYseQT4F7TeRVoa5cusFy0c9miCctU6U7HOAYSHVktfQFKYVuLpaOwnelNOVur50BFmfRl4PuiYE1YgoClCANPQrKoXkEFYpb1iS7BzHykJ9+1bLKvn54MyqRwgJSUOUS0qL342tdvJRA7bwxMWRFzRvJ5uQZkSuiM2L6cDMNyLF+9Fg2NTaijh0FzC5Kp2ecw8LqwFEF2gaJHV55wWobFFkFy/8eOHkWu7wjyg71RScYxQULl2zkQzYkYHKnToU4iN7aBM0Loj+CEteLYaVbONudCxX86W0GycQmYpUFIGvZLrYWCFctNFW2ao4MOqnV1IkD9vFBXI90QJgLUuQqmv7HWRh3kVRr3LOoVeY5Nj7TWWi1flcZQR9UBU+mqA6ieMoJ15cKcqZZrfFA/BYXeZb4J9jkVoIMAV153E/7wL//hRGDAafdZZRCqDEKVQTgDGYTffs8NKHBYk7Tg6YJl5rIysEjK6lyUfIZX2gerGEvkhkKL6oKoHgl6AgQgyOLnarlGllrZnotqLk92weY/MDM2e2at9bo2RxVBqOGL+S64Er7rZDBq1nnuK8MQSiDP5miwoyI1CgZlCqK46jkBZSmjoo6Bx+DAgrYfOp2Bh7BY6mrQzIwZoLEO1m2grY1KhUu92iYyuiFWmqWXHPukj50AgSfC6G0XkHUfqtWQGrm0NsRlmiGnXAozY7VzJ4cgw8JrU1tXj8amRjQvaUFjSwvaV65G67IVaF2+as6AwBIHM3WWIRjMCRoIIMg4OFOnOXcywwZ8fkdHB/LD/YiPdCHMZ+VaaVnKAr+xUwy0vB50QNTOFjOsZmA0q2zXYkh4FRlkWWav7IGyCeKxIcBDxbGujKTsgf5b2xTdnBEVL5bPFBHwIIOztFVSXCENUUdTIUVb4waAKeOgbb/OWFlNjNSTQAd5OZMn7lLBS2nYmGhxnFuklWG01VGDvCsl8BPrNA5kK5Q1sxJedB+XLgqP+0r6IPy3qgZhoffyQp5XZRCqDMLpBpLmFCn+3q/ejOz4eJTh6hsomxNgC55mTgyKeQ2C0oanixUzYU5VdJaz2uboBHdqVOQWYMnipOVM66dcBNnmKEFd6vV0U2RHBGv/XOxMuGbzFFShHppoTBdqzayULtYEW8sGEVgoFJDN5mVAk4yzFkqfTo6khuNSMpAFWjwMQi2vsFPCBIdqaKPpm9om67ask0v7mwSj0jmTzLbAyZVspSOLkdCyhJkk6fQ9ZQgIEMR7wQKULP0COFQXIUCBBkBxX0EBB/D4CaO7VWOgfhExMbrKZdnBoC6SMmnTp4bBl/dZ11CPFWvXY+3Z52PVpnOQqambdZ1z7ZxOyEeQwBZLlggIGub74PO7u7rgD3cjPj5owdEp9F32rK2J2imj9wOvg7BN0k7Ia6/3hXYgmBGV1eLVUdOyaNGAqK5E3A8NsIoTp+g71MLZhVN3wZ2hEp8jmpbIbMj8Nay7RD4pos2RG1qYJv2dMz5yx6FAW0Az22rN2VOEowY6ZNqlsScKgNz9XD72WVtfXUeMzKVwgCFyNFVWQxg6fgko1m4GKQKai+Rl19yAT1VFivO9hY9r+ypAqAKEMw4gfOy9t6CQnzCAYO2NDDou2htgECpfmAHma6oLMLI7EhbKAuwFJkjUxVRq69HcBY3gzslQMibpxrN2Rwma9BAoImeWsuqwqBkkkQV/ZrBV0aMzprPRdmZ/6/rKJUxakNeFVQMG9RZsSdQFWg2ZkiJGZDBXcaPzXtCgbt4HkvybTY10ZmiW5var9sw6e0GzeoIffR0NRpoRSzZs2g4pfIigUJ3w3OvJ8RoAEeFisWgqetbENSgJUIurt4LS01KokP1Qp0HgJdfMHCO1cqEBlp4M1C6sWLcRqzaeLZqGVCaDZJpmWKk5ZzE44SNFjyxPsCShwMiU+VOWUr6HI0eOoDA+gljvYXi8x6S1U1kXAUkm+HSB2pWmpJWQ78dEfwrwNPhpRl6aEOk6DdT6WoGTm4uo4It6EvXdcC2CbkCUlKL4nz1XOCTxE1BxYIkBsntCBK36+nqf6e8j9sn5EkSOoA4kiNpXZYjyuVIuwrVk8haL2ChpqzWBr/kvOBDvGCideKkWzG7ctLRgsn3Y7lnnRq2ttB7ecv1NZ8wshmPHjuGee+5ZECgtvw2pvZnN9vu4on8FT+Y9NDY2Ac/LIJ+naREwMeFhYMDDxATQ1aUAs6eHgu/pd9jQEKKmhrqdEE1NIVIpoL2dSRqZMiYkFIbzZxXBTn1s3HgWrr/+FrS3N5ZMPSs49sXcpKpBOH10GHMyCB+64zquTCIclLpmNAxHA4vUOMXzXYOjiqwsKzM62HUeaFs2/QpKo2eFKrYuCL3JtB1NqXYu4jaq2XrVXVugYyckeIoWQLM055LIIJ5gwE0odRxNn5SYrR0DuigqreyFNgPBKGUGCYIFGkBJwDADKL5fghLqLig+k0AuLo5ar44scI1g1gl9Vl5xrW5WgpCzZ2I5XcB1eJQqzK1mbr3z6pinoEvLMyWxoFDgBAFS0qDXgpYkIq99YWOU4RCDK9NlKHVuojlT0KvKX485ysJjHjI1tVjSvgwtS5ehpW0pmlrb0bikFQ3NrdLdMttDF74x+eIi7H7mdwIJ3i+9vb0YHOiHN3AE3jjZB9WquIBaMtrSzhA9z+YuaHMuxGbZjX5m14z19OuxOeGsXncFDzYZ0gy1nG5EUaE+J2pzFO8L6zaw0cylclFpjLmKFS2rNy2jK81p2cFAq5v5YbV/vZyl8pL6NZS3yTrBpH6G3GtEoMEugHPgVD8OvYe0LGifLjfwStwg82b2pWPbnR8Ev7/lhpvwX/568X0QZrpPjkeD8IMf/ACf/vSnce2114pT50IfDEzH8/yZXpfnf2jIw+HDHjo7Y+jtBYaHVWfCBw+5tZUBPUBtbQHNzb4E+XSafzt+UTBfn2BjfJzmXsDoqAKOwUFPfh4e1p9zud1oaurAL/7iw1i7thnLl4dYty7Apk0B2trcmr3Qs1v586oA4QwCCO9/21XITYxbhmv0vQRfzXjdQwkF1QFo8DK7W6cWdzVUESCWRFmyrUzmK03k48Kowjx1mBNhl08bZUcPl1ToOjrSShQSIAPkpaVQM3dSxKk0bX9ZKrCpkUZLS2bJrgHfAo4NlJIygbk+ShA1wxvJgA2MOG97Fb7pxEM3V8FNphTLaWnH0PikvvgWrkzLoVoFZ+Nrk/rKat4ySVBEjGQEaGGsro2RA6G0pWlQd50Gct4YIKwXnx2BWpd2BIe1yElJyNr3KLQ0alyNoHRBYGmHX7xGpLlZipBOiXQG6UwNMrX1aGlfhlXrN2L52g2oa2yyksbMCwKP04kcqWc4fPgwXnzxRUz0HUNs6KiK7CywabeBvn8nAnRDuDTyOVMtJ85TcajrThFRrJwHmnlZBi3GVs6tUql2ZuEiFDSrZA2wZqzkGAB7S5LNm65E7w+9fjwe8fmIbLLNBtrUjeIxYBbN2o5YAgR6/UpiVddJ49oRVflj3YhuXgdHgpuoUt6OAEUto8n1NjTNP4kGQUat0/jLGAf53CiYVDiiZTCyDJdefT3+4PN/V/mqfpxbHg9AeOCBB/C1r30NX/ziF9Ha2rrgI1lMq2UCgpdfjuHll328+GIMBw7EhAngcrBqVYD16wNs2BDKdwbi2lpm+/xcDEn2zgyfX2QCFuNRLCrrwC+CBH4nO+FYCnY2P/TQd/Cv//pFvPe9P0B//zIcPKiApr4+xCWXBHjnO/O49tqiAJcT+agChDMIIHz4zmtlRLNrnRLb5ZC1b4441vq59ulrKipOcBF9K2HGxigr46D10bwsqkKnq0uSLlC2XrpMToKCLWwkAWTBk0SYAj9tL1MKlvV8KhqpSDfVti1049ki+JXN6dyCmpo00umUfFD1fSiFzQWUcx7EvtnobdVBaJ04CkZlcyN0VoOyJUqd8wOtpQhX9nDtlFI+sDHW0q1hkwgtrMl7iXrbhRUxBz4JGmzfVFW+dE8UikgmPaTTZDF4Hoy5oJWzzA/QbgayGqLwZwZRYI1d6W5n8UstRekc6nwNUkRkdPR1qCehsVVSvC7Ipkzksiaq0/KFit5ceAnR3NqKtedeiDWbzsWKDWcjzjZDm2Ux06JCgPDQD36A8YOvwitSEOvspG2olrWv6j2omhMVBbp2PhP1mSCV96O2fuorOiY1ArEECuZoTRApLaNWTtL3y5ZZ6wAoo/PdRE4tF+jOZcojA7V1F7h9iTGYDeOiJkQCs+ka5K4yR0YVz2qZQkBH5DRmLbYOXVpHBV/ajRLXa6fvseS6WQr2glkEN1BArG2Triyj47K1hVRMvyjANTqJx3bxW6/Hx/70b05kHJi07+MBCPfffz++9a1v4e///u+Pa9gSvTc4fnw+DwFjNnhu374Yvv/9OB56KI4XXqDmx0Nzc4jNmwu45poirrqqgLPOmjngn2oNAss0X/jCF3DfffdhxYoVchoIar73PR/f+EYCzzwTx9lnF/HpT+fwjncUBMA4IDufczbXtlWAcAYBhA/cepUEdA382m+vQVFNf5TmtXkLVlPV1jMNvK68IFm5LepOZMeWRmcpTMmiGNYIUFAqXEVbupBpNq6LtmRh3FJmMliZwDKsUAI1xYRCkkctiFwgqV3IZrWNkvuXbI8+CqYcd4r4SKFu9WLNJk1gZmUVF8R4DrQdzfQLzE6lZqwaAN2/nQ8R0dm5cnVjWeVVAW84STNA5+BnbXqaqfJ1NODrcChth6RmQDJgq7Vrh4QCIDfeWOvgJbFjSQ/hFiw9Th1XrOfHDqyUlTrPACtCsLnCdUtosDSHw4T6ZLCFcsmylVi6ej3al69GfXMLausbRfyYLEtD9u/fj4fv/TcU+g5b3V2DXATQTK/B966CU6uLWI3eiSVd2UU7CdSRs3yOgQRSS8M1QBtAsm4FEfWZmZe2iyq8UAMvDdjKOmn9VpkOVw4ybUI0wMscP1lyY63f9if7MBGv3NPyOXFeH2ofrYxE6Z6Y2krqjiNiGVz9wIEnKygIgRB1J/NAFcyo9beCEY7KFn8OA/I6PMzDFdfdhE/8+RfnWssX7e/HAxD+5V/+Reyb//Zv/1ZGkC/0USlAGBvzcPSohyNHPGzbFsNzz/nYu5eAQEsF558f4NJLi7j4YqXnK32cjgCh/Nh37Ijh3/4tjkceoUgc+LVfy+Gmm4pYtmxxyw9VgHAGAYS7brsa2exEtFhKN10kitIgVKJYi0axmvpbsnGl/xkYJUsxVbdqDBQASCBjtIkeXJQJT7WEIe1otijrSFyrwZp1sSi6y+bc05ZZatjSBmZmOC44sLtCMuqSKFGc8CjkKuRk4U8k1QlPDIvMGU/AkQ2GEgMlJ34T9sRoesl01XlRf6fdCAIiRNipzoc8Nu6Dug61r9bXcou5xhI3kbAkEtCuBk0Lpe3UWBvXH+8oai3XKPjRljkjqEWjIaqRspZVVxqybgurs2uHnstiNdBEYsugWDYyWdv1nC+GsjxqFqAwyayREwnUNzShsaUV9Y1NomdYsnQ5WpevkM6FR7/zDQQTI5FgVYJiJIQ1M6NI9qo3ihOYOmbAiQpdjd4V/NXjwolG3XM1UGuQtVTbvBJs1ION8LbM20odzMZdUV+nQSpSEObKNBElVkrZNNcWrNMhTSsi11EZMR3xHYL4V+8Hd1wG8sp0Io4ViOpW9pkpN0ZSnZBjQNw1d+/fPkjmNMoPgwLmkmEUr+Hl196IT33+5GkQOO751VdfrTSWTtru61//OrZu3Yq//uu/Pq4xxbMBhKEh4IUXfLz0ko/XX9eSAe+zNWtCXHRRgLPOCqRez6+FyiBOd4DAk06ijWDoRz/yce+9cXAq9Ic+lMcddxSmFT0u5IJWAcIZBBA+dOd1yOWylolrvVV9+0v2tiKgk1kG2irGBUprnaXhTm7xVibAMjuJ40YTmyhRau5W93fDcpSidmrwUtcAFzJ1dVTVt0YNlzmqNkCW54j1cCN1HLOhLIWbrMcWQE7ok1kMYE0whUw6LaUHliREtCeApqDgQerx8ahuq2UW0t88Lv3Z9alracVldKR8NYjKTArRL5iRkoEbvmH1xnfOPCUTH3cuNdRr2SbPSZrSNmnXQjJXgh4tS3B/tCEWJb716kfnNVLWWzceuxxo+mT7VMMqGyLkzHoE+OlobBeMhN0Qut1obZuWqO2pKtyjk6O6VlLomUA6k5aW0uzoCEIRS7hrZMDQVhgN5iaFlW96b7kuBP2NAzXu96qlEIZBBi8RFNigJ6PylbWh9kARB2+jEm2qe+R9pMyWBlOaL8kkU+pReB7kqbqtsgIlAycpCRibJuCwTEcjjFCZSNW5Y3JXfA41M3T2FEGmW2kNnziCQ8FeqUVSPgWmRVC2QwGKFhvcezMAYufR6R8UEOqWl1x140llEJqbGrBq1dw+HNMFHLbU3nHHHfirv/or1NXN3po7W8CaChC6uz0JhA8/HMfTT/vIZj1s2FDEDTcUcfPNRaxZE4AvR/3AdB0B8w2OZwJAcO+JH58jR2L46lcT+Pa346JN+Iu/yIqY8XgfVYBwBgGED9x2lbT9uVYqSWZM3KR1U6OD7ROi6nADBmUe8uLCbIs1yxP8MDDAJqT/X4upYvvq4ryjaq0rQuhfWdTZt82aKWu6yhxo37ioHWyKXkkoWfLnTyqFLvbOBYSu5lw2WU9pV3W+Ywugzk5wHv8x6V6g94L0jZcYeBH3udqxtidywSZ7QOModUiMOgZEWKaZJH0XyGRQU5FknV9c/VTHwVazyH2RPerOvMnGPKvITYOuUODOJ0HoYpcNqj+DzoGgi6Sq1lUPwTKEsjoSBKPAY/4BUk5S8FFO4TtFvh4bQYNmxEpTOxBnnhA2n8ONxuZ7ZSuitFeyBi7Du3TAEd8f3zMdM9XKWIOwMiDaJaDvWUtajHl6TjX8qb+Bzl/Q0pYxJ2ZopB0Iev84MCEQzllIGzARcCfOmqY/MZpeRH5G0ctrszxmrY30ZRANCu+f6HVVLOmGm6kTqX5WuH8N/KrfcCUltV62yaXWgSEgWYBHaaKkAoYy0CBvSI9XtAZl1swqKyiBK8UJ7ty4kg0PQgGfbh/ismtvxn/685NnlLR8WTv+8R//cUGxhffH2WefjXPOOWfO9tupL8D3y9IAywYHD/ZiaKgNP/6xL1+7d8eEDbjkkiI2by7illsKWLVqcen08uM5kwBC+XH/5Cc+/vAP00ilQnzuc1lcdRU1Ugu6lPKkKkA4fc7BnG2Od739KmQn6IOggjcu6K40IEuNiXTcIueyFK1im8rcgrCYsogNM5+nAUVd8CSiKlVrdXKX/ejCXqbOtoxLX0eDhwYqzXC5aFNIyeDO50m2ysyZrysLsgZweZjyvBRQjW12tVvRFai/g7ZVqsGQ80NgJwczYQ1W6ksgWbUxJKWJl8oRq7JctRMR62JDoKT2T7GT0wBY4FeRptWtJUh40kHC13XtpZNMoKwOrYBBR3Frtm3GS66zQe0jlRZ3VsXaqxnR4nyS1vKj/NX6/W3ipRtuFbkPWllBRJLOAtsyXAGIpUmEsjC7yZnG8Gvvv14XOS6LeyXHQr3eTqyowUz1Bs7OOrovCKpcqcOVs6aATwcWNHbrNXIOn3LOTKCoabXeWy4jV+2n3ihWjSlrPyzZIeuxaoknuu+sS8OB6eg9WcnIKUDk3JtmwJXxlA0xbY4TUDobcrHiVrbDMQbuGHleovZLYxz0Q2AFECu3OBPmS6++EZ/4v05eieF4NAjzCUX8jPX1eejqUg1BR0dMgMC2bR56eopiwEZm4NxzA1x8seoIqCs4EWK8qcd9qgECxZ6f+9zncO+992L16tXzOa1yTv/hH5J45BFfyg133ZXH6tULYxPmAxDYfUEmg9eyt9fDyIgH/o4Cyrq6EC0tIVasCLF69fxKP3SIrc5iqGAWw69uvkKHNJnpjqjgrUVMqWql9CVLpI5AggxpWGcy5OhMGypj2Yv2okMyxvJOBgZxyRItaEVaOZctGz3uSh3SbuhKyKYaV5Chg5BowKPGSzrbgOyDqsk103TiPfFbEM0CM0H1IrBCugQH1RFYn71l7zxEWeSt3CBdChI4LOsOyFbkZV9kPAgKNOvU4ByzLFKBlu3bsmx2XShl72sJxGW/BkZ47tLpBGrSCaSEDaDM0y35pXkCSn9rpBVNhjAyqhuR82QATNs2nZWvAQURctpUQhPoiW12xAzYhEVR3yuAUkZJBxxpqYhCSmVhZJiWteVpENOz7FowxcjJgAwZCQnazi/ArKbVvlvfU8lzQul/QgpX/3flFyVXFHBMwoRyee2MGV/vygQuy9ZkW0s78qO7Kxxtb9UfuVfLNA7K3Ou5tSdOslh2ToyayeubIfchQuAycy/dr3XVmLjRldqc7iVqc7SSDwGCzjFhKzJLYAQNZe0OTvcjZSBX4nB4QkESX+Pya2/C7//FmQ8QKCZkd8GBA54Agb17fXR2eujv95BMavA455wAF15YRE1NH845pwnLlgXiQ3CyH6caIDz55JP42Mc+hrvvvhtnnXXWvN8+WZgnn4zhC19Iyvn75CdzUo4p64avaJ+VAAReU4IRshfUg9Djob09kJZMCijzeQ/UjRC48H7mdSaz8fa3FwT8zfWoAgR6d4zgF3/xPXjkRw9POl3e4NBI8uzOlQAAIABJREFUBP0+fMfVGB8b00XWAqqK2a2mS7qXo2RNYa4BW50WCR4cFZ4v5OT5UebrFnmpKYSIiaWstlxZMUIyZ/d857lQ6oe3JVv613WxK9KSWeYWuK4HBQJipsQJeyYCYNCjvoAAJ1qsqZvggio1aqg5UlH1FGI4ZFlXFAitJFLSAyiLQMqevgsEBOVufIV8XoJ4OskWy7jS0WWT+qKOSheIzDVShvaIw2NBMm7VXfjm9cBWukBKH3W1SdRmkkjI+TBWJVKzuyxXKW7uQxwjrfUxos6NnhbnPXMT5HETgAnAsaFWWuIp+WA4Svv/Z+9NoC0rq2vhdftbNAKCAmKDiERRTBAQlBIEsVdEUYz6HDFGxf+RGAEV88z/gNCIxLy8py/qiw4DMckwaLDXQAR/9dmgAoLS9xRU0VZftzm3+8fs9j6FQFXBvQXEcxzXKureu8/e397nW2vNNdecbJtMSTExBMfA8BidDJcBp5VxTRJEg77bc4N2zZbqxnlMdmBxLTVJ3XWhR4TdMabHNoXuMydrfBwF3MDnrv6bUtBJRUPcbP0WuhUcSbZ0Qqw8wW0NklbV9lKLJJLOLa8gktkcBbUoU5ISiRLpviKZjhhX+BlC1fCGnjCw8RY+P3SN5BpHmEv3HO0FJoD2AWGi25iegX8SRUnlZk7PmqQu9wGfsee/6OD6wGnz7+aIe/SVL3+5fvjDH9T//rtPNxvPw0UQUDVefz20Bwbr17/ur9/8Rl9r16pVNjo6V3vsMVv77TfTfIF9rzFk7BdQKtz0MccNBZpN+f4jnSD87Gc/q6OPPrrOOecctmseygtrPT5edfLJw/Uv/zLMkcg///POJh3qwRIETI184hPDHCeFMuSb3zxdb3jDFHUaMPGdBDvPMj66mL74+teH6txzB+u22/rrwAOn64QTOnXAAVCwvf9T+11PEKDdcdxxI/WrX43XUUctqo+f2alttjGPaf0E4UBW4amQtDmjHaCeJSvGWScDYUOz1tKm1RZqqb4VwFXFm4CFnrFJY2Lzu7LvEqppeqeWcW76zK7rGjjZOgDSAkBLQIkMWwHwduDEQpfxT9dooMhkqnINCgtCNvSrcbfWfVLxQgmOiAcSeEprBf+ewKg2SNohkWa2+A9/VSOJ3LjTlFeobwlyQBeY6Fh7wSOWSHQi/DOMCQy2IWQxrB64phmExlgEyRLRjYaDrYcJhZtcyp60NRU4WkkEAsqS0zwWEzpOYqiFIwKg0BDZeLcBPZbFDFjmNyTZM0zAP6QF4JZSw2kQqkQ+RazCkeC4Z09SHxIW3D96cYrL4XBu1URzOowkqIUVieK2DaAWvDks6g24VaEsRu0cXSdbNGLWmGzoBM73sHs8Ec8QdSk4oeB74mNpM4spldAifq5smd4QdP24ET0xomDwwgFfWXdGcsGN0XOlRKbVOxWHJgl/Jl3InzH5c+8XvqTev4Bjju87+uj6bBfnAAnC9ddf/6CBBPwgKP7de29/LV8+VFdeOVC/+MVALV2qsUMQg0dHZ2r77afrGc+QCuBuu6ldgApyQ6JD8ymUtEkR0T+MZwD26tttt91D+fWH/Ts///nP60//9E/rn//5nx8SgtB9AtCA+OpXB+uzn92itt++r447bqL22qtTW2+94eod4mnYB7bYYgtywpYtQ7I3Ul/60lBdcUVf/d7vdeqNb+zUq141vUmiTRCG+vGPB+qLXxyq664bqV13rXrb2zr1vOdN1s47I8FoWyIgvqLFgK+H8oIwFSSxly8frJtuGuIEDBAsoFdohXRLZaMVAn2vJz1ptvbcU62txz1uTW233XTtssuo9u4FfmGd162TeBbQmLe+daCuvfbWqpqqvr4n1fve9/g67fQOE+n1EIR3vu7A6kx0GGzDssZmjEAU8SJCw6QQiDSoTUZf6YeqEldFJL6C7I7xL9FYSOdUGy7pVtY/aPvg2vf1PoCbQfbShhn+Qne/XGjGLN7T2giqMEUUw3HYUrAscXgPkihux9lkLJWZevequVl75LAJRg70UZP0ps/gAGc+Q768Al4sZIMhGNVC40JDuj9EpqMhcfJ0R9j0/NO8Bqca1ZmernXr1hrNGKyR4WEmRxqpFNGSEwl2IOoeb0t/29FP5+dUXClTS6ij/4MNp9istyw2kgUSSBvRSwcpyjurtaLzt+mUWxIZKc3nIATMBE713UWClPw2zqXlVoh8KiMq/I6Sz7aV1LYcdD5KGuUEmcSvaXtYO8CNA5faEWXSGaodkb6Fz7pBI7RQadvovWXklcS2+3w0htkej9cGlMXGS2oJtaTUlmh437aEz0g9jmZLYXLqxESfPUtBN1wEVwZOPJDE7IsWw6kLp6R43wQBY45XXXXVb22DOF9AyEEFrr56oJYtG6pttx2upzylj0qET3saWgWQA56q7bZDEFJBs6kvmIw9HCXGTX2/+/48giIMyx6pBOEXv/hFfeADH6izzjrrYScITM7nqm6+eYv6ylcW1YUXVu2xx1i95jVQY5x+0BYOEISxsbm67rqtSRa96KLhGhhYVIsXz9Yhh3Rqjz3WUXXy4byuuWar+sEPRuqCC/przZpxHvflL5+uvfbSZNZDSRBwvUgAoIuBryuuGKixsZHaaafB2n13jMTO1o47ztX228sTIy+obqLlhUT35pvBiYH89Tif5T/4gznyYJ73vBn+7nxMy+B9QcxFmwZfUMxcsqSfvBwIYy1fPldXXvnXVfXlqhqrqv3roINOq3/84q4U/lovQXjPG19cUx308YUA4O+TnUnDuCL9QdVQrG88FfITwLw4FAChwBfiIUcjzTnA9wIvazO1ABKrNnk+hImuakmIAzZZQcn2vPemprn/sM/1cEbyeK4AtYqAyKSEqEAmLUJ8a6ldgao1KQHFIbs1JkCx0pJgj0CFwNNqSyjmYfdVNZ6qOCJ5gssxN9xXI/B0gNMlF08JkeD8+AQ4kSDWrTBNRKOr5ZEJjxlAzzOzNJqSol+4AcpIKNw00Fcjw4O1aNEIv1j54/yd2HGGQCo9PCccA6gB0QBrYITjEda7RlM1qYHEAdMS1HkYGmICp+peiVwmTcQ7UKDC2CCDoNsuCm8K/ngvkEIjBKXWiESi+FPN+KOmGMBdwDlMTSOBsftmfz9HPIFaibipFhj79IPAA0LW9Cgnl1foTSDLVNlBl7QBthMDLVrQCiop0Uq20SJqeV7ivZBkg88UybZKWnBP8JXZwwT3RuTIaFjzOWmIuGqrpMWVxJdukHQhDdFBz3V0MWRUJr4O7J4/fObCtBi+9x/n1xkfP6M+dvoZtf8BB/D97ttiuOmmPgrynH/+YN1wA/YKyf0edJBaBNtuWwVjIvSc52vT7LUYflbveMc76oQTTqhddtnl4cTf9X4XaAK0I77znUEGUGhHIBgjucOIaLp+AFBBMrzhhtn6wQ8GasmSYe4BGKF8wQtmiAINYKR9nl7gKSAoIphjnBXabfvuq4mVkREkISp2NvTC1ghk62c/G6yLLgK6hdanzvu5z50pAEJ4VjHl8WAvXCu8MZAw3HHHbF18MZATIRggWyJRQHIFqB8kzE19YUwXicjll/fXpZcOMBkYG1NYAVACLY9ddpmtycmb6pxz/rKqWv2jV7zyz+qf/uk0/tx6CcJ737C4OpMdBRhzCqQbIMdDJAz43ijgmBHI6koch5ByDZAsggQCVUwCjQhy8i+QW7MqukwCSClRH/z0feVH4MDf38/KGEGIx5ybqUGP3KkylOuiNnEEg8Dr+IfA4ApDfE8eA5W8LHWR9ODf2KM3Ux/VP0N4WiEOTE0gtxojzjGGQc1IIANNt9GS1odQPdwToYOAO54kideO4KW+vd7DgdxVfXrtSRQUrC0g5SCP90A7AtoOU1NIHjxFYf0FymVj1n4ISIMkooNstEFMyY7EmOJGqYQtiALvS4SEnCQAXcD1Se7ZTpX2cVC/3oqQ0Skw5E/EABoM1HCQhDK7WLSt1gSJxhAthEXxqLSTrHjpdg6eIbQhkLAgYQrhMS0EER2FYAFhCUlQa6rkCtcZMzFJGDhJM6GTng8ZEc2opHkSuUdR4sy0QjPu2+UYqQ97Rls9lYPpEKJf9ohoWmAhZabtI/nyRkgrLpgm47YjlkFgxNEREVjIhc5NCRFemGJ4/8mbT0lxlyc9ub70pdtJPENigKQA1Qo22SOOmK5DD900OHlTN0/8/O96goAWz6GHHmqF3BaBeihruaHf0T6pLwOwXXyQIFoLew4PdI7xq0BnXSi4PveJR43qLcn0CtYInJtKxnzwZOH+1yCy3vLTWH990orIOef4OEckLPnaUEKN+AUORvfr8MNfX2f/4xc1MdjNQfjTtxzKFgMyeAVcw51dECp0BUCyQs/TIwgKtINQGVTwqD71Z/VCJdcyp1FdcuwvwY/KiYJUESwU/LyRgaCHEcaZaSoeYqOLrgIDkWWNSThMpW9EIrBz0BCeiUWYpAYIBMAmUR6bTGBv4Ha3MtIOYSWaMUsy/LvRXYPUDp6RtE1VKXvhVumR5xOHwa6ZOBE+VfG23w//wVoBWU7SDAThp7ct4SI8UEIYUCXGzpqiPqgqLbK0aHSE2hQaNVSikmRA1WYTyprkKYmWkBIF7PBT5qwcyKkEJoJOGEAsTADztYaQKoRcXBRVzRk1lUpl2kxBr8TvMH/B95FeA10S1Gxugb9gIqs4Evb2cFTE+0rkCDoUOmbbdmnbG1ivfE8JlZsy/DOjkt1EQAlNdCcIDbpgVCpS2kSIDDwwKfc9VyatJLmbs9EGdyUY+nzKGlpJurCQ7vFQbXieBAkXgSJOkZHu4xTDn5+8+XQQHr/dM+uAA5awVfDc586ykkPFhMprc71+1xMErDNcVWHPvvXWWy/osiPAgVsA7ggqZiADUMkGcXTbbceqv18chEfiBbj9Rz+arssuG66lS4fovInPHUiRCtAoVKq23x7KmXOU1d5771lOv8zXq5uH0X1MrNXVV6PlBo6A+AxAL8AdSIKCEIZkANwGWH7jM4UWx+/93gzPF6hbw9W+nxNeunRpvf3tb69bbrmF34XD6ekfO6Pe9a4/UbK0XoLwhy8tMNlp9OLxOCUK0o2XH4ASAQYhOiqGYZ0WhOHlkPzcS88oHJngjfWuzpjVbOMIKUKa1JiRENgWmSOVVt7zPjI4IHMgNazpT0eYG9B6NtcY7ETumZul7Z8lDS1EI71+Qb5Rf2xhfkG7Fq1JT9oRg//uHriY9BFvajf5VP2svu3oKB6HMtf025FsubvQpQqYSQ1U4/YGaFri7ZijDqbl4D1y2wGBFpMdmmRopavxd7xfjLiSlUohsFV2bGHxLr+D9Vot5hkgsTTvg60nr6/QEloQuv0hlKFJRhoKiNoIZuHx2ci4JhKetG2SeCTIsf/vdEbXZ/IjiYZaTx4nltAWXkICgZ+NjHKktsVTcLBtUHo/dE17RucZv4wgFTwPu042CE3DM2krhbQ00K4RMbZNyJx6tB/nKIt6akX3Q8mDcwn/l1pGHJO1ZkO3pkd8IdhQYhtKrbZ9XvyS+tDpn5qv/W6Dx3nyLrvUz39+GzUHMKb2SLx6CQLGA6coVPQ4aCg/Qq+NGXNc6FNDBd3fP1wrVy6q5cslpAX4H6OxaEUgccWzyp78AgAdG7MGCLNoE+AL9t04R+xrmNjBZwgJAs4PedamnuOFF15IAzRYqZ940l/VUUcd1SSN6yUIR7/xYPvUa4NMpQMIHqhANkRuQB7nUsUnaBTyxUguANOiGhoaHuaf2NmBPMTWOZs5Id2BASYleMnaGIfWHH/VgODUaREncU7xN4D20lQH7Q8EOcDGIjNi1cDo57GU3fAY2PRHF41IMwF6BanSHfR5nhD04aifERS8H9oYhOMBc+P9kCi1QZ1JjOf3VcVqq8fhaKyUstPBu52sUJsgVWHeM0GR/WlKS3u00xUi9QD6FdjjpikYuwlpLRciyojJGtKOoNqiZKYFx6OPFmdKBNRIK4sYGmRBwlNAf9RaUWsonxgFHVwH+RB4ZlwBi0chPQZC8WkxzcxUPwmVGjnt7vOr6hXBNI6NDHa4Bw2hT/oJmRph0qHa2yqFEtDSHdH0Dd1BnYSgDYPrxz2XQ6e9REj0VCtIyp+znJeIb0JQEyR4aEe1+iBALtwCaTQO2gqe1Bi+hxAftciQ5DopymSHbmar/MiLUjLZPBcN6pXts50fNVBqcqflxRtDsHz6JE+ORPAFBx9SJ3x8/jkID7SxP9wxx/kIGL0EoZcg5Dn6XR9zxB6KqR4kBt+74PuMLXmtlyC8/ZUH1OzMFAmAtDEeGFJg5t4kDXv2prkpG2XApseZdbkpUp9gZrqmZuBhICIh9r/hYZQKmgVnxY6hCugFuIwB0Uw9ejAy1JcVW15QKDbeTkcjMQjQTBTmHBDY38XoCs4ZSYXQjnAMJPYj7j9Y26MjIOyZcR9o1nEOQTAqimKmK4gqYMGTYUjkuxA5ce3Q0h8c5vdVvWnkkrPoFvlpTJosTqNkS7PsDUQfb4JUf76uJFIhq2MNkkjJ10E95kYyWMVlY6mNc0nyFIgB1bQ8I4ACqfVBDkDMqBrFPoY1aw4kYKcV0aozJuimRRJRpm6OBotrt65MS2AikYof1yKikAS6Gu6FZZWjoKnEQdoEtMpOksqEJH3Edsw0xFG1TUAGdLvJQl1BGISI+ctjqExQIFPtxA+TOfQfAcrCZ7S/0FpRrqd70NcfpKslxTY3w2fIJkKUEmOKtl7D0C2r5meU9DhLsAqkRbiiwBl5aCNYyjvkOaFcubWAxpqJ2Dpb+x98WH30f3xmPuLuRh2jlyAo+cOY4+Mf//iNWrOF+KEegqBV/V1PELIGG5RafusrXlRTmFqwgp2IfJoYAGwv6ELOheACpLcpSwDD2xSUMWPdGxAJYDAQYrWl5ACBGKIxsXMmi5tVtvrRrKDmFGRxDqq2VS0GPheB0kqIHjsTi7vVOEiQUVCVwmM7CogkQ9ej5KE1h0qgUy9YP4PggaCqDMsMdAghmW/RrZnPajna/65ywfSP4RETo2z4rizT10+bIrC8ZJt1/eFJsBVCNEETJWGxIymjSJHJfSQOih1afUSBPMfPCYkQDjVmp6THGhaNa6UCrQIafqYV89GaSbyIfXzH57QAMr+vfKVVduSPNVLLzma6WwSu+qMcKA8GKzQaJdBaeNvk9UkkJy0JoTwiapJc6OkFh0opC9rZka0OJoytNkODUkSnIAmYTbx4jZSIFqE3NtGE9s3nQBIRdmfTgjDhsTWKCpGl5bA411gffVKIbzgJvDYYiRgBy1qxddGohna3xPL7xljCAUKLYfEh9aEzNl+LoZcg9BKEJDwbA68vRHLUfcxegqAkaYMJwjted3BN0+QH1b9Z/9NTrJaCKijAhUQlMpo2fI2Kpd1KNrrhZmPN3CsFz6ICGyDRUQrDCvoYR9RYl46H86BQk6sfzdwL4obNMzbiEA253RtSxzFopes+Oo+V/rvhbynzxYIZP6tEBO0RvHQe7YRFU405Kik5ab0jBgYgIKSgr8LNpk2WFAYHACgIzZnM8E+QCzrBQIzkysGT2hMWLAo0T9TBmgsSW5LdNgKFphNtjORkiBLXvC78iESvyAlodCuUYER7QImeCDqsMpkUiReCNVF4UULCc7LdtFQpESx1/ZTrBuJiFcam/w3DrZAGE9/5ALXTJ5ndV5IY4p2SFCVCuCarGTaB3uLIjUwle1Wc5pDLJa2VRCy14FHuFf+lu3rvMrMiusH7LNVCJhGUF7fgEp97rLnFm3gzFYyzDrqvYepayMokR3E2ujwx9Glqxk+7+RhJbvLcpE2BJC0JSMaC02YQ+tfKjAvlCCqkFs2+i19ax3+slyAsdCDqPn4PQdBq9BKER88abDBBOOrlBxAZGCYXADK9YMFrhI3w/8AAR+TYi2Xgid0wNmFIWRoitk0wHgDKIsPalyx+TQ6oIkWA75fujitEsdkVFDXOpoqXUrTeOAmdu2IXUhBkozgup+21ryY7HfW1lV1wHBJJBRIHVMJT05M1PdVhFTo0NFyjI4vsAInkSHwIuC62DpI6tpIhB2XLFcuCWeN17Cvb0llVK9oOqNr1u53JSa4rRIyIzvBPED+BYjCkCGY3Uz9jcqr8BQnnHDTTjmuJXbMslqOtQOdFaDCgxeOxRrRYElyz1pHSZi9fy9WO/jX3xMqOJjtyrHJG+gPqZXdpYOD6up8Vu1ay6nZSpttiwqQhcHEdogER7QE8C+tbOGtsKtLHsRRPYqZ1FiKCR8uwv/0pxGOQ02MDQNhiuZsqyMQg3gw0ibJyob06cAxA9FO0gta5CCmTuZYQN71HIwbWZWqlKZy4ZPKT4oUPMqKzU7IUsmsScU8wJDH3+CUbHvY1SYsnnxWnCcFpeGx9Xvvr+QceUsf+JzRrerCA3+Mg9DgIeT56CMJGIghvfdWLanJinBUeYfihQY9SYfIgPVH38iHEY0FsEbUyqhbpWBGtEJBkCY1qXIRGzLz39+PY2hPBP0AiEa39bGpN79jkumzoziqaPrVm+j09IOYCN0KOYxre58MgnNwjfZJrbfr/TaXqCo9V4QC1A5KgZOIhm3b8ClRZ6+xSHceRL1MRuV79rPkcTICEdqiARSAaZFCQwZQslsMfkJ6AAxyCJOB+0j8s8ASkxAREnE7jjEhPBgcPlp1hulp/waN83RC21snhzciMeBNCG6aMKCA56dhNcwaTBkGHeM+QbGJKYqhRkIRDKAMo3jMBkHLYMqxqOQwKaWrv2Brc3IyMRLJd1UxIKMtALimHTScKXCf37rsraVstN+TQJlsQAJDQLlKkxiSZl9Il1CJdRhM4ZkguhLQYkjCQZhtX0RhgeeyQ72AzLCFOXaOI1l9o2jB+tnStLbG1DYDxoXAryYmDQR1/zkJOzCx6nCKrXnDwS+tDZ/zdg8XTef1er8XQazHkgeohCI8hBOHIQ/eVNXOXahwrYiYDYn8LWnYVy8CPinSIlWv3DDbgfcKqhKEVnLKZpz8cWJTVly2hG1e7OAU28rwZH9Rumn5x4HxWwXYQDM+BxDtv9tiA2fKg82SSBHEaus9Npb42UyALICVC9S8W1WC3ZwxSHIN272SS494/1igcCfIfOLKpsxH/QK0anDdHF81kJ9egqahb/wryJPpwfCv+meUXSWapRoqEp+rckwbuNQPdwKWJMwCUYUg8Eledin3iaJCLEWKqbaJFbmzYbm1lSzg87Qi1JHJ/xejHeocgiqRziMJX+FKF7dRqToG4NcwSf0AjofFWbNdayWXQI/td+N6JA+EKPG0KjwiG6JfnB/dIVJBuK3GjVHxOwgu8jz20jbCgEtpU+hz/NRIAQq9dQYk2UDNCAV7tCJEflcTliVPCirck9yYtK3ctWplorYO0HcSBSIIa7ZIgEg3yEQTEbb2M/WIdILX8wV6CMK9J0IYO1msxaIV6CcKjZw022GJ47YG/XzMzciIMQRGbFfv3FKPpq8FhVIAakVIQ0mQCrYI9ekfkwGOEYnp7D2a7QcREQaGaWUfgY5KAQMyA43564tGMqtkEc8HvgV+lq0BVx5j/kEynY+H9GQSqamRYro5TUxqbbKHfdmwQExhywlMrgsGJLHpdk8YO50jKk7Ng2/7Q+8R1jymAuBTsuWtaQFr7jjpNNYn3x2go/M0n+KU2xZA1G9prj3APHQ5twkSTp6gb5pw5fqlzx4tjfGbES/Y6FbcSBgUcJX6ZAEG1zxaOCZxCUsRx4B3tGgeVKRab6RIYcXsD70mlRCYjrfgTro3HN6kOVuBsW5E6oAQOJkxNG8SulEJXbDREvoZIiEzrulw3Yw8tZKtVvMSpR4NBvE89e0A/ZHIUPoD+bMYvM1Fi1c9GVdGoCh5dPZNYa8l9i0TaJgC493DpFBEUaAMWW/eWnJlBWZcraVFyoikVh39ajkcgzEJlaQkxgQtK5n6WRiuUjMqxSe0KZacEnnAvn3/gS+q4BXBzfKAg2UMQeghCD0FoPx2PliRpgwnC6170+/Re4MY92BrbgMCHQIfgCW17EtBQiQ6pCtQ+qyoP1bamHkAoVH0IUl7r4Ijg0aGPg2IXNuZYBiMgDTcbbcSaOKlA+WFVyKp6YYWrqk79XwR2cCL03+AbCMNWcqEJCaUq8g0Yspb/dE1OCkImJ4ARSolBA9F7bp7Q+hTsTGdr0RZ23gJqQKdDKBIqGJA/gXVKtd/0RlzZY6xwDi5fcUGU6p/GR0WexHFokjQzU6OjsI3ub0iYQ8ODbH0oOUlUCDSeiQNVlyJumoSXGEILYSkgKhhFvVEy2Th3cDhwvZF/xprhvgqdkI+EWhBSJAwKEkJj2hEwlNLUicYRdQ8zgin9BfI0rMg4OCRJaJEbDfSbJBhkpZ0ISBKmc4ndtACBtuW0PvgR6/IAB+3siZAPtTTm5kBsnKbAVLg1RH7SF0vaG7VI82o6nZmy0rOeOyY5rR9EPCKYUHASAf4UeK7gfaL3kry0UAVSfxsCrd5fYEC75vGXCPREs7KQH53AOJerPk6ByAUTMulIxDDF8OEegrChon9ev99DELoQhJmZ2hIj77/8ZQ2de271X3ddzQ0P19wzn1lThx9es3vvXXMwOWjGlub1VvTGHD3qucEE4S0v3a8mJiYVcFEgWi2PxkhoLzg5YAXJXVjBlpuV7WOpyW8CVERdwugeiiY8NAJYBaKKgv4BNioTF1Fdx8uAm3HaCd1mOelPC1ZXiRSCFoKtyIIscjNqaNU59aNFWozngnno5CxocsJVVwK7IWi9kebRKc40BCnoSf4rnQ0hEEWmfJQRTSZjgFDwkeKiGP/qa2e8UMqD1CZAIkazq9aJsQnG1npIz1rGQlr/tDc4ameEoPnTuguZVuC/m3CXKh3vLQSkHRNFkpLRRhlatYmBvBc0/cHqH9UtuQVm/UeG2QiQ0Ak9OqmilRTVlK+mAAAgAElEQVSlp6/zjlkS/6SLp/QtlHxZYMr5X4JoKuWmReN7GAVMIf/rE/4aRmaTdjYZlJQ56YMkyWfKc5sEy/sL1KbhFeR+i2QJBEyaChHD0t6WUUStrz5T4lnoqWILzN4U9NIwKqQn1q2JGHtR9lvPGnJa5S7dkxPi0jSEXjfblMy3SSSSBLQYTjjz0/O76z7I0XoIQg9BaBCEFSuq/wc/qG3PPrv6Vq6smX33rbnddgMMV/033FD9v/lNzW27bU39l/9S04cdBsnAeX9ON5Wk2Ld2bfXdfjvkDPXB22abmn3yk6V5/BBejxkE4Z2v2b/G1k1qY0IAA+veVr8qWzTWxioXxETwCqwvwDFIqxdiQ4UwEvr9CNasoOaQTLgy5BRAO/olgxnBoKysOWvv6rAfKnsQP5IrYlCE9HPVmhCUOjDkAEUoVQZJAhHUvkjPmyBrY4UrK2nZMwPpaOVqExAkzfzbhDguScbjCP+qOsPaoAJWsiCSoetmzd5b+bDpwXMdI4Es9ALX2unAF0NrIca7zLDQKkGgloRyx31tsdKHh6G1AGTBLZacn+Fm0diUHKid49aOxYjapMUtmPhxuB0CREEjoEiSMNFit8skQEieBmW0NDhokiE5HOFZeFLF7Sm2NQx9i4Cn1kc0IfBe9CjwRABJnSDQ4jojEBSCqCvnIEtCTtQuUquhbUOt9zkm7O4wHGEioFZBB5gAxalTaBMTz2bwQBbPOE+1ZVoLcX2W9LxJ6hlkXT3b4rLAzjqjnArwPHYzASQHzAg4cdTSvw9dEa6zfUEi5x0eR+sVot/Iv7doC1odfbXviw+pD3/8kSEp9t19NyvGvmXLGCAQGOpxj6vZJz6x5nbdtWaf/nRtwvP8uu8UQ9+KFVWrV1cfNn3saTCwwX2AlSQeBFS0W2+tSvah2Ovd5/x7CAKrhOr/h3+ooc99rube+MaafsMbdL+zvkAVbrqpBv/932vorLNq+uUvr86xx9bcjjvO69OwsQkCnpHBr3ylBr/3PSYIfZOT4sNttVXN7r57Tb/mNTVz2GE1t+WWm3R+j50E4XUvrM4EZIlluUqdgrk59sRhL4yAxC/OlKtqlhQxgpKSBSxYa2GsXrVyC40uIuAxkNGuWRVQw5i3YU5+BgFIFaYIkPR9cNUme99YHKutQGMnyOJi43QAQfBnBdyQHtt59AaGJVKQPi8Cng2lrNuAhAXcjLQ3JPusqlHvKZfGocFhJxizNQwHyuj4k0Aph7CGBCgwgjA2EQlXlDwTk/e41hZnAtkv9sp4b6w93kPJhgJPxKBGR4aJ7GjtrUYZQSUndEhsxDU1QmN9iszNS8lQio0yA9LxBUwI/YgMMs4LSSDeExMLMqbCcwSt8BF7bTjlY9tD3AI+Z07eqEBJ4p/aEGxpTcOOdLImOzj+HK8X143nsW9utrbaaosaHR2Vg6SVMcn3MFKT8UBV0cS1miRBvBJzKbo+ziTvGXWS/LLIoRzltJCW8aWWLJspBmpsCCXC+Cp5BR7RjQxCzoRJIK218S9KmvR/nlTJSCT5PhJ6iqU3EgbwOjBJonXsq2EiWpq44XVbqItr41aXjM5ABEWiabJsH8YcD60Pnr75EoQ9dnpi3XziiTX41a/WwG9+U314fsBpgqogEMl77qk+tLjwjD7ucTX9spcxeMwceujDs9EbG6v+a66pgSuuqIlLLqmtkJTcdFP1w6jGrSPe2+42UmBtkjsF1eCcZp/61Jp7ylNqdtdda+7pT6+ZPfaoud131zVsxKuXIFQNnnNOjfy//29NnnxyTR955AMnXkjWr722Fv3Jn9TcU59a45///LwiCRuTIAxcemmNHH00E8ept7+9pt74xqqnPa1gjNB/+eU19C//UoPnn89EYeLTn67Z3/u9jXgK9CPzniCMjdXAL35R/ddeW32rV9fck59cM899bs3usccDrvFGCSX90WsObOB59aelligVPAVCkqtY0Wj+m3PfQA7MS0BlqlE+SB3DPVDbMDZ8tSP6a8qVsebFBY2rv6S+P+BZVNQkz3Ux80MpD5yqz7E2Vfyhnr7Or2G/MzvRJipSod5Km2jU9OyyKBzYuYQV8swkj4qgpgnyvkpyeB7e6HGNQiGkawAimESZWBua8Il/Q0Khap+XTpKldAtQhWraQZu4EivbRtPTwus/jXFUJUNcW0oUA3mY5CZHgSQTR/U+IM3Fi6ChrzUMeKk1OmkhQz6ERC1aWiBZa7kkzjBojy4alS14Z1IBa1icBehohLcCLoq4KTqXtpWh99SooKS9kTywnjbpj2THqamahNvoLDgQQChaV1B4Rkge3JbZ5DC0kt0iKgry92U243+JAWq78Gnymtix0tMYjShYU5rnGZF4VzgQUyA8IoHlhIqSF2pPuD2jc/A4cPgSbgEE/dCnLnoPmrQIuTJ3DiCQPpMhwEoRlHHM69vSFJ0smpyoNpQSvv0OPqw+cuZnN3pDe7g/uNd229QNBxxQs897Xs0ceGDN/P7v19yTntRuXkhi7723+q+/nhvdwE9/Wv033lhzSNgWL67pQw7hpoc+9XqwLn4P1oGTk9V3110M/KhA+5Yu1RcQipERVniTW25ZQ7vvXrM776xjbbcdgzurPycBsMzrg3sPWjfj4wwOTF5WrKi+O+7QMfEn/n18HDs97PBq9glPqLmddhICgvd4ylOYVNSWW+r4W2xRM4sW1co1a343pZanp2vwu9+tkWOOqVUf/nBN/dEf1aKNcJREwBv5i78gysMgvOuu88JLeLAEAfd66AtfqKH/839q+vWvr86f/zmfl996oZC9+uoa/uQna+DCC2v67W+vzrveVXO77LLBc3zYCQKez9tuqwFwOL7yler/9a/5jM3BuQmxtdPhMzo3OsoWzvQRR9Tss54lJMZaRhuVILzzdYtrarLTjOHNeQxOiKaCj6oYwKUSJqLSnicCKCVsfXqmBeQyoGqZ4maNIIKfiVskk47Z6AAkmHl00v1Zv7U9AsBdQNIhWJbiTOY+eKKSwV0VtSBhzOlP0MJ6ummPIHiBCKeqXomJnA4VEET6MvudY5FmpDcM9wj8OBlyktDAxq6Aw/ZXL12KhmkvNNLUdpNsuATu6QcZaFj17ns3rphdVSt9MPziNEl/OzkhQqDQACZkvEci9AVCJyJBLQtVTypm20kHTF2kLUMEh+8nFCHTCvqttE9QRSNJGFbS0qhYiqxHkSiqYkr2uq2y5XsBHw+OAbLKFwyjloPubbQecG/xImG1ywiK7R0EyYF+jlOq7RKtDi1UNAU0uaH2Qo7B5MRVeAK8FCijIKkEQAJY4sE0CY/HXEOMzARFJlyYpDFRa3CIcC8DsXRxsVp2a+M3EU0HZZU+loEHIl5JJD2+6Q+QKuPmLRr0Dv/0goNeWh/5683IQXjyk+q2q68mNLtRL7QKsQH+6lfVf9llRAAKLQAreeYYTOBiNLPNNjW3ww41u8MONYd2xY476k8E7x13rDsnJ+uJT3ziRr39g/4QbvDq1dV/770FK8D+u+8utE34heThrruUZEzJIA6bNM5jdscda2zrrWsUCASSFJwbvpBILEBL5f6u4RHxYkDh8oMf1OgJJ7ASX/XHf0z0aGPtnpEojpx0Eryqa/Kkk2p23303GIA3dJMfKEFAkjp82mk1cNVV1Tn66Jp+7Ws3zDPodNiCQFKB5LXzp39aM4sXP+gpPJwEAc/Z4Le+VUPnnMN1nDnooJrZZx+iBXj+aUeJ5/O224SeXXJJDfzsZ2yXzbzsZTUF5GaLLapz4YV15okn1ke//V0lNX6tZ9b0niMPqilk35mxFntNu48a7pKvpfWutPUBc1LJL/PkJsMhVjSKfSzLNO8fnXgaKDGBUDWoigZFBCphSTErQHhskK0CQ6SuyOgyaRa94GnuhtywIygjtUGhC0hoUOFOTSMJ6quRkWF+IaBi98TxEBCw+SOAkkhpO2kkR5I2bjUL0ALBCwFQY4TqS+Ny1WbJ9MYcJzkAO4MURjXFaagpQkAI0whqgzTiSrbAFrTcFbj6pboY0yIhFSI2MmkzZE00By0c9Qs8MmBXP/bWhU7IRdG2yy6jA0mruqQUoXvtrR+EAmwUCkUGzfpwnHMWxEaN2vX3DdbIyIjbVlLTJLEOQdxCVTgfClIZWWgMnugXYTnrjJtaSjncCclBQ8Y6fXqgXjh2kROjcVpLhROxkRYD1SudBChot6OQuj6tZ5KJmekpJhrDQ3ouSVrs8hqh1gHltPW8avoD9xfvY88LIxS6Z5oiaYJbmAW8x2rtKba3CUWmIvj7bCG0SpTktthQTC6fSXLMwbFWBcY52Zbot0hWf3/t9+JD68ML4OaI9tC//uuX6vbbb6sXv/jgWuyN8mGRFBFoUcGjWocLrDk6XixxBdBegwfuokUMyE3S0LVNbxYlxYkJcRqAPuB8162rfiAbN95YfdddV9M33VQjSCSQXADZwPluvz0r49lnPpNkvVl8oS+P65jn1yORICDRGz3mmJp5/vOr8xd/UeMeud7YBIGfiXvuqeGPf5wV++SnPiUk4WG87i9BANo0cuyxTPA6J5/MoLspUxR9t95aw3/3d2w7TL33vdV5z3seMLl4qAkCkIKRU06pvltuqaljjqnpQw8VKvBgHJnJyepfurT6f/jDGj7rLH6G8MyBDLp6+fLaes89a/zzX6jZZz9bH6lVq9e6rqj649e/qGYZPF2RmjcQprlmv7HhKWgEUWCQpB6CVBJl+Wu4mCJJInkBCkdAwsaBzXeE43pqO1B9bnqGhk74eWoVQNERI5P0VVBQIadgDtW+IHT1bsXYbjZTV54yjRJgnKDDRGB2mmN8YujLfAnV7siIq2vu6KreomGQICIhmwRN3HP1iCNQw3l6Q9mNoBLZchSb1vX2i0/BEU2rVlLe2jwOBllXHILN5UHBoOgRQ/w31hJJSFwZE9DwXjxvWzKrF64RRVxzqtlwFnAcBHFW9RnNU2g0Mz5THUkGNHGhiYNWupnJjBMLfA+jewmiaKcMj4xS1AdrRa0ABjXwWUDEREtKbQEGWBILBd2HO8A2iwOC2hSy6M50AG4bkrXJiYnG4THtDDYNSCJV9EdyNDI6SoQB/Xi8pCshkiDRCZMXo0tATgf5H1CHtHaEzwfrIB6MuCrthEi8D/SnOANoqbVy1hynRJJJFUagbUpimrZQV/ImfQf3EULAjTOj/TEo+WwSJAmeXRUp1oj8BYzV8uf664WHHFYf/cT8IwhXXnlF3XTjjfXKV726/urkk+rkvzqF64sE4Rb0/R/BF+xtn/CEJzxiZ4DPB9wctwPpET3ja6+t/quu4hd5GfjvlSurL9oku+xCjgN622xbPPOZ/HMOiRCSQRKc9BWuxIYC2mZPEGZna/SkkxiM2CLYaaeH3H9HkjB6/PE1cM89Nfav/1qzG4tG3c8dX7t2Lfd/cbqKcPyWb31rzS1fXuNf+ALh+If0mp2tobPPrtETT2TLYfKEE2oWpNf7vDY1QUAbbeib36yRD32opg86qCZOP10tuk19jY/X6Ec+UiNnn93+Zl9fdf74XTXxP/+X1qI7QXjPGw+q6alJVzZtwA3ES939ZhNVd5ObnsezVPUMMEkAyoBeLPuyJXKjeAqoqoYaAhzNi6zcRwa9iXOq6C08ZOc8zsYP4hgaxdNmLuQBXgAZhQukjmRGFsY6Fjdue98iwIGrIB+FDjdNbLxRGaR8NHdxVdtCL4CCKGgpCKSPKzIfquXwIfhtmz3lHESgFCOfY2sITI2Ijyp7CDCFVEaxRM7IK1gxeDqAipmv39cIpIJcmPq64zEZ8hSBJw7UTtGIqqYSlEzgIoT62MHRcs7sZ8eFk4HWCZETn5AKlSDEMyK9fp1XdBCUzEmciWx6tHDofohCLzP+ug4hSDgtJQMRfULCoJaDno9QDRsyos+BUwOeXOjYKwMtFiI7XR8mjmeC5EceA7gTQ10B3KOKbKOFv0K8qnEN1boLOuIzwgkdJcl6njOyKGQi+iCRgG4SExKBbf+dBJuqihqJjJKiwLz2njfJqxM6oQs24FL3RP8XNIIHUHsMX/ssfml99G/m3+75sst+VXcsu6Ne9vKX10knnVh/5QThKU9+Ul1++eWbup3N68/fc889tQMg2EfohWd11apVte39BAxuzPh8rl5do3feWSN33ln9y5YRJkYFDuIZeQ9r1lRnYKA6o6M1NTRUMxi32357VoQkS2LqYtEiVpTka3gaI7yNqf7+mth559pip50WfhVwPf/2b/XEz3ymVp16aq194Qv5nhMTE/ysL8J5buJr9LbbarvTT6/JpUtr5cc/vknEwO636k4Q0Bba+swza6ulS2vF3/5tje+88yae1W//+ON+9ava6swza+1WW9W6972vZv7gD9ZrI230GmBvufLK2uJzn6ttr7uuJt/xjlp+xBHkszzU15bf/nbtcMwx6/361JFvqvEv/IP2i+4E4S0v25tCQSLzaQPK/tKa6LTqdiEfcvtpWO5yApydlaJeZ8q+8zG/oVuwgi7eglAsRwLD3rdZU8bD4o7I72OTxsaMClAjZUoKrKynyG1eQeyd3S+3ZTPll+1doBE0VYwcI6P6n5APxT70y4dreATCSmgXxOUxctOB4a22yApRCRNeTHxQ5NpwJ+NuMnCSD0OIelE3zARINgmsMQMEA51Ms1p7al07qu0kQUxgHMjaxEvXQ0Kbe/WGXqSAabdBBjRBMkq8qPcAK2ehOgmALVLTEj7FjFdlrJaDkKS8QihVEiihqPTnec+Y+Ohzg3FVchM8gUK+hK7KSZkSGK6LjZlaHoHaYgzYUfFseCkmElrugFwGT8N0kyaxbmonKIEKkVQkxkyNyCGSCYETqHgrIOERj8NIlJPoECQjkBXejD4/fhYaImMr482kL5MqRgmUxHmkkgewiJi5F43SI43PrP/gtgSTKpN3cYrPX/zS+vAC6CDcffddde6556oym6v643e9i3fxYbUYHupOeJ/f2ywthgc514c8xYDPwqpV/OJYJv4OPgb+vnw5iZhoWbANg/YGRvHA4TBfh2OkRr1A+pzec8+aefe7axYQ+gK+QDYdfcc7aur97xfcbhh8U6vn+54i4PWR//7fq3/VKlbSs3vuuclX0bQYpqdZlfffeWdNnngiSbTz8kKxc911bDkMXHQRyYvTf/iH4pts7BQDUIN/+Rd+oeU0dfTRNbP33pvU9ri/a+m7887a4tWv5vlxGxkaqonP/n1NvfnN2nG7E4TDF+9FBbmRUejlDxpylhshPuFIHDIDzgrWkHd8ChJ0RCRD1dhHtzskC3oJWp+kGqGqqUw/JOhQ4tgBVRA9f5JSuFBf5PjYEMYwAZVPE+qF5kKU/cSzw3jcBHu5yExxHED2rgEJWXP23nPsItxpQ+a5GyqGBgRbEIMDNToKt8dBSuPKRAcn79E/98lVHUvtTuZUgrJZKZuMSEjciAt61uobtwEvCICIbJJQpq4AA6ZaGkrG1KLgmOWsfCMk1yyEAz1zVrkeZ0OQEx9DwSbugyGKIgFBsuAw3FTY0qAQ/I02QTwUMvaIZK01s1JgFKIhaFtOlXIFlTpldBDMbzBFQs9VRinl4YD3WrTFiB04hdbowbEstHvpSrKCoEhfQC0OqEHOiI+B6RlqcmB8N0JQgtsb0qO/HyQBSUJ0HnB8tHuwBtREIO9B0zbkBHAkUgqTkVjGcyCT6dbnQZMiEfGy5kZX6ySoWYzAMmGRdoMEmKbVKqLugyY+iMzxGZCaaNaKI5p2PWXCj2ePvhxCvfB6/uJD64Nnzj+CgLVGdYZnDJ8fjKTi1UsQFkgoSUQkfvVxA/Z/N1yyKJUpcZ9dtqzqYx+rrS65pKbe+c7qHH+8uBvz/GI74L/+V3JCxj/3OfJE8nq4CQL3K/AFjj+++u+4o8bPOotE1E15MUGYna1t3vMekkwnPvnJmn3ucx928P2tcxgbq8HvfIejnUg+Jk49lWqRG1qD/iuuqJG//EtOJ+AeTb/tbTW3zTabcokP+rPgcgx86lP1o298ow78h7Nq+uCXNAncegnCEQftQ2VABJW+AUDQsHfGpuMROfeEE8ARsPGCPO4sxtSQqdrVUYEahD+F5YjHYBOF+59Y2bPNjDtgZ4kOqSUgBF8ukiCGqZpUAKdXAifc7NboEUbC0v39JB6SdDbdEVRNeDbWukIUMnuupMAweFcPN6z9aY4NytYYPIuB/lSVcg4Ev5JWxyZJUtcAdsfWeYjHREhn4WMIXp+tOejym6Co6KxNnGth0hkDjxEXxMEhCELF2ZHBBQRKhXYqOpIgiVYGggECM1pDGgkUcuNkAUgBft8ugTkPrbvuHQKWYHe4TAK61vc0smhJYNtyC7nW1IGQFIVHolGMiRa16uINiEgZZ0cbENG/AWuO50n3e4g9Qo02smVjPQ0clYmW/SJoXGTBqhAPKY/tFk0jbGUCp/ZO3IO56kx1RFB14MczABQBSReebzxDuK8iIFpuHAJbGLeMeBJaVtNTnOwRPzLTBkqIxaOVgmI8PoIshEwbpAbXqARa0shtX0QtAvyelBchCa3nExogQT7SeaIjqFEDeTkoaYNFOe7vfgcdtiAJwgPtSr0EYYEShE0MGeQgrFpVj/+P/6jhM88kKXLyL/9SlXOmQTbxmL/141NTNfTpT9fQV79aY+eeW3UfnYgNBceNfXuSHz/yEepaTIA3sPvuG3cNc3M1ds01tdUpp9TolVfWxNlnzx9y8AAnD34JyIUDF19c069+da15/etrdpddapF1QIjyjI1xEmbon/+5Bs87j1MJk6ec8pDbKBtax40ac3zjwftSvY91DzZmzpJbShkVFGfPRWSLORL0DgCpqp0+x4AniWW1GCSepNOL9r+SA01BRE4WevSNI6HhUm7UQA3wvhBSYZtX7Qn1rdOXF9zKjdWTBqoCpXsQyJybMshtrDxF8MPWGf2ElFRSa4wIkwx8kLNgE5YGATZjwf1hy1M0ypoGpAYYos+mng1eCAUIeWLDq/JVshAugNoPresjSEdJcqTBIOElTXpocXksBH5KNWsGH8RHVMEaCVXVyEDhdoF4BUI3xJ1QoOQEQpQtfa8Cr0c+2+4WMvBqFAR1X4ROxAJbyQLP0miJEAbdf1XAnpLBgKlbNBHk0linxI/wc/ChiLx32it87ohaTfNGcb3Wk0FukSgFY7cs8lw2MtRpxYh3IF2KdtqADBsiOUqMcFVswVBFVDoUfFD4zWgoqC0W3ooABLVX1GpzCyNJU9pRvFeRao4EdUt01CeqJUAG+aIhGNbL4474KSSTIfvyGbVcONdidrb2hlDSGfOPIPQShAfelh9yi2FDO/0mfL+bpNh/88019Ld/y5E+CgEddRQr/of7wkjjyIknVue442r6da/7rap8vhIEfhpuv72GP/EJwfgf+EDNvOY1G1Q1RJAe+Ju/IRo+hcr+Oc95uJe8Ub8PueaB73+/Bs47r+qqq4iq9IELAmQA7SJMt6xaVbN77VXTr3wlxcIWYpIlJ7tRCcJr99+TY4AgcvUBbmagzzib7i2CEMyJWKXb7EXxxta4zcbXqtZxNBBoOTdcOCm6xw2tAk9SiomPzU2FEkV4PGbHYNkHMp2qxZgUIbYOjyB5AOIRBrxlnMmU79TcjIKx4GIbPiVIkJRn+NejnLJkzlhaJJ8t0cu9H+0NQcqUkrYkMjZa2UMP1vAghIvUt9d4JfwmFFCEgIgnEN5B4GRNAJh05zUSMdItmszPN7yJKQYCakyMjLINwWTB6IISGBMMLZncBGlPIEiNEpWqOB3hnSgwm+zmAMeEziqIsRPGexB6x/WSRKlJBiotEk3QhAsSuxAglSzGJ0AJC1ENICeWgGZS1kUujSCQrk+TEDgftEVGRmCclSSEv2kRoEhqK0nFcytbcks5Q/SKQVbJrd7bvAonHWn58NmlMJRRF/89QmGyQwdXRNdGQzA+A0qGSKp0wM/YowK8fBmwNlqTdvRRqJkRIicsDa/BT1QSSSW/abPgcxSNBqEMEbUKt4JFgG3W9118WB1/xuYTSuohCI8iBGF8vB7nXjgC0uDXvkaxn+kDDqjORz/60NjxjjoQqRp961tr5hWvqM4JJ0i45z6v+UwQ+NldvZpyyJBvBq9i8r/9t/u/hnXraugf/7GGv/jFWrfXXjUL7gFQh839GhurKfT/ly2rLcAdWb6col3wdqDYFqZXNkJE6uGe9kYlCG89dP9aN7amJtFfdU+akK176NngBXlDhAYTCXbdM+QZZ7+ccKpXjZKpKlOwVLEVBcLY5AKa1bgXNmMbN5nwiDbEDFzvPKrHsThWR30kEqIywsaIgKN+MZKKKY5VQvSJiQJIh/AyoBwjAofaEkwU7EGF1gh0cTRyb9U7Mv0ND9vSWD1gVcJ4D7ROGMAI4aPNMFhbbLElN27Audr8tenjpVaApgjwRfoCFCQJYctOGy8kGeBDMHmwlDW9GBCwsV7gITBYDlDCGtclNUONSDIYOOFK/AkMHf2FBELcmAFrUaA1IW6GyXlNYPd90/RmM4nAtsagqlWhBArmTe8bPBJfd9NisYQ3fpfOjiUdCnl4JJkyMdYS31kboTkgC8rwiVMZVstklU4USGuB4zNIUwoZaJj4BZk+0OkqWcJ64yVNjrSAMtVj+3InL52OWlBSdxzg6CTQBCVeag2NjEJrQwZJSkXaRBMy0jgn6hJYHpzoited1xQZafMlZKrlloURCyFJSTZa+3M6aEY9lGOuaEfoPfHvQyNDtf/BL6/3n/LJh7vHbPTv9xKER2eCkBsIBctFRx5JMafJz3ymZp/xjI2+t/lBBOrRI46ovuFhtRbuJznAz853gpAPBgS1Ro89lsJaIAROveUtNQtpZLRM/+M/mED0LVlSk2ecUcuPPLKGMfK8APyLjVm4BVmDjXnjrp/ZqAThXa89uHklUOAAACAASURBVMYnOtWZniLBC2RCBawh9oBbnXxFeFWUUOhD3x9QK+bX4wao0axmDIIMdXAV5JgoVCCKfIZ27Zwn9zwOAppnA8KZRifDUdBoJUhiEDeCRoLElUKYox6+tfBVRWOiYpoiRajykCTggYj8sgKFRtQ0UqfNXDwLS+9CgMliTCHKZcqD1S5HOzPTLrtgTRbBQ0BaBiHpUbXRTWlV7modgFSHdY3bpMibVnU03wDrEwJgAo4SrQhb6dwl8SvuRStPrRaQgGbbYVurIm2G8DYCcUcyWOQ3kex46iZ5ilzodaJvARI08RY00eAxSycLeGY0cucg5xHBJBVKO5SUaGHaqZK8fxMg2Y4SH4utH09OMPgNDRJZwu8rKVNlT8Kmfy6SxDoXjJOK2CnRK3FgmMxQPhwvGVDpZeTDo6oI9lJ3TNun1YgIOoBEIdLYGqcUcTdrkuOTuOpx2JB/Geh1I6VG6hFfJT4ygQrXxlRIcRiYnMglkz/LG6cghWQMUwwf2oxSy70E4dGdIPApx3jliSdKjOiDH6zZgw/e6EqWQkYnn8x2xfg//RMr4Qd6LWRwxBTHwDe/WYPf/Gb1L1kiGW7sAtttV9MvfGFN/9Ef0VNjY7wYNjHebtKPL+QabOyJbFSC8J4jXlYTE+OqvOYEn0vQBlXhMKv6hglueWL6LvT1k0g4Omq4n+OLYrCrUm/qppScTT9a427pIaffa8EdqjUDKoU/gxIEuM8Jera2gYOIkhdV/SSS0fnQTWYSKYEoiKWPal7XpaQC1bSqXjkYaqpApyqjHvEW9N8I1laBdJUnd0QgIkogpHAXpGNK9s1zczUysqiGh0bUkzdxknwCIjRAKDTVAK4DXtRiCLegmRjMJIIqY5wvlCGhzIhjkjgorEb2y66SZTokASKnPqg3HYAjIaweOxI+BSP9pDgP0o6SumKQgdwfJzddIkkaYRUqIJJdtyqi2y0OpI0nRgQ7FYf1PmwB6XfjhSB1x7gkGlY3lyKk03BbeCjKduuehDMQHYkkJfTuCK/EvAo9uuZtuPXAM/e9UIDOZIbMlDIii3sOPg8+QxF1iqgUkSMrXeqeyM8EZEglO+JTNJwRPXiNoDaTJAqDxXBKN4fBPwideQ4UQ2KypBZbUDyhX0KHYNb0gVM3n1lTL0F49CcI/Nzce28NfulLNfz3f08nxSmMQ8LwJ+Mv9xN9MF45DDGkm26qyVNP3SDhb7MER4jOwZgLY5/4XEB2G71+X0cvQYBy+Zo64ogj6nsXfH+9u7reFMPH3vuGWrZ8Ra0en1DAMkwqxr8q2anOdE1MIhMTnI+NUBtfP2Fbae9PUZVwdAuMH4r9Lha5TJmwuSt4xwAoToQKDAqaQhwCtQL2xwYsdT5NHvD9KR0rxcRsfjh3VYJinYs7IYJiVAVVoQl27sAdsA+MdRkfcWIgjr2Ec1t+hSpOkQPxRaMc97LlA6HgF5Z52PhyGcQPaC3xZ1wwxYOItoINemhhrRdCA9UmSZjTuGlbbQukkZGSnCGlKin7adEX0otXDx0BC60WEj/9DjgljtgZicBqogJH8iQjqaxzG4SUALoVwsRI1yCJaFT0U6xQmQyxHQSUaahRGZSoUlAEJYU4d2JHJhkS/WncCCVHnVXJ7zaujF1BMRoDQUmEryjZyVRFu895ooQGYbq3JDz2zXHcV+utVgMWLNfNZfVkhzNekzxbIyQ+X5zI0L2jeqbFlIBgxb9EhktKDPHvI6NCt/Tv0ySfIllpU94ksh6r9OfKykxE34g0NBbaLReieXaMku2z+LB6/1/1WgwbW23Nx8892kiKD3hNnQ5n5Kk1sGRJdY45huZK9/cirP+BD1BSeOKv/1rJwQZ8JTZLgrCBG9ZLEDYyQfjMsW+hstW6iU7dtWZ1rR4fs4wtgrp6nFBJRIJAmWJDnoKbUUKrQiXUjwA1aAta6CcYRQh0ysBnVjv+ItY1oFaNtpHY6PE3wcqqQumUByEmjHh5tAtcBQYA9+jRT8AGDy2EjIoh+AfN0IieSHmEoUloRKUvMiHY//gZBG4mF41ipIJk1BQzghcUICNzJNR5vJPhGdGKhDMlNOhZj49j9K6vRhctIn+CRMvAFIbxASMDtRE6oaDJDd8M+qb8LyAF4jNgLBMJGj0PmOS0cL3Y9zZqIipkRGV6ymz6fE/JWYIx1groC48UgxyP2AFB0iSD1ldVqZjzCMhJMhslSwZ/JDxCl/CF66SHQUarch8zz981/cA1ilgRCZ36XyJn0wLxSCwTtq4mfFoHmY6ISym4NjKsyjisxmgzrYJnehRcAtspM+Bbnjkk025BrG6RKLXLDOmTW2MFTxuExbobE0Mi68r3A88ndDxgmS3OhrkqjT9Hq2UgknDs05WoNeqTTraUQGvSB60Q8l6qap8XH1bHf2zzkRSfsdvT6z3vefd8xNmHfIyxsbGNNgh6yG/yIL+I5xS8pWhDLMR7bOiY8THBKPuGXn1r19UeF1xQ28/O1E/e8Ib7/fEdf/2b2vtHP6zz3vQmGk9tzKtb1XVjfn4hfgZIn0aXha5u7tejZQ2+8Y1v1C8vvnS9y18PQfj5332+brvr2rpj+c3VmZ6s8c5ULV+7ttZOdmriPpV7hwZNNp1BwKYuByOZYPthBAxL6LrHjrI8o30SAso0g6B9/K6mJmSUgzo0FsQO04JS+e+qpaS/L9Y2pwscPBScRIpEFY8ERGx7j23y1xVE83CEcU5oO5LMs/JPiByuxgktiBT4Obr66ZmbGR+lxpgwuUnhfjm0IFBlqyeMYIQXxvgwBaFxNPXvVb27WmWf2bA6gwJQGXE5Gt4Ej+QqVmVuEHuFUx9bbX6B6PhdBi6bKbHtYkMjiCgxmDMAqc2ixCOwdoyCNObYfR+FjlsB0WOoQVMYRBt5Z3hRqB2FVwP9c01jv8y7yu9HOKghGeq3mt8XvUNeA0moIo/doCEmMaovr0kLjk4y2TJPASO8TmTADyG3g8hJZL7DubHWQ7w6jI4pabWOAZNFqyxmksLjrWiZ6d60iZPQNrWgOEpp7Qlpaeh+MYnrVloUvCbUyM9KtC/IAfIzmvuNZOF5B7ykjj1t8405fuc739nce3Dv/eZpBVBSiIr9268ozGT2a57esneYzbgCr371qx84QXjcD1fVijV31013XlW/vuUnddNdv+EGOzk1zWTh3jVjtXYSUHk/fQxUHapalqFNgragYPIBoEUABjllfAV7QwkRVWk4AuyTWsc/m5plDZuWRPY8VdBKEoIsMFGIW52TBMnomvwltNXcAllFz7HfDDKgR8080gnUQJMZClb0kLDYD64XVSYgYBWlqupVmXk8Tpi2KmNu3mqT4O8K4Nqk1b/G34F24L+FYADJyJgcpkTodOnAp9DioO61R+slyUGmINKeQWBZPygaZue5SM44UtM6OSVUMSSSZ4CRnJDmHJBCnmTV2rQAFLylX2GkxQlK9wSMtDH0foHehYQnmCoJEk9AqEQQFF2/ZbSZrfi/kYwyEdF6NkJEvK9KzdKuioCRjutxP6NSQgGSpGhUl+flyZhGX4Hvq/Xi6O9QRKM8YeCEFUfi2LCnfEjSTbVPxEXrFc6E0JS2TWX8RwBJw+tItaNnKlwfrCt5Q1ZZNKOWvycNEyUfeSaCLj3vgIPrz07+1Gbchnpv1VuB3go8FlZgPQQBCQJH3imYM10rx+6p8y87p26441LB8DNVY5NTdeeqsVo5NsWNBxteEoUQolAFgZuAYCeymy1r7arIwAz5YlgtN9KwJqF1QaXU4GdVZ6lis+cZTEDmsxa+9nAFF7wYkDl+qI2XRD6Md9HqWNoOmqiwuY5hZbQ3UMkTMh/sZyW/aHSUVR2uUxuvxJkyYhl4OVbFqdxTwUmFUhoOEULC2pB01o8RxJYVr1G8mZrsTJDgRvi+HyTKEXIG0tsX1I/rFAKRZIwxxAGTyYkDSpwgwQdgAsbkRfwRcUssLGTJ4gRBBFBWz3F4zLSBFB0Mx4cBIMZ+mBPRV9CHQMgQj+uqls6VDeLSah7I4EhIhhIfEfiAaEQquh27lGaEbru4InkWOPJnZCWumkpqjCxwfNWIBJIZuYG0hFkH+CRzepawHjF06gq2JJSKbCg0yPdBjFVdJzk1Xc6KbpsQ9XKSwWcXSJ29KlrPELlERqqa97lxvOQgMdcWSQoFwqx6iWee7pL5fHhHEnkUgmfKOvY+8JD6s5Pl3tZ79VagtwK9FcgK3G+C0L08CFg33nVVXXzj/1d3r7y5Vo8tZ6BdN9mpu1eP1/jUlDgJGO+y419c6lB1saIxuYsERsgsz0CTwPwEqyQq6BbZ+Oxju1JO35wBiRWtKnBWbx7VypibqlbNm4vlLla5pHRVxcvhz+iDWeDs9XNkMn37VGYg1olcR+Ebb7wcX+Qmre9p6sGB1n4JGSsUQVBoARMYIgrTJIEKGBAs7hjiiljtAYosYb2mHYyt4sdZf1afHjd0JStpYgVMJky+kUwQKCwkdICeDZBSdk9b7QsFHVXtaYboWArs+kciQUYR2hFBjz+616/evAKV7oVg8IDrCpRKFqTiqJcQF7eV7MIYk6KoJgpeV/BPBczevI2sdJwkL+1YqdaeGIlVLPnu1rkwSsB7lHGFmI4ZKWMgV9Mi/gu8Z0QWMAUDmEITL90tIJwPZbF9fUy6jLjwhEyszHRIzj+upgZWjDZJTCzjiRHaAneDiRzQsP65GkJyCy8VtyuYDE6JXxMzLyFyuu59Fh9aHzjtPzeCgM8DLJ7XrVtXa9esqec897kFR0f891Of+tTN0n/G5/Oeu++ucfC81q2rZzzjGXXvvffSTXaXJz+5sRteyPCEZwYmWpjkAv9piy0WcR2gO/L03XZrRdkW8CTWrFldq1at5jO540471YoVK6iHAOvrx99HinmhTgPvuW7tWu5PO++8M+//DTdcXzs+ccfa2sJRC/XeOS6eR3D+kKw/8YlPLBiIIaHffvvta8stt1zot+fx77hjGTlx4DptvfXWtWzZMu5nuBc4hw0mCN1neefKJXXlbb+s65ddWktX3MTqfqIzU2smJmrlurFay6pXEKmqfG3i3OQhfoOvjkxuBIOHEBZnR7UeEFhYjRkhCF9Bbn+u8uzyqGRBe930tKAF/n9Xn551Ir7vMTRxA7LZcgtvBI806oYEAe0E9X1TXVJvwZbJUjdsZ9WxAUV3AOZK7PtnFp+9elesMRrilIEnENQw93V41LIrcUB+xTFPe1gQGaCbpSSonRG4jx5Og4New5dQ5Zz34X01TB7kRS6c7l+n9+8xvCQN+LVU8OyB0xPBstAJriavivSn4JhkQkz+TIZ4hiIje0EqIvfsRIX3lmiHkgh6IlhnQQmIdBgkCpRgLNKexjrbRErPs5IT5AxR0hzwRIv1vPVjXEJPb/B9womJE6V8RbDx555In6KF87UkaXMoKWkmTXgqSuSaNbQENcWQqPEQXoWJuJ76YLJi/YUgBSS0suXjMeNBiJkNEqnjO6fNx1FWETJxP/Z+4Uvq/X/1t5tlQ3qk3gSB8bLLLqubb7qxvvzlc+p/ffJTdfbZZ1MR9djjjt8sIjkIBjiHJbfeWl//+lfr2GOPr4svvrhWr1ldr3jFK+u5MAha4Nedd95ZX/vqubXr059e11xzTe313L1q6bKltfT2pfX6I46oPTDGuMCv73z727V69aq67fbb65WvfBX/ftddd9eSJbfWn/3Z+xf43XX4fzz7rNp22+1qyW1L6ogj3sDgfM45X6rXvPq1tfjFL94s5/A3n/jretaznlV33X137bffC+ob3/g697Ujjzyydttt08WpHspJ/8VHTqj9XvACItZPefJT6vvfv7B2f+Yz62lP27Ve+MIXblqCgBMASx4owr1rltVPrz2vbrnrCmYDnenZGuug/bC2Vq7DmKQ2NFY1rp6mpwCVij2dah8BFx9SIBDYjLFAixaNcuRQND3JLqvy8qbOjV1qhfRe8CaMBAFfnLiw/bC7DurzG1KWtr+Y85JNRlWPABBte3zPkwCE6ROIFTDwgmwvmO+aYZf2gEYaO9zspeQoshuiB4mQ1iAIebKZ8SMhMpMYISVKdVESxHhfhhETMaU0KTMkWzLTyVHS0TpWtCXsA0A0Jc5+CgyZLGjn9CVsJJa9GPMM7h75VBsl6gnu1bslRFEs+zDEf0OVvhJE3MvIT+sMwyFp0QUFbSdh8SvwBECemVTvuedKHpWotb4WbXtJ1br5IE4O8EemK3DtqP5lPGXlpoYIauljJ01BQxqxLHNfhFBJGlwole4dtEOojuixWHkyRJERiJgSAwkYzdDSm8JWTEKT1OR+WFwKyayLf7bInCBn4gXnMmX+jazRxZXhyOoIPlP25Zibq+HBYbos7vvil9afnfQ/Hsr+8pj7nW9/61us0B6//fb19a9/rZ76lKfWoi0W1eGHv36zXcs//dMXmQxgX/nOt79VN9xwQ5140sm1yy67LPg5rFq1ss4666xavWoV3w/rgCAFJGP58uX1utcdvuDncMEF36tLL7m0rr/h+jrllFPrCU94Qn3729+uyYmJeuORRy74++MNvnzOOXXbbUuIKr3+iDfU8uX3spp/wg5P2GwJwmc/+5kaW7eOe8Zuz9i9Vq5cUbs+7Wm1fMWKOvLIN603yr5Qi3L66adxL37ijjvW4sWL61Of+mTtvNPO9apXvbqev88+m54gdJ8oNsXrll1W37/ia7VizRJV/HNVa8emaunKtbW2M1kzdFzExqlpA1Wo2vwEKSvgYm+G4M8k5m6hmw/G9iCqn1H+na6HTBT0hY0V6o2o2mVZjBn2EeoLpOLmcbHZ8mciwoSNFtMOqgzp7zCN98apiDSmFocllm1BjI2YiIJHgkhOm4PQks4To5EIpFCgBEyE80sFTRb6gDQWiDyg/x10JAJPCXCYwWc1rCRKLQHIJ0sHgu0begIlCEL4SXwPIRyyhMY0hHwH4NwnTQIkZ0E91KKITPL6ao0JvvhTKogS5qFXQkb7mHlJUIltAgShYZDxROxMkkGfgS6+QdoVPFe6Lqrqd+HPsl3E0Ja7ItQoCYWeQOkJ6H3C4pdgl1QrcUBxPkTIxAv3hjwCC3iJOOhJHDuHxp6b8Hzgf3IEWr5NOBppD+SZxknHpVQjZHBf8DPiqRChW/bL6JqCkZAVTM9aHoRQBbSTWj8UHBMW1eHcBCEhOmel0QFIPdPrQ2hdZ7JT4xNjTEKGR4Zr0aJhJuJ+AGq/g15aH/rY5ptiWKjNbkPHBZT+7W99s456yx/WsmVL6yc/+Untu+++9c1vfrM+9KEPb+jX5+X7t99+OyvF973v/6mf/OTHgvpHR1nN/9E73zkv7/FgB7n88ssK53DwwS+pk07673XggYvr6U/frW688cbabrtt+e8L+cLn79xz/6322ut5dfttt9W6dWv5jCM4vvmot2y2Nsvn/v7v66i3HFUX/eyiuvmWm2v16jV15ZVX1LOf9aw67vgPLvh5AHX82Omn1fEf/FCdf955ddvtt9Vuu+1Wz372nvXj//ujetvb/8uCt3uAGnzog8czOf2P88/jM/C6ww+vNavX1KrVq4jubFKL4cEenCX33FAX33hhLbnnmlqx5i5Wousmp+qetZh8mKwJIgdKDli5T0vGlkEIPX2gAiQ3yuY3o2j4PjZtyD2zEo9rIyWWsfm2okb8HnwU2DKQhC0TFELYkGO25DAnBvQeBQLhbD+lnNFdkJ16pJ67RgytY4dTlrpfes0ag6NREzbyLsMdtUjs9QC9BQcGKhVSD0DQewSGOC3hSjx6B2L6i98Ri+r07TniSfMkHEPrKEhcQlEYgEBCg7WLbDWP23AwJMoUQqV4ELLVBkJBuNxyyU2/3LK+DLxANbgeCmKEzt1uaK6Djo12IzQpUbyOlkMQwyQSPqPe6JaMCI7tk5dgKYKjDYkaCegm3zTnA79nwzGlFU2FL3XITGBg/awxEOdM80vUSvKEhf9sxhyMhIQPonFJJZhyxVTypL+buejEJxMFfCZkhUr0ie0tJoWtSmKSJyVSSqby90w/KFOzNHk4LV2kTKJ0SF6B1EWIykqbBxz8sjrh459eyLjwqDj21VdfxTYd+Adr166p8847v+65+65681FH1fbb77BZzvGii37GCu2pT3ta3XLLLfXTn/ykxsbH6rWvfR370Av9Wrt2bV14wQU1Pj7GqvGpT30aA9LqNWvq3e9+z2bRZbj88svryiuuoDHgC/Y/oL5/4YUsLp6www6s5jfHC8nZrbcuYUv75a94JQ2rLr30UpLSn/XsZ2+OU6jzzvv3WrF8Bd/7gAMOqK99/Wv0cdln331rzz333Czn8G9f+QqL8iftvDM5KP/+3e/W9ts/vvbZZ1/+97wlCKzQpifrjpVL6vblN9SVSy6q2++9gcFhfHK61nWULKwam+gKUHFS9Pje/Zg5McgbeUiwzebacgKsHujqbKBfvgdMRGanmSCo/6qkRLB/G/yrBoki4Cv8iUDQqtTFX2AFbfGhKC3iYhDkwwxH6wGBGsQj9LWROERBUuNsIGj20VQJlb6sAqROKIU/uQVSeRBTDRAkIikSgQHwshMKV95CAVQMoiCNXXOShczQywsCqIHIjRGQ4jQIqk+3LFRtG1FoiHV6VqUXofYEuAey6wbaoqZBNCzC2GcQEyAuBMBkVakHKmCLz0AdqYYgmeDfkj8do5vZfvx3GyiDbogE2S3d3eUqyeTLD4gTlXAyeHTzMfhXT1swiXMQFdE045PWdbC6pKZAwHWgrWlDos2QhoZ4fW9MnBXJtot/4Pvdtl703nhfqlECVQMi5PFQJUreQ7KW5v4gQY6dOhEjtk/0nIkgm7YTnq3Z2u/FL62P/s3/mbcNSbyYeTtc70C9FeitwGZagai55u3mNUHIQbH5jU2uqWuXXlb/9+pv1fI1t0Hrj4EWicKylatr9cSktnuz25sqsy82w9rs+/uFHFBB0UZICfT4dWyatJ7mzir9AbD8gSakD4/fl6iM2gYKnpLVRRCXARQCrarnGaAPtnJWoqDNXWOVHuSzX0MCOqDcECxxbMA32JChUgZjKDlIAvaeqpqDzj4IZbM1CmGkYSjoabIjI4UR/BdkjywAgUuEu8a3gRwPVZrq1tj1kPv/+oTEjBSKsyEkph8CVlboEyfDPXQaE7WiQVhj2QerlRCrZ4kQOWGwqyXXy6OtRFlcZWsCRWCFfAH6uxwmY6aUlg3aIjISIseCSZ1QiugnYP2aRIJoRKtzwTVz8pJEgi0JO1q2lbjJlbbeVqJAYevG5Ei5g2yz2cqyC2LaHsR1kLixC6PzI5bix4QjpRGkouWzyah2bCSx0MRFWmlTURJEXa1RPCPw3vR1cDKqhLTVXoimgxI5aGfovtDAihM6OK7UNhuiqJ/hP3jhS+qDH5s/L4Ytt1jUoIObaV/rvU1vBXorMA8rsGbt2HpHWZAE4b7nedOdV9cPr/xa3bXqppqYnODmiTHJO1av5QQERJea2XZyDLoqy34o7IE8Jy0EkhwTvF3FYhNGIMYceNwLIwSUDZH99y4/CE4rOKhp/E/VPjZ76gsAcjbfQZoB0IEQVEyUwRC4Rjo1lsmZd/acxbJnPx1aEBytA2lRioxDwzJEmpmGmc+kgxFaIOk3h3AX1r4SACAjnO5gsIMmgz0nCGdAWs+VtgNSglQz1pkg7hYKgwyDNcYRkyCIuKnrU3hUH7x1uEQLI3oCall4hJNVargBNJkWtmDfC+o4eHwxrH0iCXPFhApOm0hG4k/ApMBlchIAT1s2rQjxD8xjYVLT+j4IWVgfHchkDJ8xjhki+EvFUToRIn1yqsHjManUlZ/ohJUECB3Bz/b1wXPEI5193Z4JbTugbRFlTFeYh6zNxXvhvSVh1zwc+JtQ+TIleVoragFJiCzkylhT2/XRoyfRnwC8js8Bkxq37JC97PPiQ+v4j/3vedhedIittkSC0NUXmrcj9w7UW4HeCizkCqxes27zJwh4x8mpibrprqvqhjsuq1vvuabuWXk7T2RscrqWr0PrYZxTEOrjqoJ1wdnMvJNUaBVAjTViw5vhHCcdEPtgdAMS1mjXBIH7xzZravv9Cn4RwElfXlr8A6Tuiy0ukxwy1DnCKfIZiGJN/z+scpL11E+Wqx6EdfooXoN2gtyvFVyIXtiGmpr/HtFrEhxbMBMRIbci2gaetHDwSjIVEl94AVw7s+rJteArFbhaDPETEIw+IIfBPkxKxENB7QsFYAVGSlATRRCvQwhEuAAKhusJI3cpbiqw6r6SE4IEwGOjhNw9ORGkB/+NSZCRkVGy8PNKYNZ0RTs+mu+H06Bg7tZHMgtX9t3HyjOXb/EM7cGhZCztKdwLTGNAE8MIVdaWyxJZ50yeqg3TKmBKlVLiWkIW+H0nObJ8bpM8ii6JKeGkuR0H7k7YpCmhe6LLzH22HLOTGCQS/AwhATESBlRq38UvnVcdhF6CsJBbeO/YvRVYuBV4xBKEXBIC512rl9Z1S39Vl9z4g1q1bhk3wImOxiTvWrmGY5IR7WEdauIdBXBIZtQMt3rnmo6Y7IClD/KhJhwA22+xaJHMmBiQWkfGVH9qYnhKADAzgz7ej+xBwbsm33nb9vclaYskIYiCgqqJ4UYSpNcvbgGV9ggZs0mgoDML+2EJRnHigRwB8SYa50kElDDZrYLI4G8dfo6LEip2q6GxHFa7RZN7SkCkcBwfCWlVpKKOoZDskDE3r0DPRGyqy23TVuAJegn2bdPZEypI8poxR8sZc8rFfBP+GYEptwiaIK5kgZyNGak5iqiKUc4QHNF6AfEVap1qmUQYCOeUpEhJjO5zEppwDNKuEAoS+WshC6zm+Sz4zmdiwlMcNCTzuUQkK1LjDNZueUUcCqFerS3pImj00Q0YdYOUKBBJSJJgPxEjFS2/QlmERKM84ulniy07TwqxWa0RIgAAGrtJREFUxdOVgCFh1Vgv1BW9rkNDtc+Bh9b7T5k/oaRegrBwG/h8HhkjfmCu77///vNy2N/85jf8nGJsMq/vfve7HJ+DCE/v9ehfgUc8QeheImyI1995RX3n4rNr5drba6DQ6+5j+2Hpvatq9ViHgRpJAslVUMuLdbP78WTw244aGz2EayYmxjnTigCzaNFIbb31VnTio3KCWwuBzVN5o7XA6jea/BkjNDmPRC8b5KjiFBwtFAMyzrGcFjkyUscSZQqaoOAGWBgJA34XTF5s9+zL06dC44nY6EkqZDZA816KN8VIiKuSCQFOIqi1IafJlk8Qlrz68gi6Ko8RKAhdEzGQnwCSCLVwMBooK2c4DeLc+PMOXZg0QTImwSurLJr/R0MuqjTqWHhJJbN1S6NCJFAfM+oFRIiUqbFITThEc0J9fqE9mJVGYIfDIdYRzHyMcOb4+D1IZGMtG74Iz8IISIyXXLWH99GMc8aAylE645qNUyOvy34ZbIdIshhS0GyNOMnDg6RgrzaQVDddwVsFVKiQzi0oTq6bfAS3McSfcQLRoFoCDNjgsmkaR2upvTHQaIhIlMliTeYvKGkUpwStnRccdFh98OPz5+bYSxAe/YEAZ3jBBRfUl770pTrllFMKgRwqhi960Yso5nTVVVcx0N922231tre9rX76058ymdhnn32o4XDhhRfWqlWr6vDDD+dIIJ6nM888sz784Q/Xj3/8Y2o7QPAHo6UYJ8Uxeq9H/wo8qhKELNfk1HhdueSX9etbf1LL1yytNWMruPOtnZiqu9eM0X56EqOP4AQ01VVXn5w9YBENU/EhCI1PjtNSFQ/vyAh8FUZqdGREkwP0OUDVbUMeV5gIKhHXEfGLEVrSxyTGuac+aBknuiACrkdgVZIQBjm0FhKk1Aogx53BDxA1XqiAOVHQKBa6WgZj3ahAeuAi5kmqN5bajnsiEEJlsEudMtMDs5ivB7xsq18KLhk6l5peW43i70RSLEuNwMSg7ZaIWgjuoZOXAf6GDbQssESin0WhVBXrruXc2DJxwMdon0ZaVTmzuu6i55Or4FaGGgZKdNSnFyQvTQVxD+S4CPLqUA04iWQIZiIjcS2eC687JEhV2grVgud574Mm6QmQbICnWXDOMprS/dAUhu3OSTBs5beZLADFiRS2xxVbMWyjLm4T8DicWNGr5eR06YdYCyNrS2XQBumRLwQQFyQLkdluxaEs5EX+yUDtc+Ah9eenzJ8XQy9BePQHApzh1VdfXT/60Y9q5cqVTG61T47UJZdcUu9///spqISEAEknRjIxinfuuefWm970Jgb9HXbYgcjAm9/8Zn7//PPPr3e9611MEnbdddc69NBDObr55S9/uY4++ujNImf92Fj5R+9ZPioThCwXUIKb77qmrr79l3Xd7ZfW6rF7uGWPT87U6vGJWrF2vMamMMctUyOOMGoLNSnKNS4rM7kodqamWK3S7MZ9fqg0QpwEVR+EaWRfHPtckQ5VPYsUKHi+Vcqjt0QmCBzMpKKnjjF7y0gaXNm1ctCq7DUu6arRgZTwsx0fEfyjEcHzsHeCGPJql3husEk21IduSP6aDsEX4h1IbISzbcVMDwq7G7oyTQDUVIlJmAxOrU4D1k9BHmhKdAzaAJZAFB0JBfugAa54rSTIa3HEzwiqnoOYc6XNYOdJ+0+IH+BJAxtTpRrm8+BJFnAXWqlnIUNpxzSkQ16DSX9WjMz7dwdmqRqqJYIXpcPpGGkXUaJSSnKSZITTEYRC9xP3RBMF4nAQO2haH3ryWuvshkPhkU5KL8d/xF0Mno/NyXTf1L4KL8QfD52/E5NMWhDVGOiv/Q9+WX2wR1J89O7aC3Rm119/PQM9EoJDDjmEaor4fKPqf/vb315f/epXa7/99qtf/epXRJpe+9rX1qc//el6znOeQ61+eFgAhTjuuOOYbFx00UX1jne8g4kFvCaAQOy9995MEP7kT/5kwcWHFmiZfqcO+6hOEHInOtOTtXZiVd1819X1wyu+XqvW3UE/hM7UXI1PTdddkHMem5QLnoWSmDCgmnXfHSOLDOKoIvsghDRTk1CUG0f7YZKbM1QaYVaCRKGdy2/lcGPShM1dxMlUktIm6CagJQlACwAbu1T+MAkRvQX5QWRCQAz5gPYtR53/0ngVhMyHQKvWBf6HwAckBERHVKUkQxJVEIwdmFoxLT3teFhYmrhhw3k80pGkEYnqMsKiEZDie0PUJAfC0wnkGhDtsJJglxJk+uYMvJSLBiIgMp/m8ZUsEVuhyZKQBrxC4NPEgTl4mWqwD8Z9yY7TbDnAtGqO7Rq8l5KUtvUioqCRCSM6vrPNlEKIkro2oD1KRTVSGsfGLqSEY5mwWpaUeISu+P5ssUBNEy0ktVCUgEREqkU1bFNmHxOtkVACjHvGfCrsmUiD6+yA/OTcdK+QRJtPYVlxkWSNqFhD+4CDD6u/+Otei+F3KhJU1ZIlS+pzn/scA/73vvc9VvtACa699lq2BL72ta9RaRIJwq233kpZYhgbvfvd764zzjiDz/kxxxzD30e74fOf/3wde+yxdeqpp/LYSDLwPaAO733vezeLdPDv2j2c7+t9TCQI3ReN6YeLb/hB/fy682qis7KRC1470amlK6CnMGFgViSwBBi5ALa9dKkrQm4XdspTTBLQv8YvY0RyFP4PdMATvAyoGsdqiG/ezEUKawVxCDV7bJBeByYUhuVPslvTj9YIIYl/cQekaqFm/iUMpPaBGsxmuBPGh0ETpInVwsDPAgVBpSzym6H1ATn5MbAF5eDpZizPELrbBA15L+kPeuwMNHpPFZ6q4lVJK0Ay0SFB0kYNRgqa/rYVJRvyHTkaOKCTBKtoqqrOyKGqfITh2GjLE0JTFPF1kB+Dkom4aSaAq5cfx0X0/5GAaE1xb9LqcVfE2hniSbQW1GoDUViISaeVMy15jGOQF0GtDbWr0g6gqJcThKaSN8lQyQw0DjDqCgfIJB4aU1xPp8F8hWg24A2DUOQaSE5lG0WJi6YhPFHSIAxC0tLuiheXJlN0T8BB+Mv/MX9CSb0Ww3xv24/88RD8X/WqVz2oX8QXvvAF8g622Wab5oTBVcB/o1XRez36V+AxlyBkSUGMu+q2S+rXt/y4lt57Q41PrqIYDOSc76Wcc6c6ELKxlr/Y+RIFyqhYH7X/RV4TT2CGZEaoHiKwgGwjDwhV4hrLMxzsXjDOR4z6jEGqukVyAFIe1fG67J8zJhkoWKHQgkw01cm4pOB8BheK8WTqwcmIpxZC+GsJblohVKVMDEgSlICS/t38Ao/PZZZfgdhXSAGfVKXyQFCCEhZdRKZa50yuymwLvScRYPD0SGm4BJpciCS0Ewz7cEQPAQGQDHsKB2lNyX1gsiRSJQOh+xJJEvBvFJfi+bgSN3Su1gPW17La4Y/QzRCEwogauaoOl8Eqha3sc6YZunD9LvKloP9u22qjH9bKoKmStT7wTFLmmSZgNvGCxwdaKFYg1M8k5dD9lSOknoWMykpmudsAqssGm7/ukduG/9K2uEKkxX3f/6DD6r99Yv4QhC0WjTT+F4/+LbF3hhuzAjfffFPtuONOtAV+oNfY2BhNj5785Kc0P3LdddfVM5+5e9Oe25j36v3MI7cC68bG13vzzSKUNJ+XOza5tu5YcWvdes/VdckNP6g1Y/ewepqcmqNK4/KxdRRfEmFQpEJyCGZc3aMF0NVTBrEL/uwgnCn4KOCgupOksyR6GTM1/chgHBicm3QCrQOhRIYUBFIhBybm2JmtrCUF7YodLpRxazRUnOpRQVdSx82IXnr5rvyVUMR1co4mVZpqUHVK/kAXoS/3JGOAYcSnmpeCH1l5mh4x0dATgUouGBiVWIi9H/i9FQJq1hQQuyvuGbpuRvshQV9nhFWIP0TL8FeVrDYOgnmCpX4jvflMGjA0WmMiyAKPbE2GBF+iAEwWpDPBe9/lDBmiYfgCuuYgMU4I2Nf3efn54ZhsJh01YNkKT3l6AJMXSHpRyeM9gQTBSAlmU1JfNIphRCDmXSKAWnGzOZ9ukifSZiUKQklawaLkeyGFhiuz30GHzasXg/gWzkjn88PfO1ZvBXorsKAr0Grm6G0ecwlCVgescCQLP7/uwvrpNd+p2Zl1VXNAB/pqzcRk3b1mTa1YN95E9hhAZSyP/AX2hwepoyDoX7bAQBQSKKlRYKEjkeklu9uYDbGXLlKfvu+N0aqCCARZ9HZuXZMTEcIB0NHpgOimIEtZXQczQfaZ608LIwHCgd+QPIO0kw6mLX1wvBwixwLRgr35mmtFpDxKqfFCBTL2rt3aSGBEFY7xUAVncxmcGFFFkXC4jYQ4IeHeukfwcK+6HTpRbOt+tGqNgccThCPOlMKcCRm5HeCC2IAp0wDd1bbbGNKncIvB0s+N/gWvW0E7o5q8n742uTUKe0KiRNtuTK0E5m/QgvT3MQ0BTQsjHiR26toyPaE1CjBjJIbtKUyxSB1USaVklpEsdKuCykchLqPtc6apEiVKDbeA9tFWJ6WFuRJaPO/xYcjnCO+7z+JD6/jT509JcUF3sN7BeyvQW4HNtgKP2QShe4WmZjp16Y0/qotvuKBWrb2TplEItmsnp+rOVWuYMHSsw8+NO8Q09r6x6wvyT5892gaZesiEA/kBlnOm8BLcJAcHFThd2ZF85/ZGUIYGdm8mHtoBN1WkCrBykhSXIj1+TU+4ts5kAt/Pm37m7qGlQEOmAWszTBmoVzBkWwSICM9B0wzgNAhlEMFQ1bOmBIIsiEiXfrVbBZJXtHGUgiiug2JR/NnuCYf23IXEyD9A15TWQEYhox+hkUWgPrRM9nhpy6t0+8drkMmGhkjYJGpo2Sj5IxfB184EyJMkzZgofQusMAhdAwd7ET51v5r1w70PSmH3SaAseq7ikaDxUc+2ak29LhmtbcyueD7yCGnItkSxoLMA+2onHj6XnL8mMlvVxCAjrUCWTJn4M17vJLD8WY639tXeL3pJHXvqJzfbptN7o94K9FbgsbEC/ykShCz1mvGVdd2yX9etd19V1y/9Va2bWEmTqHWT03SRXDE2UesmJ+WO2FjnqrJryGuueil+BJnG9OrdxwUkzakHjg5CAEdcAcDR68H1DRQttNVDiDzVjKIxqcA8PrUYMrmY6k+BmoHXExqpeBumegOLtwGZTpZdKAaigEYuZfQjIR2J++AVTYUkDiR5NiOIcQyUvHJbqyrBSPDjXxuzKCUvmWEMJJ/xQ1yziIfStJCioFoIStaUwDVwuFsY1KHg72SktV2vBMrwNsKuDGOffAUHxOZ80iEIRyMCUz43kjSxXtYSULdIVTkJo1EpZGIIsQj7M7BF1QoTBTUwYGedBT8PjRNnOBpaU0lkqwWjIK6kAwJa4pa0jpVNkqAF9DoaUzAnIyTLtBvSitGjPVf7Lj6kjj+thyA8Nrbs3ln2VmDzrcB/qgQhy4bJh7tXL63Lb/5xXXbjD2tqGu2H/urMzNV4Z7ruXrO2Vq6TmyQDI+Nd9ziixsWQIExOTFKpDxW+DJe0UYP9l6BPfsAg0IVWHCeFehIPSfeu36vm9hw4uhHpaRnp2fOZUJCQphE6VtWuiMmxoHiPtBvQWWAwJGdBplEMyvxdJUYcxTRqgGtA8EErRTB7e45C9TOCiApZaIQQB/s1WOWRPABrDdDlUUdqhaIaXoZaEiQekt8QaFz+BCI4JmmLtoSuiaOlhHpCvGx7+2kJxdEz6A0LbGtEtMqEsKtOQNV5sr5v3CK18hn5bCZAPOpKlIAJQhIbrEvVwBD+PcfzOWItPKFANcqu5EEYivkKRqDYarF5UyJ+k9ToF4RW2dMB5xDNDLZs8j8mbV1STP49JW9By5QYP/9FB9fxp82f1PLm275679Rbgd4KLOQK/KdMELoXDJoKP736/Pq/V36tZmcnOIuPih0qjUuXr6nVE+AbaNMNnD47p2AaMhc4CRiNBHQ+hFFIuh+qHRDpYrzn4BAmCRBs4+YI/QSNnYVxHmiXf1qm2IUcT7u7VRHRIgaNWDH7T/bw3WqQlbHkeJkgxIuAMoiuQJEAdE1eSJK5RTMQUNGikMCQGfWat/AIIObs5X3AlgU0Bpp5/lhLx9kQXAj9fEMOpZaE2icSXFJvnOJKFo9SZdwqLoa1r3WRi2WmVNiz5+JH9yGCQfIYwEtTLJrokF20BbEii00Optoi6d9jUeIOqQQu0wRxqdSkBcZSgSRhRDYTI1GKxH9rEKRNCHBG4VzkXjZjtFSAVILKVo+Fu5rJDatQgPuoZNEIjN1JkbDimmV+ZclwPne8+i5Dq3bSgsRSTFH09zNBOHYelRQXcsPqHbu3Ar0V2Hwr8J8+QchSrh5bXpfc8MO6+a4r6q6VN9f45BjZ3mOd6bpnzUStGpusCbpJInCj74/2giBtVXA2unHVq2Cm9gArZhaCCKZGExp3ROnit5bLSUYU9CMGlPMMkRGBIqz9qCSmIk9LRIFC/XTSAmxHrWkLB8k5KTriesRbUH9flafEg0iCpAmFOgM432j6R2mQxEwpJDuYauJARlRIFqTWyKQKlSv1DqrmptUuiEcB5aI9VKng64kHoukh71kBksFfo31CPMTMl9OmEgvyEzI94PVsEAMjKdQLoHW0VlnJIG6YzjccBa4HLaIdrBv3Tbd7oHPo60ubCNdNRU4nIIH/mbhkIoKoSHj9FsViNyFy4U4kurj/QgnELwiHINoeSVySwHKpea1qRchqXKTTeGogW8h6qb0W/kLVPkQQehyEzbft9t6ptwKPjRX4nUkQcjvWTayh7fRVS35OnkJnaoyBZ7wzQ1IjnCTh/SBWudjpZJd7BI8VLFwk6SSJgKbJA4G5pqn3q08uAyKQAwPfK9Ck8tb4oaFss84bboTHE2Wc1N13lzgRgk+bYOCtQcgDDG/Y3jC8kA7oLahy5xcjth0QTcYLisHgCJ8K6zCIXxHoP+S8GEMJ4mdP3sfhiB49H9T2oKcARywV6Bq2voWAMvOfcUkENga+8Pu6XBaRulAYicRM5DN26CST36JS/l1NJIj1L36FyYYM1B7D40XrPolrYtKkYX68gzpQHlv1Hdb5Gb7HdWE5vU7wgOB1klwpYmRACLluigjajAL6QpHASf9C10RiqBEiGT3JWTSoTyNSldFQ3jfpJ6SFw3ZSvySnI7IVyXBeuVsq+7zoJXX8af/zsbFj9c6ytwK9FdhsK/A7lyBkZWEQBVIjVBp/evW3q6+mSGicnumr8c5U3bNmHZMF6ftLcEkbNwcBa2ZOwkjT0C+Yg/W0eQI2lMqm3k8GuhMETD0AnicHIMxyHVOqe+375PtBMATJi5XP4OByWB4OCCoQgQJkb40BCg6p/94kIYa5lSQgAAn2x6txiXTAU1KkGf9UnBy7AzmzCY5IFHR94UXivzUN4modlbJ76iHct1Md1qhgu8DCATbeSlEskqatmPOnrkwIhbUM0iIisdNsvfxbNCiYLNkwKQqMMfhSxZ7kw0RRrqvQC7okoD3itkF4AbzPJJoqQWm9MwYa4ae0sPIMpXqXDLTaJ0zI+B9S8SQ/wwqdJCp2oQnSwzCa0iAiFkHKfcUz2tiXezR3YJAtEUziBJnBsfdZfEgdd+rfbrZNp/dGvRXorcBjYwV+ZxOE7tuzamx5XXj5uXXjHZfVZGc1SYlQXISc852rVtWa8Q5HEAHhzoGfMAuBG0gR0wmJbQZJOEsrAEFCIjQSuyGkjwBPPgAEg+S0F7Qg1WSY6824mh372mBtmWRD64TSKQnc2jhnxBDvjeuQQKKUCIF6pAvNCjwWwo0stWblGeTvoySppEDVKWBshGdqSZC7IFXCoADkMBCBsNAUftPeFBk3NE1AaAOdE1unTMHqQi2S3LixoaSGUL94F/HDiH137KbnbMKE+5ykKqOJHLNMQsZkJq0RIQE0xxrQ6GYmRpIcgihKTQivZHeyEz5EM1pogSScoyYRIK8MS3MFf6xppLlhGka0hgiDkiUmR+R9GPVxMsDjW9egbReEdxGRLiVyIrWKsxBtBLzPMPQxhkd4r/ddfGgde0ovQXhsbNm9s+ytwOZbgV6C0LXWq8dW1K9v+Vlde/sva+m919f0TIeJwvjkNEWXVq2bqLUTEwUSYxr2MYNCuyE+C0gasHHLb8HQN+x+MUVATwGFO1RyjT4BlQvj8WCRG2vrK5BoakLBVAhAamj6D9BQyIiAeXUkK7oKFUqBUUEHmzgDNjK80oNQ216JQMM3YOyJl7ZIi6ze6cUQn4JWsS+6BEIXxPhvet4cE1TiFJSBx0rrg+CA0JVA81TFpHBCK8oUFETkT4tOCRQx16KF5IMo4A2F0sD4CMme1kIdl3Z8kAQ+ynJ7jqCZCtHUAtkmjYRzvCKsORC3S16DrlDkRN0UuYTG6lstASZcmqP0/AdpFo2qY+5rDKTSflHyZzEmW2wn6Ywqk5IcE27N9xCyMMPfRTL0okNfUR85c/6kljff9tV7p94K9FZgIVdgvQRhcDnU/Bby7R4bx1617p66e/Wymp1FguD+dVVNTk3XxBRGHrVICYQKlgkd+jOqhM2IWrcuAn9e/e0w3xtY3toHipDt7UilmOM1K9k1DdHg/Cb75Yyac+tyReyenNDfE21+e54+7YMcT6OP7UXnv5t/72L/i4vh1WiSAgf7+3kcFMzXP370Ebp/nETN5mF1qrSe9oQTkK6T7+Yl6J/b3wvS0n0NmSLJT4r82KUG0SVc1d59HXP99MdtD68/+RiZAJFCl25dMzHRPlt8+pKpKYdonj+Ndvp5a9ZW2afQLR0zZNCsHxMMj53i74/f/gn1zOf8/mPjw9k7y94K9FZgs63AegnCZnvX3hv1VqC3Ar0V6K1AbwV6K/CoXoFegvCovj29k/v/261jGgAAGIZh/FkXRnoYQSfvCQECBAgQaAQEQuNulQABAgQIXAsIhOv3OI4AAQIECDQCAqFxt0qAAAECBK4FBML1exxHgAABAgQaAYHQuFslQIAAAQLXAgLh+j2OI0CAAAECjYBAaNytEiBAgACBawGBcP0exxEgQIAAgUZAIDTuVgkQIECAwLWAQLh+j+MIECBAgEAjIBAad6sECBAgQOBaQCBcv8dxBAgQIECgERAIjbtVAgQIECBwLTCpJZdZK/yORgAAAABJRU5ErkJggg==;" vertex="1" parent="1">
                    <mxGeometry x="-834" y="1134" width="800.27" height="410.9" as="geometry"/>
                </mxCell>
            </root>
        </mxGraphModel>
    </diagram>
</mxfile>